{"glyphs":{"0":{"ha":961,"x_min":40,"x_max":921,"o":"m 481 -22 q 252 38 351 -22 q 97 211 153 97 q 40 486 40 325 q 97 761 40 647 q 252 935 153 875 q 481 994 351 994 q 709 935 610 994 q 865 761 808 875 q 921 486 921 647 q 865 211 921 325 q 709 38 808 97 q 481 -22 610 -22 m 481 240 q 538 263 513 240 q 577 339 563 285 q 592 486 592 393 q 577 634 592 581 q 538 710 563 688 q 481 732 513 732 q 424 710 449 732 q 384 634 399 688 q 369 486 369 581 q 384 339 369 393 q 424 263 399 285 q 481 240 449 240 z "},"1":{"ha":581,"x_min":7,"x_max":501,"o":"m 174 0 l 174 725 l 7 725 l 7 972 l 501 972 l 501 0 l 174 0 z "},"2":{"ha":844,"x_min":-18,"x_max":818,"o":"m 39 0 l 39 201 l 390 526 q 453 604 440 574 q 467 660 467 635 q 443 716 467 696 q 372 736 419 736 q 290 713 329 736 q 229 646 251 690 l -18 769 q 140 932 35 869 q 403 994 246 994 q 607 957 518 994 q 746 851 696 919 q 796 690 796 783 q 784 596 796 643 q 736 497 772 549 q 629 381 700 444 l 490 254 l 818 254 l 818 0 l 39 0 z "},"3":{"ha":853,"x_min":-8,"x_max":819,"o":"m 375 -22 q 172 0 275 -22 q -8 65 69 22 l 103 307 q 234 253 165 271 q 364 236 303 236 q 455 255 419 236 q 490 311 490 274 q 464 360 490 343 q 375 378 438 378 l 246 378 l 246 579 l 389 725 l 42 725 l 42 972 l 767 972 l 767 771 l 586 588 q 760 486 701 560 q 819 311 819 413 q 773 151 819 228 q 628 26 726 75 q 375 -22 531 -22 z "},"4":{"ha":989,"x_min":32,"x_max":983,"o":"m 32 167 l 32 375 l 444 972 l 781 972 l 414 421 l 546 421 l 546 569 l 854 569 l 854 421 l 983 421 l 983 167 l 854 167 l 854 0 l 536 0 l 536 167 l 32 167 z "},"5":{"ha":860,"x_min":7,"x_max":835,"o":"m 390 -22 q 188 0 290 -22 q 7 65 85 22 l 118 307 q 249 253 181 271 q 378 236 317 236 q 469 256 433 236 q 506 313 506 275 q 476 363 506 344 q 358 382 447 382 l 76 382 l 125 972 l 771 972 l 771 725 l 394 725 l 388 629 l 438 629 q 669 588 582 629 q 795 476 756 546 q 835 319 835 406 q 788 155 835 233 q 644 27 742 76 q 390 -22 546 -22 z "},"6":{"ha":918,"x_min":40,"x_max":901,"o":"m 507 -22 q 263 31 368 -22 q 99 191 158 85 q 40 456 40 297 q 108 747 40 626 q 298 931 176 867 q 579 994 419 994 q 745 974 665 994 q 881 918 825 954 l 763 689 q 676 730 719 719 q 586 740 632 740 q 447 698 503 740 q 375 575 392 656 q 460 615 413 601 q 568 629 507 629 q 733 591 657 629 q 855 483 808 553 q 901 318 901 414 q 849 138 901 214 q 706 19 796 61 q 507 -22 617 -22 m 485 204 q 557 231 529 204 q 585 303 585 257 q 557 376 585 349 q 485 403 529 403 q 413 376 442 403 q 385 303 385 349 q 413 231 385 257 q 485 204 442 204 z "},"7":{"ha":896,"x_min":29,"x_max":861,"o":"m 179 0 l 488 718 l 300 718 l 300 576 l 29 576 l 29 972 l 861 972 l 861 771 l 538 0 l 179 0 z "},"8":{"ha":942,"x_min":35,"x_max":907,"o":"m 471 -22 q 244 16 342 -22 q 90 124 146 54 q 35 289 35 194 q 69 418 35 361 q 165 513 104 475 q 95 596 121 547 q 69 704 69 644 q 121 858 69 793 q 263 958 172 922 q 471 994 353 994 q 679 958 589 994 q 821 858 769 922 q 872 704 872 793 q 847 596 872 644 q 776 513 821 547 q 872 418 838 475 q 907 289 907 361 q 851 124 907 194 q 698 16 796 54 q 471 -22 600 -22 m 471 199 q 548 226 518 199 q 578 300 578 253 q 548 374 578 347 q 471 401 518 401 q 394 374 424 401 q 364 300 364 347 q 394 226 364 253 q 471 199 424 199 m 471 607 q 526 629 504 607 q 549 690 549 651 q 526 752 549 731 q 471 774 504 774 q 415 752 438 774 q 393 690 393 731 q 415 629 393 651 q 471 607 438 607 z "},"9":{"ha":918,"x_min":17,"x_max":878,"o":"m 339 -22 q 173 -2 253 -22 q 38 54 93 18 l 156 283 q 242 242 199 253 q 332 232 286 232 q 471 274 415 232 q 543 397 526 317 q 458 357 506 371 q 350 343 411 343 q 185 381 261 343 q 63 490 110 419 q 17 654 17 560 q 69 835 17 758 q 212 953 122 911 q 411 994 301 994 q 655 941 550 994 q 819 782 760 888 q 878 517 878 676 q 810 226 878 346 q 621 42 742 106 q 339 -22 500 -22 m 433 569 q 506 597 478 569 q 533 669 533 624 q 506 742 533 715 q 433 768 478 768 q 362 742 390 768 q 333 669 333 715 q 362 597 333 624 q 433 569 390 569 z "},"A":{"ha":1119,"x_min":-26,"x_max":1146,"o":"m -26 0 l 399 972 l 721 972 l 1146 0 l 807 0 l 742 169 l 372 169 l 307 0 l -26 0 m 463 406 l 651 406 l 557 650 l 463 406 z "},"Á":{"ha":1119,"x_min":-26,"x_max":1146,"o":"m -26 0 l 399 972 l 721 972 l 1146 0 l 807 0 l 742 169 l 372 169 l 307 0 l -26 0 m 463 406 l 651 406 l 557 650 l 463 406 m 414 1051 l 597 1274 l 896 1274 l 622 1051 l 414 1051 z "},"Ă":{"ha":1119,"x_min":-26,"x_max":1146,"o":"m -26 0 l 399 972 l 721 972 l 1146 0 l 807 0 l 742 169 l 372 169 l 307 0 l -26 0 m 463 406 l 651 406 l 557 650 l 463 406 m 560 1051 q 355 1115 435 1051 q 269 1288 275 1178 l 457 1288 q 488 1226 460 1249 q 560 1203 517 1203 q 631 1226 603 1203 q 663 1288 660 1249 l 850 1288 q 765 1115 844 1178 q 560 1051 685 1051 z "},"Ắ":{"ha":1119,"x_min":-26,"x_max":1146,"o":"m -26 0 l 399 972 l 721 972 l 1146 0 l 807 0 l 742 169 l 372 169 l 307 0 l -26 0 m 463 406 l 651 406 l 557 650 l 463 406 m 560 1043 q 356 1096 435 1043 q 269 1238 276 1149 l 446 1238 q 481 1195 450 1211 q 560 1179 513 1179 q 639 1195 608 1179 q 674 1238 669 1211 l 850 1238 q 765 1096 844 1149 q 560 1043 685 1043 m 414 1285 l 556 1465 l 854 1465 l 622 1285 l 414 1285 z "},"Ặ":{"ha":1119,"x_min":-26,"x_max":1146,"o":"m -26 0 l 399 972 l 721 972 l 1146 0 l 807 0 l 742 169 l 372 169 l 307 0 l -26 0 m 463 406 l 651 406 l 557 650 l 463 406 m 560 -365 q 446 -321 490 -365 q 401 -207 401 -276 q 446 -93 401 -137 q 560 -49 490 -49 q 674 -93 629 -49 q 718 -207 718 -137 q 674 -321 718 -276 q 560 -365 629 -365 m 560 1051 q 355 1115 435 1051 q 269 1288 275 1178 l 457 1288 q 488 1226 460 1249 q 560 1203 517 1203 q 631 1226 603 1203 q 663 1288 660 1249 l 850 1288 q 765 1115 844 1178 q 560 1051 685 1051 z "},"Ằ":{"ha":1119,"x_min":-26,"x_max":1146,"o":"m -26 0 l 399 972 l 721 972 l 1146 0 l 807 0 l 742 169 l 372 169 l 307 0 l -26 0 m 463 406 l 651 406 l 557 650 l 463 406 m 560 1043 q 356 1096 435 1043 q 269 1238 276 1149 l 446 1238 q 481 1195 450 1211 q 560 1179 513 1179 q 639 1195 608 1179 q 674 1238 669 1211 l 850 1238 q 765 1096 844 1149 q 560 1043 685 1043 m 497 1285 l 265 1465 l 564 1465 l 706 1285 l 497 1285 z "},"Ẳ":{"ha":1119,"x_min":-26,"x_max":1146,"o":"m -26 0 l 399 972 l 721 972 l 1146 0 l 807 0 l 742 169 l 372 169 l 307 0 l -26 0 m 463 406 l 651 406 l 557 650 l 463 406 m 560 1043 q 356 1096 435 1043 q 269 1238 276 1149 l 446 1238 q 481 1195 450 1211 q 560 1179 513 1179 q 639 1195 608 1179 q 674 1238 669 1211 l 850 1238 q 765 1096 844 1149 q 560 1043 685 1043 m 608 1243 l 536 1306 q 574 1334 564 1321 q 583 1357 583 1347 q 572 1382 583 1372 q 543 1392 561 1392 q 479 1375 513 1392 l 432 1460 q 495 1486 460 1478 q 569 1494 531 1494 q 677 1462 636 1494 q 718 1372 718 1429 q 685 1293 718 1326 q 608 1243 653 1260 z "},"Ẵ":{"ha":1119,"x_min":-26,"x_max":1146,"o":"m -26 0 l 399 972 l 721 972 l 1146 0 l 807 0 l 742 169 l 372 169 l 307 0 l -26 0 m 463 406 l 651 406 l 557 650 l 463 406 m 560 1043 q 356 1096 435 1043 q 269 1238 276 1149 l 446 1238 q 481 1195 450 1211 q 560 1179 513 1179 q 639 1195 608 1179 q 674 1238 669 1211 l 850 1238 q 765 1096 844 1149 q 560 1043 685 1043 m 672 1297 q 600 1308 629 1297 q 551 1333 571 1319 q 513 1358 531 1347 q 474 1369 494 1369 q 434 1353 450 1369 q 415 1310 418 1336 l 263 1310 q 313 1457 263 1404 q 449 1510 364 1510 q 539 1492 504 1510 q 599 1456 574 1474 q 650 1438 624 1438 q 691 1456 675 1438 q 708 1497 707 1474 l 857 1497 q 808 1349 857 1401 q 672 1297 758 1297 z "},"Ǎ":{"ha":1119,"x_min":-26,"x_max":1146,"o":"m -26 0 l 399 972 l 721 972 l 1146 0 l 807 0 l 742 169 l 372 169 l 307 0 l -26 0 m 463 406 l 651 406 l 557 650 l 463 406 m 426 1051 l 249 1274 l 443 1274 l 560 1167 l 676 1274 l 871 1274 l 693 1051 l 426 1051 z "},"Â":{"ha":1119,"x_min":-26,"x_max":1146,"o":"m -26 0 l 399 972 l 721 972 l 1146 0 l 807 0 l 742 169 l 372 169 l 307 0 l -26 0 m 463 406 l 651 406 l 557 650 l 463 406 m 249 1051 l 426 1274 l 693 1274 l 871 1051 l 676 1051 l 560 1158 l 443 1051 l 249 1051 z "},"Ấ":{"ha":1119,"x_min":-26,"x_max":1201,"o":"m -26 0 l 399 972 l 721 972 l 1146 0 l 807 0 l 742 169 l 372 169 l 307 0 l -26 0 m 463 406 l 651 406 l 557 650 l 463 406 m 249 1051 l 428 1232 l 692 1232 l 871 1051 l 676 1051 l 560 1136 l 443 1051 l 249 1051 m 761 1197 l 903 1378 l 1201 1378 l 969 1197 l 761 1197 z "},"Ậ":{"ha":1119,"x_min":-26,"x_max":1146,"o":"m -26 0 l 399 972 l 721 972 l 1146 0 l 807 0 l 742 169 l 372 169 l 307 0 l -26 0 m 463 406 l 651 406 l 557 650 l 463 406 m 560 -365 q 446 -321 490 -365 q 401 -207 401 -276 q 446 -93 401 -137 q 560 -49 490 -49 q 674 -93 629 -49 q 718 -207 718 -137 q 674 -321 718 -276 q 560 -365 629 -365 m 249 1051 l 426 1274 l 693 1274 l 871 1051 l 676 1051 l 560 1158 l 443 1051 l 249 1051 z "},"Ầ":{"ha":1119,"x_min":-26,"x_max":1146,"o":"m -26 0 l 399 972 l 721 972 l 1146 0 l 807 0 l 742 169 l 372 169 l 307 0 l -26 0 m 463 406 l 651 406 l 557 650 l 463 406 m 249 1051 l 428 1232 l 692 1232 l 871 1051 l 676 1051 l 560 1136 l 443 1051 l 249 1051 m 844 1197 l 613 1378 l 911 1378 l 1053 1197 l 844 1197 z "},"Ẩ":{"ha":1119,"x_min":-26,"x_max":1146,"o":"m -26 0 l 399 972 l 721 972 l 1146 0 l 807 0 l 742 169 l 372 169 l 307 0 l -26 0 m 463 406 l 651 406 l 557 650 l 463 406 m 249 1051 l 428 1232 l 692 1232 l 871 1051 l 676 1051 l 560 1136 l 443 1051 l 249 1051 m 858 1169 l 786 1232 q 824 1260 814 1247 q 833 1283 833 1274 q 822 1308 833 1299 q 793 1318 811 1318 q 729 1301 763 1318 l 682 1386 q 745 1413 710 1404 q 819 1421 781 1421 q 927 1388 886 1421 q 968 1299 968 1356 q 935 1219 968 1253 q 858 1169 903 1186 z "},"Ẫ":{"ha":1119,"x_min":-26,"x_max":1146,"o":"m -26 0 l 399 972 l 721 972 l 1146 0 l 807 0 l 742 169 l 372 169 l 307 0 l -26 0 m 463 406 l 651 406 l 557 650 l 463 406 m 249 1051 l 428 1232 l 692 1232 l 871 1051 l 676 1051 l 560 1136 l 443 1051 l 249 1051 m 672 1292 q 600 1303 629 1292 q 551 1328 571 1314 q 513 1353 531 1342 q 474 1364 494 1364 q 434 1347 450 1364 q 415 1304 418 1331 l 263 1304 q 313 1451 263 1399 q 449 1504 364 1504 q 539 1486 504 1504 q 599 1450 574 1468 q 650 1432 624 1432 q 691 1450 675 1432 q 708 1492 707 1468 l 857 1492 q 808 1344 857 1396 q 672 1292 758 1292 z "},"Ȁ":{"ha":1119,"x_min":-26,"x_max":1146,"o":"m -26 0 l 399 972 l 721 972 l 1146 0 l 807 0 l 742 169 l 372 169 l 307 0 l -26 0 m 463 406 l 651 406 l 557 650 l 463 406 m 293 1051 l 158 1274 l 429 1274 l 501 1051 l 293 1051 m 618 1051 l 483 1274 l 754 1274 l 826 1051 l 618 1051 z "},"Ä":{"ha":1119,"x_min":-26,"x_max":1146,"o":"m -26 0 l 399 972 l 721 972 l 1146 0 l 807 0 l 742 169 l 372 169 l 307 0 l -26 0 m 463 406 l 651 406 l 557 650 l 463 406 m 406 1040 q 317 1074 353 1040 q 281 1163 281 1107 q 317 1252 281 1218 q 406 1286 353 1286 q 494 1252 458 1286 q 531 1163 531 1218 q 494 1074 531 1107 q 406 1040 458 1040 m 714 1040 q 625 1074 661 1040 q 589 1163 589 1107 q 625 1252 589 1218 q 714 1286 661 1286 q 803 1252 767 1286 q 839 1163 839 1218 q 803 1074 839 1107 q 714 1040 767 1040 z "},"Ǟ":{"ha":1119,"x_min":-26,"x_max":1146,"o":"m -26 0 l 399 972 l 721 972 l 1146 0 l 807 0 l 742 169 l 372 169 l 307 0 l -26 0 m 463 406 l 651 406 l 557 650 l 463 406 m 413 1040 q 328 1072 363 1040 q 294 1156 294 1104 q 328 1240 294 1208 q 413 1272 363 1272 q 497 1240 463 1272 q 531 1156 531 1208 q 497 1072 531 1104 q 413 1040 463 1040 m 707 1040 q 623 1072 657 1040 q 589 1156 589 1104 q 623 1240 589 1208 q 707 1272 657 1272 q 791 1240 757 1272 q 825 1156 825 1208 q 791 1072 825 1104 q 707 1040 757 1040 m 268 1338 l 268 1493 l 851 1493 l 851 1338 l 268 1338 z "},"Ȧ":{"ha":1119,"x_min":-26,"x_max":1146,"o":"m -26 0 l 399 972 l 721 972 l 1146 0 l 807 0 l 742 169 l 372 169 l 307 0 l -26 0 m 463 406 l 651 406 l 557 650 l 463 406 m 560 1038 q 446 1082 490 1038 q 401 1196 401 1126 q 446 1310 401 1265 q 560 1354 490 1354 q 674 1310 629 1354 q 718 1196 718 1265 q 674 1082 718 1126 q 560 1038 629 1038 z "},"Ạ":{"ha":1119,"x_min":-26,"x_max":1146,"o":"m -26 0 l 399 972 l 721 972 l 1146 0 l 807 0 l 742 169 l 372 169 l 307 0 l -26 0 m 463 406 l 651 406 l 557 650 l 463 406 m 560 -365 q 446 -321 490 -365 q 401 -207 401 -276 q 446 -93 401 -137 q 560 -49 490 -49 q 674 -93 629 -49 q 718 -207 718 -137 q 674 -321 718 -276 q 560 -365 629 -365 z "},"Ǡ":{"ha":1119,"x_min":-26,"x_max":1146,"o":"m -26 0 l 399 972 l 721 972 l 1146 0 l 807 0 l 742 169 l 372 169 l 307 0 l -26 0 m 463 406 l 651 406 l 557 650 l 463 406 m 560 1038 q 471 1070 507 1038 q 435 1158 435 1103 q 471 1248 435 1214 q 560 1282 507 1282 q 649 1248 613 1282 q 685 1158 685 1214 q 649 1070 685 1103 q 560 1038 613 1038 m 268 1338 l 268 1493 l 851 1493 l 851 1338 l 268 1338 z "},"À":{"ha":1119,"x_min":-26,"x_max":1146,"o":"m -26 0 l 399 972 l 721 972 l 1146 0 l 807 0 l 742 169 l 372 169 l 307 0 l -26 0 m 463 406 l 651 406 l 557 650 l 463 406 m 497 1051 l 224 1274 l 522 1274 l 706 1051 l 497 1051 z "},"Ả":{"ha":1119,"x_min":-26,"x_max":1146,"o":"m -26 0 l 399 972 l 721 972 l 1146 0 l 807 0 l 742 169 l 372 169 l 307 0 l -26 0 m 463 406 l 651 406 l 557 650 l 463 406 m 564 1007 l 469 1097 q 522 1135 510 1117 q 533 1172 533 1154 q 517 1211 533 1197 q 475 1225 501 1225 q 396 1197 436 1225 l 332 1314 q 427 1360 381 1346 q 515 1375 474 1375 q 621 1350 575 1375 q 692 1284 667 1325 q 718 1196 718 1243 q 682 1094 718 1144 q 564 1007 646 1043 z "},"Ȃ":{"ha":1119,"x_min":-26,"x_max":1146,"o":"m -26 0 l 399 972 l 721 972 l 1146 0 l 807 0 l 742 169 l 372 169 l 307 0 l -26 0 m 463 406 l 651 406 l 557 650 l 463 406 m 269 1051 q 355 1224 275 1161 q 560 1288 435 1288 q 765 1224 685 1288 q 850 1051 844 1161 l 663 1051 q 631 1113 660 1090 q 560 1136 603 1136 q 488 1113 517 1136 q 457 1051 460 1090 l 269 1051 z "},"Ɑ":{"ha":1211,"x_min":40,"x_max":1132,"o":"m 533 -15 q 281 47 393 -15 q 105 221 169 108 q 40 488 40 333 q 106 756 40 643 q 282 931 171 869 q 529 992 393 992 q 806 886 706 992 l 806 972 l 1132 972 l 1132 0 l 821 0 l 821 101 q 533 -15 722 -15 m 592 246 q 748 309 685 246 q 811 486 811 372 q 748 665 811 601 q 592 728 685 728 q 435 665 499 728 q 371 486 371 601 q 435 309 371 372 q 592 246 499 246 z "},"Ā":{"ha":1119,"x_min":-26,"x_max":1146,"o":"m -26 0 l 399 972 l 721 972 l 1146 0 l 807 0 l 742 169 l 372 169 l 307 0 l -26 0 m 463 406 l 651 406 l 557 650 l 463 406 m 268 1081 l 268 1244 l 851 1244 l 851 1081 l 268 1081 z "},"Ą":{"ha":1119,"x_min":-26,"x_max":1181,"o":"m -26 0 l 399 972 l 721 972 l 1146 0 l 807 0 l 742 169 l 372 169 l 307 0 l -26 0 m 463 406 l 651 406 l 557 650 l 463 406 m 1024 -333 q 862 -287 919 -333 q 804 -162 804 -240 q 865 -26 804 -85 q 1036 68 926 33 l 1146 0 q 1022 -71 1056 -39 q 988 -135 988 -103 q 1005 -175 988 -158 q 1061 -192 1022 -192 q 1106 -185 1085 -192 q 1143 -172 1128 -179 l 1181 -301 q 1112 -324 1156 -315 q 1024 -333 1068 -333 z "},"Å":{"ha":1119,"x_min":-26,"x_max":1146,"o":"m -26 0 l 399 972 l 721 972 l 1146 0 l 807 0 l 742 169 l 372 169 l 307 0 l -26 0 m 463 406 l 651 406 l 557 650 l 463 406 m 560 1021 q 461 1046 506 1021 q 391 1113 417 1071 q 365 1207 365 1156 q 391 1301 365 1260 q 461 1368 417 1343 q 560 1393 506 1393 q 659 1368 615 1393 q 728 1301 703 1343 q 754 1207 754 1260 q 728 1113 754 1156 q 659 1046 703 1071 q 560 1021 615 1021 m 560 1132 q 613 1153 592 1132 q 635 1207 635 1174 q 613 1261 635 1240 q 560 1282 592 1282 q 507 1261 529 1282 q 485 1207 485 1240 q 507 1153 485 1174 q 560 1132 529 1132 z "},"Ǻ":{"ha":1119,"x_min":-26,"x_max":1146,"o":"m -26 0 l 399 972 l 721 972 l 1146 0 l 807 0 l 742 169 l 372 169 l 307 0 l -26 0 m 463 406 l 651 406 l 557 650 l 463 406 m 560 1019 q 461 1044 506 1019 q 391 1112 417 1069 q 365 1206 365 1154 q 391 1300 365 1258 q 461 1367 417 1342 q 560 1392 506 1392 q 625 1382 593 1392 l 753 1517 l 904 1404 l 732 1293 q 754 1206 754 1253 q 728 1112 754 1154 q 659 1044 703 1069 q 560 1019 615 1019 m 560 1131 q 613 1151 592 1131 q 635 1206 635 1172 q 613 1260 635 1239 q 560 1281 592 1281 q 507 1260 529 1281 q 485 1206 485 1239 q 507 1151 485 1172 q 560 1131 529 1131 z "},"Ḁ":{"ha":1119,"x_min":-26,"x_max":1146,"o":"m -26 0 l 399 972 l 721 972 l 1146 0 l 807 0 l 742 169 l 372 169 l 307 0 l -26 0 m 463 406 l 651 406 l 557 650 l 463 406 m 560 -407 q 461 -382 506 -407 q 391 -315 417 -357 q 365 -221 365 -272 q 391 -126 365 -168 q 461 -60 417 -85 q 560 -35 506 -35 q 659 -60 615 -35 q 728 -126 703 -85 q 754 -221 754 -168 q 728 -315 754 -272 q 659 -382 703 -357 q 560 -407 615 -407 m 560 -296 q 613 -275 592 -296 q 635 -221 635 -254 q 613 -167 635 -187 q 560 -146 592 -146 q 507 -167 529 -146 q 485 -221 485 -187 q 507 -275 485 -254 q 560 -296 529 -296 z "},"Ⱥ":{"ha":1078,"x_min":-26,"x_max":1104,"o":"m -26 0 l 403 972 l 675 972 l 768 761 l 892 1069 l 1044 1069 l 849 579 l 1104 0 l 818 0 l 742 190 l 693 190 l 578 -97 l 425 -97 l 540 190 l 332 190 l 256 0 l -26 0 m 619 390 l 640 442 l 538 701 l 413 390 l 619 390 z "},"Ã":{"ha":1119,"x_min":-26,"x_max":1146,"o":"m -26 0 l 399 972 l 721 972 l 1146 0 l 807 0 l 742 169 l 372 169 l 307 0 l -26 0 m 463 406 l 651 406 l 557 650 l 463 406 m 672 1038 q 584 1058 621 1038 q 519 1099 547 1079 q 467 1119 492 1119 q 424 1101 440 1119 q 404 1051 407 1083 l 256 1051 q 308 1226 258 1161 q 447 1292 358 1292 q 535 1272 499 1292 q 600 1231 572 1251 q 653 1210 628 1210 q 697 1227 681 1210 q 715 1274 714 1244 l 864 1274 q 812 1103 863 1168 q 672 1038 761 1038 z "},"Ɐ":{"ha":1119,"x_min":-26,"x_max":1146,"o":"m 1146 972 l 721 0 l 399 0 l -26 972 l 313 972 l 378 803 l 747 803 l 813 972 l 1146 972 m 657 567 l 468 567 l 563 322 l 657 567 z "},"Æ":{"ha":1554,"x_min":-26,"x_max":1507,"o":"m -26 0 l 486 972 l 1489 972 l 1489 725 l 1021 725 l 1021 611 l 1432 611 l 1432 375 l 1021 375 l 1021 247 l 1507 247 l 1507 0 l 699 0 l 699 169 l 392 169 l 307 0 l -26 0 m 508 406 l 699 406 l 699 725 l 667 725 l 508 406 z "},"Ǽ":{"ha":1554,"x_min":-26,"x_max":1507,"o":"m -26 0 l 486 972 l 1489 972 l 1489 725 l 1021 725 l 1021 611 l 1432 611 l 1432 375 l 1021 375 l 1021 247 l 1507 247 l 1507 0 l 699 0 l 699 169 l 392 169 l 307 0 l -26 0 m 508 406 l 699 406 l 699 725 l 667 725 l 508 406 m 811 1051 l 994 1274 l 1293 1274 l 1019 1051 l 811 1051 z "},"Ǣ":{"ha":1554,"x_min":-26,"x_max":1507,"o":"m -26 0 l 486 972 l 1489 972 l 1489 725 l 1021 725 l 1021 611 l 1432 611 l 1432 375 l 1021 375 l 1021 247 l 1507 247 l 1507 0 l 699 0 l 699 169 l 392 169 l 307 0 l -26 0 m 508 406 l 699 406 l 699 725 l 667 725 l 508 406 m 665 1081 l 665 1244 l 1249 1244 l 1249 1081 l 665 1081 z "},"B":{"ha":1074,"x_min":79,"x_max":1038,"o":"m 79 0 l 79 972 l 599 972 q 896 901 800 972 q 992 718 992 829 q 958 597 992 651 q 857 508 924 542 q 990 415 943 476 q 1038 268 1038 354 q 933 71 1038 142 q 626 0 828 0 l 79 0 m 401 229 l 599 229 q 707 306 707 229 q 599 382 707 382 l 401 382 l 401 229 m 401 599 l 554 599 q 661 671 661 599 q 554 743 661 743 l 401 743 l 401 599 z "},"Ḃ":{"ha":1074,"x_min":79,"x_max":1038,"o":"m 79 0 l 79 972 l 599 972 q 896 901 800 972 q 992 718 992 829 q 958 597 992 651 q 857 508 924 542 q 990 415 943 476 q 1038 268 1038 354 q 933 71 1038 142 q 626 0 828 0 l 79 0 m 401 229 l 599 229 q 707 306 707 229 q 599 382 707 382 l 401 382 l 401 229 m 401 599 l 554 599 q 661 671 661 599 q 554 743 661 743 l 401 743 l 401 599 m 531 1038 q 417 1082 461 1038 q 372 1196 372 1126 q 417 1310 372 1265 q 531 1354 461 1354 q 644 1310 600 1354 q 689 1196 689 1265 q 644 1082 689 1126 q 531 1038 600 1038 z "},"Ḅ":{"ha":1074,"x_min":79,"x_max":1038,"o":"m 79 0 l 79 972 l 599 972 q 896 901 800 972 q 992 718 992 829 q 958 597 992 651 q 857 508 924 542 q 990 415 943 476 q 1038 268 1038 354 q 933 71 1038 142 q 626 0 828 0 l 79 0 m 401 229 l 599 229 q 707 306 707 229 q 599 382 707 382 l 401 382 l 401 229 m 401 599 l 554 599 q 661 671 661 599 q 554 743 661 743 l 401 743 l 401 599 m 531 -365 q 417 -321 461 -365 q 372 -207 372 -276 q 417 -93 372 -137 q 531 -49 461 -49 q 644 -93 600 -49 q 689 -207 689 -137 q 644 -321 689 -276 q 531 -365 600 -365 z "},"Ꞵ":{"ha":1074,"x_min":79,"x_max":1038,"o":"m 79 -269 l 79 972 l 599 972 q 896 901 800 972 q 992 718 992 829 q 958 597 992 651 q 857 508 924 542 q 990 415 943 476 q 1038 268 1038 354 q 933 71 1038 142 q 626 0 828 0 l 401 0 l 401 -269 l 79 -269 m 401 229 l 599 229 q 707 306 707 229 q 599 382 707 382 l 401 382 l 401 229 m 401 599 l 554 599 q 661 671 661 599 q 554 743 661 743 l 401 743 l 401 599 z "},"Ɓ":{"ha":1410,"x_min":8,"x_max":1374,"o":"m 82 440 q 24 577 40 504 q 20 720 8 650 q 74 847 32 790 q 192 938 117 904 q 379 972 268 972 l 935 972 q 1232 901 1136 972 q 1328 718 1328 829 q 1294 597 1328 651 q 1193 508 1260 542 q 1326 415 1279 476 q 1374 268 1374 354 q 1269 71 1374 142 q 963 0 1164 0 l 415 0 l 415 718 l 374 718 q 300 667 311 718 q 329 546 289 615 l 82 440 m 738 229 l 935 229 q 1043 306 1043 229 q 935 382 1043 382 l 738 382 l 738 229 m 738 599 l 890 599 q 997 671 997 599 q 890 743 997 743 l 738 743 l 738 599 z "},"Ḇ":{"ha":1074,"x_min":79,"x_max":1038,"o":"m 79 0 l 79 972 l 599 972 q 896 901 800 972 q 992 718 992 829 q 958 597 992 651 q 857 508 924 542 q 990 415 943 476 q 1038 268 1038 354 q 933 71 1038 142 q 626 0 828 0 l 79 0 m 401 229 l 599 229 q 707 306 707 229 q 599 382 707 382 l 401 382 l 401 229 m 401 599 l 554 599 q 661 671 661 599 q 554 743 661 743 l 401 743 l 401 599 m 239 -268 l 239 -104 l 822 -104 l 822 -268 l 239 -268 z "},"Ƀ":{"ha":1099,"x_min":7,"x_max":1063,"o":"m 104 0 l 104 232 l 7 232 l 7 399 l 104 399 l 104 972 l 624 972 q 921 901 825 972 q 1017 718 1017 829 q 982 596 1017 650 q 882 510 947 542 q 1015 416 967 478 q 1063 268 1063 354 q 958 71 1063 142 q 651 0 853 0 l 104 0 m 426 222 l 624 222 q 705 248 678 222 q 732 314 732 274 q 705 383 732 358 q 624 408 678 408 l 426 408 l 426 378 l 558 378 l 558 253 l 426 253 l 426 222 m 426 599 l 579 599 q 686 671 686 599 q 579 743 686 743 l 426 743 l 426 599 z "},"Ƃ":{"ha":1074,"x_min":79,"x_max":1038,"o":"m 79 0 l 79 972 l 947 972 l 947 743 l 401 743 l 401 599 l 668 599 q 938 526 838 599 q 1038 301 1038 453 q 933 76 1038 153 q 626 0 829 0 l 79 0 m 401 382 l 401 229 l 599 229 q 707 306 707 229 q 599 382 707 382 l 401 382 z "},"C":{"ha":1024,"x_min":40,"x_max":1018,"o":"m 582 -22 q 366 15 465 -22 q 194 119 267 51 q 81 281 121 188 q 40 486 40 374 q 81 692 40 599 q 194 853 121 785 q 366 958 267 921 q 582 994 465 994 q 835 944 725 994 q 1018 800 946 894 l 811 615 q 716 699 768 669 q 599 729 664 729 q 434 663 497 729 q 371 486 371 597 q 434 309 371 375 q 599 243 497 243 q 716 273 664 243 q 811 357 768 303 l 1018 172 q 835 28 946 79 q 582 -22 725 -22 z "},"Ć":{"ha":1024,"x_min":40,"x_max":1018,"o":"m 582 -22 q 366 15 465 -22 q 194 119 267 51 q 81 281 121 188 q 40 486 40 374 q 81 692 40 599 q 194 853 121 785 q 366 958 267 921 q 582 994 465 994 q 835 944 725 994 q 1018 800 946 894 l 811 615 q 716 699 768 669 q 599 729 664 729 q 434 663 497 729 q 371 486 371 597 q 434 309 371 375 q 599 243 497 243 q 716 273 664 243 q 811 357 768 303 l 1018 172 q 835 28 946 79 q 582 -22 725 -22 m 431 1051 l 614 1274 l 913 1274 l 639 1051 l 431 1051 z "},"Ꞓ":{"ha":1096,"x_min":14,"x_max":1090,"o":"m 654 -22 q 400 31 514 -22 q 213 178 286 83 q 119 399 139 274 l 14 399 l 14 588 l 122 588 q 218 801 144 710 q 404 944 292 893 q 654 994 517 994 q 908 944 797 994 q 1090 800 1018 894 l 883 615 q 788 699 840 669 q 671 729 736 729 q 539 692 594 729 q 460 588 483 654 l 617 588 l 617 399 l 456 399 q 533 285 476 326 q 671 243 590 243 q 788 273 736 243 q 883 357 840 303 l 1090 172 q 908 28 1018 79 q 654 -22 797 -22 z "},"Č":{"ha":1024,"x_min":40,"x_max":1018,"o":"m 582 -22 q 366 15 465 -22 q 194 119 267 51 q 81 281 121 188 q 40 486 40 374 q 81 692 40 599 q 194 853 121 785 q 366 958 267 921 q 582 994 465 994 q 835 944 725 994 q 1018 800 946 894 l 811 615 q 716 699 768 669 q 599 729 664 729 q 434 663 497 729 q 371 486 371 597 q 434 309 371 375 q 599 243 497 243 q 716 273 664 243 q 811 357 768 303 l 1018 172 q 835 28 946 79 q 582 -22 725 -22 m 443 1051 l 265 1274 l 460 1274 l 576 1167 l 693 1274 l 888 1274 l 710 1051 l 443 1051 z "},"Ç":{"ha":1024,"x_min":40,"x_max":1018,"o":"m 582 -22 q 366 15 465 -22 q 194 119 267 51 q 81 281 121 188 q 40 486 40 374 q 81 692 40 599 q 194 853 121 785 q 366 958 267 921 q 582 994 465 994 q 835 944 725 994 q 1018 800 946 894 l 811 615 q 716 699 768 669 q 599 729 664 729 q 434 663 497 729 q 371 486 371 597 q 434 309 371 375 q 599 243 497 243 q 716 273 664 243 q 811 357 768 303 l 1018 172 q 835 28 946 79 q 582 -22 725 -22 m 519 -333 q 446 -325 485 -333 q 383 -304 407 -317 l 422 -189 q 459 -200 438 -194 q 506 -206 481 -206 q 557 -196 542 -206 q 572 -172 572 -186 q 515 -144 572 -144 l 458 -144 l 496 14 l 657 14 l 638 -72 q 729 -114 703 -81 q 756 -183 756 -147 q 691 -293 756 -253 q 519 -333 626 -333 z "},"Ḉ":{"ha":1024,"x_min":40,"x_max":1018,"o":"m 582 -22 q 366 15 465 -22 q 194 119 267 51 q 81 281 121 188 q 40 486 40 374 q 81 692 40 599 q 194 853 121 785 q 366 958 267 921 q 582 994 465 994 q 835 944 725 994 q 1018 800 946 894 l 811 615 q 716 699 768 669 q 599 729 664 729 q 434 663 497 729 q 371 486 371 597 q 434 309 371 375 q 599 243 497 243 q 716 273 664 243 q 811 357 768 303 l 1018 172 q 835 28 946 79 q 582 -22 725 -22 m 519 -333 q 446 -325 485 -333 q 383 -304 407 -317 l 422 -189 q 459 -200 438 -194 q 506 -206 481 -206 q 557 -196 542 -206 q 572 -172 572 -186 q 515 -144 572 -144 l 458 -144 l 496 14 l 657 14 l 638 -72 q 729 -114 703 -81 q 756 -183 756 -147 q 691 -293 756 -253 q 519 -333 626 -333 m 431 1051 l 614 1274 l 913 1274 l 639 1051 l 431 1051 z "},"Ĉ":{"ha":1024,"x_min":40,"x_max":1018,"o":"m 582 -22 q 366 15 465 -22 q 194 119 267 51 q 81 281 121 188 q 40 486 40 374 q 81 692 40 599 q 194 853 121 785 q 366 958 267 921 q 582 994 465 994 q 835 944 725 994 q 1018 800 946 894 l 811 615 q 716 699 768 669 q 599 729 664 729 q 434 663 497 729 q 371 486 371 597 q 434 309 371 375 q 599 243 497 243 q 716 273 664 243 q 811 357 768 303 l 1018 172 q 835 28 946 79 q 582 -22 725 -22 m 265 1051 l 443 1274 l 710 1274 l 888 1051 l 693 1051 l 576 1158 l 460 1051 l 265 1051 z "},"Ċ":{"ha":1024,"x_min":40,"x_max":1018,"o":"m 582 -22 q 366 15 465 -22 q 194 119 267 51 q 81 281 121 188 q 40 486 40 374 q 81 692 40 599 q 194 853 121 785 q 366 958 267 921 q 582 994 465 994 q 835 944 725 994 q 1018 800 946 894 l 811 615 q 716 699 768 669 q 599 729 664 729 q 434 663 497 729 q 371 486 371 597 q 434 309 371 375 q 599 243 497 243 q 716 273 664 243 q 811 357 768 303 l 1018 172 q 835 28 946 79 q 582 -22 725 -22 m 576 1038 q 463 1082 507 1038 q 418 1196 418 1126 q 463 1310 418 1265 q 576 1354 507 1354 q 690 1310 646 1354 q 735 1196 735 1265 q 690 1082 735 1126 q 576 1038 646 1038 z "},"Ꭓ":{"ha":976,"x_min":-139,"x_max":1115,"o":"m 1115 -164 q 970 -265 1049 -232 q 815 -292 892 -297 q 673 -242 738 -287 q 568 -107 608 -196 l 476 97 l 314 -269 l -60 -269 l 303 375 l 143 658 q 17 668 92 747 l -139 868 q 10 967 -68 935 q 163 994 88 1000 q 304 938 238 988 q 418 789 371 888 l 511 599 l 667 972 l 1033 972 l 675 328 l 833 46 q 891 -3 858 3 q 960 36 924 -8 l 1115 -164 z "},"Ƈ":{"ha":1086,"x_min":39,"x_max":1176,"o":"m 1017 800 l 810 615 q 715 699 767 669 q 597 729 663 729 q 433 663 496 729 q 369 486 369 597 q 433 309 369 375 q 597 243 496 243 q 715 273 663 243 q 810 357 767 303 l 1017 172 q 834 28 944 79 q 581 -22 724 -22 q 365 15 464 -22 q 192 119 265 51 q 79 281 119 188 q 39 486 39 374 q 79 692 39 599 q 192 853 119 785 q 365 958 265 921 q 581 994 464 994 q 753 972 672 994 q 794 1124 754 1065 q 896 1208 833 1182 q 1032 1233 958 1235 q 1176 1201 1106 1231 l 1117 997 q 1049 999 1082 1011 q 1017 942 1017 986 l 1017 800 z "},"Ȼ":{"ha":1024,"x_min":40,"x_max":1018,"o":"m 236 -97 l 303 43 q 111 222 182 107 q 40 486 40 338 q 81 692 40 599 q 194 853 121 785 q 366 958 267 921 q 582 994 465 994 q 742 976 667 994 l 786 1069 l 944 1069 l 876 924 q 1018 800 960 876 l 811 615 q 757 672 785 649 l 557 246 q 599 243 576 243 q 716 273 664 243 q 811 357 768 303 l 1018 172 q 835 28 946 79 q 582 -22 725 -22 q 438 -6 507 -22 l 394 -97 l 236 -97 m 429 314 l 625 728 q 599 729 613 729 q 434 663 497 729 q 371 486 371 597 q 429 314 371 379 z "},"D":{"ha":1147,"x_min":79,"x_max":1107,"o":"m 79 0 l 79 972 l 558 972 q 844 913 721 972 q 1038 746 968 854 q 1107 486 1107 638 q 1038 227 1107 336 q 844 59 968 118 q 558 0 721 0 l 79 0 m 407 256 l 544 256 q 712 315 647 256 q 776 486 776 375 q 712 657 776 597 q 544 717 647 717 l 407 717 l 407 256 z "},"Ǳ":{"ha":2094,"x_min":79,"x_max":2078,"o":"m 79 0 l 79 972 l 558 972 q 844 913 721 972 q 1038 746 968 854 q 1107 486 1107 638 q 1038 227 1107 336 q 844 59 968 118 q 558 0 721 0 l 79 0 m 407 256 l 544 256 q 712 315 647 256 q 776 486 776 375 q 712 657 776 597 q 544 717 647 717 l 407 717 l 407 256 m 1185 0 l 1185 201 l 1629 718 l 1199 718 l 1199 972 l 2056 972 l 2056 771 l 1611 254 l 2078 254 l 2078 0 l 1185 0 z "},"Ǆ":{"ha":2094,"x_min":79,"x_max":2078,"o":"m 79 0 l 79 972 l 558 972 q 844 913 721 972 q 1038 746 968 854 q 1107 486 1107 638 q 1038 227 1107 336 q 844 59 968 118 q 558 0 721 0 l 79 0 m 407 256 l 544 256 q 712 315 647 256 q 776 486 776 375 q 712 657 776 597 q 544 717 647 717 l 407 717 l 407 256 m 1185 0 l 1185 201 l 1629 718 l 1199 718 l 1199 972 l 2056 972 l 2056 771 l 1611 254 l 2078 254 l 2078 0 l 1185 0 m 1499 1051 l 1321 1274 l 1515 1274 l 1632 1167 l 1749 1274 l 1943 1274 l 1765 1051 l 1499 1051 z "},"Ď":{"ha":1147,"x_min":79,"x_max":1107,"o":"m 79 0 l 79 972 l 558 972 q 844 913 721 972 q 1038 746 968 854 q 1107 486 1107 638 q 1038 227 1107 336 q 844 59 968 118 q 558 0 721 0 l 79 0 m 407 256 l 544 256 q 712 315 647 256 q 776 486 776 375 q 712 657 776 597 q 544 717 647 717 l 407 717 l 407 256 m 365 1051 l 188 1274 l 382 1274 l 499 1167 l 615 1274 l 810 1274 l 632 1051 l 365 1051 z "},"Ḑ":{"ha":1147,"x_min":79,"x_max":1107,"o":"m 79 0 l 79 972 l 558 972 q 844 913 721 972 q 1038 746 968 854 q 1107 486 1107 638 q 1038 227 1107 336 q 844 59 968 118 q 558 0 721 0 l 79 0 m 407 256 l 544 256 q 712 315 647 256 q 776 486 776 375 q 712 657 776 597 q 544 717 647 717 l 407 717 l 407 256 m 400 -375 l 436 -265 q 376 -174 376 -242 q 410 -98 376 -126 q 501 -69 443 -69 q 593 -98 560 -69 q 626 -174 626 -126 q 620 -220 626 -193 q 592 -285 614 -247 l 538 -375 l 400 -375 z "},"Ḓ":{"ha":1147,"x_min":79,"x_max":1107,"o":"m 79 0 l 79 972 l 558 972 q 844 913 721 972 q 1038 746 968 854 q 1107 486 1107 638 q 1038 227 1107 336 q 844 59 968 118 q 558 0 721 0 l 79 0 m 407 256 l 544 256 q 712 315 647 256 q 776 486 776 375 q 712 657 776 597 q 544 717 647 717 l 407 717 l 407 256 m 190 -299 l 368 -76 l 635 -76 l 813 -299 l 618 -299 l 501 -192 l 385 -299 l 190 -299 z "},"Đ":{"ha":1175,"x_min":-12,"x_max":1135,"o":"m 107 0 l 107 972 l 586 972 q 872 913 749 972 q 1065 746 996 854 q 1135 486 1135 638 q 1065 227 1135 336 q 872 59 996 118 q 586 0 749 0 l 107 0 m 435 256 l 572 256 q 740 315 675 256 q 804 486 804 375 q 740 657 804 597 q 572 717 675 717 l 435 717 l 435 256 m -12 399 l -12 588 l 640 588 l 640 399 l -12 399 z "},"Ḋ":{"ha":1147,"x_min":79,"x_max":1107,"o":"m 79 0 l 79 972 l 558 972 q 844 913 721 972 q 1038 746 968 854 q 1107 486 1107 638 q 1038 227 1107 336 q 844 59 968 118 q 558 0 721 0 l 79 0 m 407 256 l 544 256 q 712 315 647 256 q 776 486 776 375 q 712 657 776 597 q 544 717 647 717 l 407 717 l 407 256 m 499 1038 q 385 1082 429 1038 q 340 1196 340 1126 q 385 1310 340 1265 q 499 1354 429 1354 q 613 1310 568 1354 q 657 1196 657 1265 q 613 1082 657 1126 q 499 1038 568 1038 z "},"Ḍ":{"ha":1147,"x_min":79,"x_max":1107,"o":"m 79 0 l 79 972 l 558 972 q 844 913 721 972 q 1038 746 968 854 q 1107 486 1107 638 q 1038 227 1107 336 q 844 59 968 118 q 558 0 721 0 l 79 0 m 407 256 l 544 256 q 712 315 647 256 q 776 486 776 375 q 712 657 776 597 q 544 717 647 717 l 407 717 l 407 256 m 501 -365 q 388 -321 432 -365 q 343 -207 343 -276 q 388 -93 343 -137 q 501 -49 432 -49 q 615 -93 571 -49 q 660 -207 660 -137 q 615 -321 660 -276 q 501 -365 571 -365 z "},"Ɗ":{"ha":1483,"x_min":8,"x_max":1443,"o":"m 82 440 q 24 577 40 504 q 20 720 8 650 q 74 847 32 790 q 192 938 117 904 q 379 972 268 972 l 894 972 q 1181 913 1057 972 q 1374 746 1304 854 q 1443 486 1443 638 q 1374 227 1443 336 q 1181 59 1304 118 q 894 0 1057 0 l 415 0 l 415 718 l 374 718 q 300 667 311 718 q 329 546 289 615 l 82 440 m 743 256 l 881 256 q 1048 315 983 256 q 1113 486 1113 375 q 1048 657 1113 597 q 881 717 983 717 l 743 717 l 743 256 z "},"Ḏ":{"ha":1147,"x_min":79,"x_max":1107,"o":"m 79 0 l 79 972 l 558 972 q 844 913 721 972 q 1038 746 968 854 q 1107 486 1107 638 q 1038 227 1107 336 q 844 59 968 118 q 558 0 721 0 l 79 0 m 407 256 l 544 256 q 712 315 647 256 q 776 486 776 375 q 712 657 776 597 q 544 717 647 717 l 407 717 l 407 256 m 210 -268 l 210 -104 l 793 -104 l 793 -268 l 210 -268 z "},"Ɖ":{"ha":1147,"x_min":-40,"x_max":1107,"o":"m 79 0 l 79 972 l 558 972 q 844 913 721 972 q 1038 746 968 854 q 1107 486 1107 638 q 1038 227 1107 336 q 844 59 968 118 q 558 0 721 0 l 79 0 m 407 256 l 544 256 q 712 315 647 256 q 776 486 776 375 q 712 657 776 597 q 544 717 647 717 l 407 717 l 407 256 m -40 399 l -40 588 l 613 588 l 613 399 l -40 399 z "},"Ƌ":{"ha":1060,"x_min":22,"x_max":981,"o":"m 429 0 q 129 78 236 0 q 22 303 22 156 q 116 523 22 442 q 388 604 210 604 l 658 604 l 658 743 l 136 743 l 136 972 l 981 972 l 981 0 l 429 0 m 457 229 l 658 229 l 658 389 l 457 389 q 380 367 406 389 q 354 310 354 344 q 380 252 354 275 q 457 229 406 229 z "},"ǲ":{"ha":1939,"x_min":79,"x_max":1914,"o":"m 79 0 l 79 972 l 558 972 q 844 913 721 972 q 1038 746 968 854 q 1107 486 1107 638 q 1038 227 1107 336 q 844 59 968 118 q 558 0 721 0 l 79 0 m 407 256 l 544 256 q 712 315 647 256 q 776 486 776 375 q 712 657 776 597 q 544 717 647 717 l 407 717 l 407 256 m 1189 0 l 1189 181 l 1503 531 l 1200 531 l 1200 760 l 1899 760 l 1899 579 l 1585 229 l 1914 229 l 1914 0 l 1189 0 z "},"ǅ":{"ha":1939,"x_min":79,"x_max":1914,"o":"m 79 0 l 79 972 l 558 972 q 844 913 721 972 q 1038 746 968 854 q 1107 486 1107 638 q 1038 227 1107 336 q 844 59 968 118 q 558 0 721 0 l 79 0 m 407 256 l 544 256 q 712 315 647 256 q 776 486 776 375 q 712 657 776 597 q 544 717 647 717 l 407 717 l 407 256 m 1189 0 l 1189 181 l 1503 531 l 1200 531 l 1200 760 l 1899 760 l 1899 579 l 1585 229 l 1914 229 l 1914 0 l 1189 0 m 1417 843 l 1239 1065 l 1433 1065 l 1550 958 l 1667 1065 l 1861 1065 l 1683 843 l 1417 843 z "},"Ð":{"ha":1175,"x_min":-12,"x_max":1135,"o":"m 107 0 l 107 972 l 586 972 q 872 913 749 972 q 1065 746 996 854 q 1135 486 1135 638 q 1065 227 1135 336 q 872 59 996 118 q 586 0 749 0 l 107 0 m 435 256 l 572 256 q 740 315 675 256 q 804 486 804 375 q 740 657 804 597 q 572 717 675 717 l 435 717 l 435 256 m -12 399 l -12 588 l 640 588 l 640 399 l -12 399 z "},"E":{"ha":935,"x_min":79,"x_max":888,"o":"m 79 0 l 79 972 l 869 972 l 869 725 l 401 725 l 401 611 l 813 611 l 813 375 l 401 375 l 401 247 l 888 247 l 888 0 l 79 0 z "},"É":{"ha":935,"x_min":79,"x_max":888,"o":"m 79 0 l 79 972 l 869 972 l 869 725 l 401 725 l 401 611 l 813 611 l 813 375 l 401 375 l 401 247 l 888 247 l 888 0 l 79 0 m 329 1051 l 513 1274 l 811 1274 l 538 1051 l 329 1051 z "},"Ĕ":{"ha":935,"x_min":79,"x_max":888,"o":"m 79 0 l 79 972 l 869 972 l 869 725 l 401 725 l 401 611 l 813 611 l 813 375 l 401 375 l 401 247 l 888 247 l 888 0 l 79 0 m 475 1051 q 270 1115 350 1051 q 185 1288 190 1178 l 372 1288 q 403 1226 375 1249 q 475 1203 432 1203 q 547 1226 518 1203 q 578 1288 575 1249 l 765 1288 q 680 1115 760 1178 q 475 1051 600 1051 z "},"Ě":{"ha":935,"x_min":79,"x_max":888,"o":"m 79 0 l 79 972 l 869 972 l 869 725 l 401 725 l 401 611 l 813 611 l 813 375 l 401 375 l 401 247 l 888 247 l 888 0 l 79 0 m 342 1051 l 164 1274 l 358 1274 l 475 1167 l 592 1274 l 786 1274 l 608 1051 l 342 1051 z "},"Ȩ":{"ha":935,"x_min":79,"x_max":888,"o":"m 79 0 l 79 972 l 869 972 l 869 725 l 401 725 l 401 611 l 813 611 l 813 375 l 401 375 l 401 247 l 888 247 l 888 0 l 79 0 m 418 -333 q 344 -325 383 -333 q 282 -304 306 -317 l 321 -189 q 358 -200 336 -194 q 404 -206 379 -206 q 456 -196 440 -206 q 471 -172 471 -186 q 414 -144 471 -144 l 357 -144 l 394 14 l 556 14 l 536 -72 q 628 -114 601 -81 q 654 -183 654 -147 q 590 -293 654 -253 q 418 -333 525 -333 z "},"Ḝ":{"ha":935,"x_min":79,"x_max":888,"o":"m 79 0 l 79 972 l 869 972 l 869 725 l 401 725 l 401 611 l 813 611 l 813 375 l 401 375 l 401 247 l 888 247 l 888 0 l 79 0 m 418 -333 q 344 -325 383 -333 q 282 -304 306 -317 l 321 -189 q 358 -200 336 -194 q 404 -206 379 -206 q 456 -196 440 -206 q 471 -172 471 -186 q 414 -144 471 -144 l 357 -144 l 394 14 l 556 14 l 536 -72 q 628 -114 601 -81 q 654 -183 654 -147 q 590 -293 654 -253 q 418 -333 525 -333 m 475 1051 q 270 1115 350 1051 q 185 1288 190 1178 l 372 1288 q 403 1226 375 1249 q 475 1203 432 1203 q 547 1226 518 1203 q 578 1288 575 1249 l 765 1288 q 680 1115 760 1178 q 475 1051 600 1051 z "},"Ê":{"ha":935,"x_min":79,"x_max":888,"o":"m 79 0 l 79 972 l 869 972 l 869 725 l 401 725 l 401 611 l 813 611 l 813 375 l 401 375 l 401 247 l 888 247 l 888 0 l 79 0 m 164 1051 l 342 1274 l 608 1274 l 786 1051 l 592 1051 l 475 1158 l 358 1051 l 164 1051 z "},"Ế":{"ha":935,"x_min":79,"x_max":1117,"o":"m 79 0 l 79 972 l 869 972 l 869 725 l 401 725 l 401 611 l 813 611 l 813 375 l 401 375 l 401 247 l 888 247 l 888 0 l 79 0 m 164 1051 l 343 1232 l 607 1232 l 786 1051 l 592 1051 l 475 1136 l 358 1051 l 164 1051 m 676 1197 l 818 1378 l 1117 1378 l 885 1197 l 676 1197 z "},"Ḙ":{"ha":935,"x_min":79,"x_max":888,"o":"m 79 0 l 79 972 l 869 972 l 869 725 l 401 725 l 401 611 l 813 611 l 813 375 l 401 375 l 401 247 l 888 247 l 888 0 l 79 0 m 164 -299 l 342 -76 l 608 -76 l 786 -299 l 592 -299 l 475 -192 l 358 -299 l 164 -299 z "},"Ệ":{"ha":935,"x_min":79,"x_max":888,"o":"m 79 0 l 79 972 l 869 972 l 869 725 l 401 725 l 401 611 l 813 611 l 813 375 l 401 375 l 401 247 l 888 247 l 888 0 l 79 0 m 475 -365 q 361 -321 406 -365 q 317 -207 317 -276 q 361 -93 317 -137 q 475 -49 406 -49 q 589 -93 544 -49 q 633 -207 633 -137 q 589 -321 633 -276 q 475 -365 544 -365 m 164 1051 l 342 1274 l 608 1274 l 786 1051 l 592 1051 l 475 1158 l 358 1051 l 164 1051 z "},"Ề":{"ha":935,"x_min":79,"x_max":968,"o":"m 79 0 l 79 972 l 869 972 l 869 725 l 401 725 l 401 611 l 813 611 l 813 375 l 401 375 l 401 247 l 888 247 l 888 0 l 79 0 m 164 1051 l 343 1232 l 607 1232 l 786 1051 l 592 1051 l 475 1136 l 358 1051 l 164 1051 m 760 1197 l 528 1378 l 826 1378 l 968 1197 l 760 1197 z "},"Ể":{"ha":935,"x_min":79,"x_max":888,"o":"m 79 0 l 79 972 l 869 972 l 869 725 l 401 725 l 401 611 l 813 611 l 813 375 l 401 375 l 401 247 l 888 247 l 888 0 l 79 0 m 164 1051 l 343 1232 l 607 1232 l 786 1051 l 592 1051 l 475 1136 l 358 1051 l 164 1051 m 774 1169 l 701 1232 q 739 1260 729 1247 q 749 1283 749 1274 q 738 1308 749 1299 q 708 1318 726 1318 q 644 1301 678 1318 l 597 1386 q 660 1413 625 1404 q 735 1421 696 1421 q 842 1388 801 1421 q 883 1299 883 1356 q 851 1219 883 1253 q 774 1169 818 1186 z "},"Ễ":{"ha":935,"x_min":79,"x_max":888,"o":"m 79 0 l 79 972 l 869 972 l 869 725 l 401 725 l 401 611 l 813 611 l 813 375 l 401 375 l 401 247 l 888 247 l 888 0 l 79 0 m 164 1051 l 343 1232 l 607 1232 l 786 1051 l 592 1051 l 475 1136 l 358 1051 l 164 1051 m 588 1292 q 515 1303 544 1292 q 466 1328 486 1314 q 428 1353 446 1342 q 389 1364 410 1364 q 349 1347 365 1364 q 331 1304 333 1331 l 178 1304 q 228 1451 178 1399 q 364 1504 279 1504 q 454 1486 419 1504 q 514 1450 489 1468 q 565 1432 539 1432 q 606 1450 590 1432 q 624 1492 622 1468 l 772 1492 q 723 1344 772 1396 q 588 1292 674 1292 z "},"Ȅ":{"ha":935,"x_min":74,"x_max":888,"o":"m 79 0 l 79 972 l 869 972 l 869 725 l 401 725 l 401 611 l 813 611 l 813 375 l 401 375 l 401 247 l 888 247 l 888 0 l 79 0 m 208 1051 l 74 1274 l 344 1274 l 417 1051 l 208 1051 m 533 1051 l 399 1274 l 669 1274 l 742 1051 l 533 1051 z "},"Ë":{"ha":935,"x_min":79,"x_max":888,"o":"m 79 0 l 79 972 l 869 972 l 869 725 l 401 725 l 401 611 l 813 611 l 813 375 l 401 375 l 401 247 l 888 247 l 888 0 l 79 0 m 321 1040 q 232 1074 268 1040 q 196 1163 196 1107 q 232 1252 196 1218 q 321 1286 268 1286 q 410 1252 374 1286 q 446 1163 446 1218 q 410 1074 446 1107 q 321 1040 374 1040 m 629 1040 q 540 1074 576 1040 q 504 1163 504 1107 q 540 1252 504 1218 q 629 1286 576 1286 q 718 1252 682 1286 q 754 1163 754 1218 q 718 1074 754 1107 q 629 1040 682 1040 z "},"Ė":{"ha":935,"x_min":79,"x_max":888,"o":"m 79 0 l 79 972 l 869 972 l 869 725 l 401 725 l 401 611 l 813 611 l 813 375 l 401 375 l 401 247 l 888 247 l 888 0 l 79 0 m 475 1038 q 361 1082 406 1038 q 317 1196 317 1126 q 361 1310 317 1265 q 475 1354 406 1354 q 589 1310 544 1354 q 633 1196 633 1265 q 589 1082 633 1126 q 475 1038 544 1038 z "},"Ẹ":{"ha":935,"x_min":79,"x_max":888,"o":"m 79 0 l 79 972 l 869 972 l 869 725 l 401 725 l 401 611 l 813 611 l 813 375 l 401 375 l 401 247 l 888 247 l 888 0 l 79 0 m 475 -365 q 361 -321 406 -365 q 317 -207 317 -276 q 361 -93 317 -137 q 475 -49 406 -49 q 589 -93 544 -49 q 633 -207 633 -137 q 589 -321 633 -276 q 475 -365 544 -365 z "},"È":{"ha":935,"x_min":79,"x_max":888,"o":"m 79 0 l 79 972 l 869 972 l 869 725 l 401 725 l 401 611 l 813 611 l 813 375 l 401 375 l 401 247 l 888 247 l 888 0 l 79 0 m 413 1051 l 139 1274 l 438 1274 l 621 1051 l 413 1051 z "},"Ẻ":{"ha":935,"x_min":79,"x_max":888,"o":"m 79 0 l 79 972 l 869 972 l 869 725 l 401 725 l 401 611 l 813 611 l 813 375 l 401 375 l 401 247 l 888 247 l 888 0 l 79 0 m 479 1007 l 385 1097 q 437 1135 425 1117 q 449 1172 449 1154 q 433 1211 449 1197 q 390 1225 417 1225 q 311 1197 351 1225 l 247 1314 q 342 1360 296 1346 q 431 1375 389 1375 q 536 1350 490 1375 q 608 1284 582 1325 q 633 1196 633 1243 q 597 1094 633 1144 q 479 1007 561 1043 z "},"Ȇ":{"ha":935,"x_min":79,"x_max":888,"o":"m 79 0 l 79 972 l 869 972 l 869 725 l 401 725 l 401 611 l 813 611 l 813 375 l 401 375 l 401 247 l 888 247 l 888 0 l 79 0 m 185 1051 q 270 1224 190 1161 q 475 1288 350 1288 q 680 1224 600 1288 q 765 1051 760 1161 l 578 1051 q 547 1113 575 1090 q 475 1136 518 1136 q 403 1113 432 1136 q 372 1051 375 1090 l 185 1051 z "},"Ē":{"ha":935,"x_min":79,"x_max":888,"o":"m 79 0 l 79 972 l 869 972 l 869 725 l 401 725 l 401 611 l 813 611 l 813 375 l 401 375 l 401 247 l 888 247 l 888 0 l 79 0 m 183 1081 l 183 1244 l 767 1244 l 767 1081 l 183 1081 z "},"Ḗ":{"ha":935,"x_min":79,"x_max":888,"o":"m 79 0 l 79 972 l 869 972 l 869 725 l 401 725 l 401 611 l 813 611 l 813 375 l 401 375 l 401 247 l 888 247 l 888 0 l 79 0 m 183 1064 l 183 1219 l 767 1219 l 767 1064 l 183 1064 m 303 1313 l 444 1493 l 743 1493 l 511 1313 l 303 1313 z "},"Ḕ":{"ha":935,"x_min":79,"x_max":888,"o":"m 79 0 l 79 972 l 869 972 l 869 725 l 401 725 l 401 611 l 813 611 l 813 375 l 401 375 l 401 247 l 888 247 l 888 0 l 79 0 m 183 1064 l 183 1219 l 767 1219 l 767 1064 l 183 1064 m 440 1313 l 208 1493 l 507 1493 l 649 1313 l 440 1313 z "},"Ę":{"ha":935,"x_min":79,"x_max":922,"o":"m 79 0 l 79 972 l 869 972 l 869 725 l 401 725 l 401 611 l 813 611 l 813 375 l 401 375 l 401 247 l 888 247 l 888 0 l 79 0 m 765 -333 q 603 -287 661 -333 q 546 -162 546 -240 q 607 -26 546 -85 q 778 68 668 33 l 888 0 q 763 -71 797 -39 q 729 -135 729 -103 q 747 -175 729 -158 q 803 -192 764 -192 q 848 -185 826 -192 q 885 -172 869 -179 l 922 -301 q 853 -324 897 -315 q 765 -333 810 -333 z "},"Ɛ":{"ha":935,"x_min":28,"x_max":949,"o":"m 536 -22 q 261 15 375 -22 q 88 122 147 53 q 28 281 28 190 q 74 418 28 361 q 204 501 119 475 q 101 598 135 538 q 68 719 68 658 q 109 844 68 792 q 219 930 150 896 q 373 980 288 964 q 549 996 458 996 q 752 976 653 996 q 921 918 851 956 l 832 679 q 753 712 801 697 q 651 735 706 726 q 546 744 596 744 q 442 727 485 744 q 399 668 399 710 q 418 629 399 646 q 489 613 438 613 l 743 613 l 743 376 l 467 376 q 384 356 410 376 q 358 308 358 336 q 401 249 358 271 q 538 228 444 228 q 700 246 619 228 q 853 301 781 264 l 949 64 q 766 1 871 24 q 536 -22 661 -22 z "},"Ǝ":{"ha":935,"x_min":47,"x_max":856,"o":"m 856 0 l 47 0 l 47 247 l 533 247 l 533 375 l 122 375 l 122 611 l 533 611 l 533 725 l 65 725 l 65 972 l 856 972 l 856 0 z "},"Ɜ":{"ha":935,"x_min":-14,"x_max":907,"o":"m 399 -22 q 169 1 274 -22 q -14 64 64 24 l 82 301 q 235 246 156 264 q 397 228 315 228 q 534 249 492 228 q 576 308 576 271 q 551 356 576 336 q 468 376 525 376 l 192 376 l 192 613 l 446 613 q 517 629 497 613 q 536 668 536 646 q 493 727 536 710 q 389 744 450 744 q 284 735 339 744 q 181 712 229 726 q 103 679 133 697 l 14 918 q 183 976 83 956 q 386 996 282 996 q 562 980 476 996 q 716 930 647 964 q 826 844 785 896 q 867 719 867 792 q 833 598 867 658 q 731 501 800 538 q 861 418 815 475 q 907 281 907 361 q 847 122 907 190 q 674 15 788 53 q 399 -22 561 -22 z "},"Ʃ":{"ha":774,"x_min":-64,"x_max":833,"o":"m 196 -22 q 51 -1 119 -22 q -64 61 -17 19 l 29 278 q 88 246 61 256 q 139 236 115 236 q 197 253 169 236 q 222 317 224 269 l 217 643 q 261 843 215 765 q 389 958 307 921 q 574 994 471 994 q 719 974 651 994 q 833 911 786 953 l 740 694 q 682 726 710 717 q 631 736 654 736 q 573 719 600 736 q 547 656 546 703 l 553 329 q 509 129 556 207 q 381 15 463 51 q 196 -22 300 -22 z "},"Ɇ":{"ha":935,"x_min":79,"x_max":939,"o":"m 231 -97 l 276 0 l 79 0 l 79 972 l 735 972 l 781 1069 l 939 1069 l 869 922 l 869 725 l 776 725 l 722 611 l 813 611 l 813 375 l 611 375 l 551 247 l 888 247 l 888 0 l 435 0 l 389 -97 l 231 -97 m 564 611 l 618 725 l 401 725 l 401 611 l 564 611 m 401 265 l 453 375 l 401 375 l 401 265 z "},"Ẽ":{"ha":935,"x_min":79,"x_max":888,"o":"m 79 0 l 79 972 l 869 972 l 869 725 l 401 725 l 401 611 l 813 611 l 813 375 l 401 375 l 401 247 l 888 247 l 888 0 l 79 0 m 588 1038 q 499 1058 536 1038 q 435 1099 463 1079 q 382 1119 407 1119 q 339 1101 356 1119 q 319 1051 322 1083 l 171 1051 q 224 1226 174 1161 q 363 1292 274 1292 q 451 1272 414 1292 q 515 1231 488 1251 q 568 1210 543 1210 q 613 1227 596 1210 q 631 1274 629 1244 l 779 1274 q 727 1103 778 1168 q 588 1038 676 1038 z "},"Ḛ":{"ha":935,"x_min":79,"x_max":888,"o":"m 79 0 l 79 972 l 869 972 l 869 725 l 401 725 l 401 611 l 813 611 l 813 375 l 401 375 l 401 247 l 888 247 l 888 0 l 79 0 m 588 -315 q 499 -294 536 -315 q 435 -253 463 -274 q 382 -233 407 -233 q 339 -251 356 -233 q 319 -301 322 -269 l 171 -301 q 224 -126 174 -192 q 363 -61 274 -61 q 451 -81 414 -61 q 515 -122 488 -101 q 568 -143 543 -143 q 613 -126 596 -143 q 631 -79 629 -108 l 779 -79 q 727 -250 778 -185 q 588 -315 676 -315 z "},"Ə":{"ha":1136,"x_min":40,"x_max":1096,"o":"m 568 -22 q 293 42 413 -22 q 107 224 174 107 q 40 500 40 342 l 40 553 l 760 553 q 685 681 744 632 q 538 729 625 729 q 453 716 500 729 q 363 677 407 703 q 289 615 319 651 l 96 814 q 213 905 142 864 q 368 970 283 946 q 540 994 453 994 q 765 958 663 994 q 941 853 867 921 q 1056 692 1015 785 q 1096 486 1096 599 q 1056 280 1096 374 q 946 119 1017 186 q 778 15 875 51 q 568 -22 682 -22 m 760 372 l 376 372 q 438 259 389 300 q 568 218 486 218 q 699 259 650 218 q 760 372 747 300 z "},"Ʒ":{"ha":913,"x_min":14,"x_max":882,"o":"m 417 -22 q 206 0 314 -22 q 14 65 97 22 l 119 307 q 265 253 189 271 q 404 236 340 236 q 512 255 472 236 q 551 311 551 274 q 521 360 551 343 q 422 378 490 378 l 271 378 l 271 579 l 431 722 l 63 722 l 63 972 l 826 972 l 826 771 l 638 589 q 819 486 757 560 q 882 313 882 413 q 834 151 882 228 q 684 26 786 75 q 417 -22 582 -22 z "},"Ǯ":{"ha":913,"x_min":14,"x_max":882,"o":"m 417 -22 q 206 0 314 -22 q 14 65 97 22 l 119 307 q 265 253 189 271 q 404 236 340 236 q 512 255 472 236 q 551 311 551 274 q 521 360 551 343 q 422 378 490 378 l 271 378 l 271 579 l 431 722 l 63 722 l 63 972 l 826 972 l 826 771 l 638 589 q 819 486 757 560 q 882 313 882 413 q 834 151 882 228 q 684 26 786 75 q 417 -22 582 -22 m 307 1051 l 129 1274 l 324 1274 l 440 1167 l 557 1274 l 751 1274 l 574 1051 l 307 1051 z "},"Ƹ":{"ha":900,"x_min":31,"x_max":886,"o":"m 492 -22 q 228 26 329 -22 q 78 151 126 75 q 31 313 31 228 q 94 488 31 414 q 279 589 157 561 l 86 771 l 86 972 l 840 972 l 840 725 l 472 725 l 626 579 l 626 378 l 490 378 q 392 360 422 378 q 361 311 361 343 q 401 255 361 274 q 503 236 440 236 q 642 253 568 236 q 781 307 715 271 l 886 65 q 701 0 807 22 q 492 -22 594 -22 z "},"F":{"ha":894,"x_min":79,"x_max":869,"o":"m 79 0 l 79 972 l 869 972 l 869 725 l 407 725 l 407 558 l 813 558 l 813 311 l 407 311 l 407 0 l 79 0 z "},"Ḟ":{"ha":894,"x_min":79,"x_max":869,"o":"m 79 0 l 79 972 l 869 972 l 869 725 l 407 725 l 407 558 l 813 558 l 813 311 l 407 311 l 407 0 l 79 0 m 469 1038 q 356 1082 400 1038 q 311 1196 311 1126 q 356 1310 311 1265 q 469 1354 400 1354 q 583 1310 539 1354 q 628 1196 628 1265 q 583 1082 628 1126 q 469 1038 539 1038 z "},"Ƒ":{"ha":938,"x_min":-103,"x_max":900,"o":"m -103 -246 l -28 -28 q 69 -39 28 -54 q 110 32 110 -24 l 110 972 l 900 972 l 900 725 l 438 725 l 438 558 l 843 558 l 843 311 l 438 311 l 438 28 q 388 -154 438 -83 q 257 -258 338 -225 q 82 -287 176 -290 q -103 -246 -12 -283 z "},"G":{"ha":1068,"x_min":40,"x_max":1035,"o":"m 583 -22 q 366 15 465 -22 q 194 119 267 51 q 81 281 121 188 q 40 486 40 374 q 81 692 40 599 q 194 853 121 785 q 369 958 268 921 q 590 994 469 994 q 848 946 735 994 q 1035 807 961 897 l 825 622 q 607 729 733 729 q 435 664 499 729 q 371 486 371 599 q 434 310 371 376 q 603 243 497 243 q 663 249 633 243 q 722 267 692 254 l 722 513 l 1007 513 l 1007 101 q 804 10 918 42 q 583 -22 690 -22 z "},"Ǵ":{"ha":1068,"x_min":40,"x_max":1035,"o":"m 583 -22 q 366 15 465 -22 q 194 119 267 51 q 81 281 121 188 q 40 486 40 374 q 81 692 40 599 q 194 853 121 785 q 369 958 268 921 q 590 994 469 994 q 848 946 735 994 q 1035 807 961 897 l 825 622 q 607 729 733 729 q 435 664 499 729 q 371 486 371 599 q 434 310 371 376 q 603 243 497 243 q 663 249 633 243 q 722 267 692 254 l 722 513 l 1007 513 l 1007 101 q 804 10 918 42 q 583 -22 690 -22 m 443 1051 l 626 1274 l 925 1274 l 651 1051 l 443 1051 z "},"Ğ":{"ha":1068,"x_min":40,"x_max":1035,"o":"m 583 -22 q 366 15 465 -22 q 194 119 267 51 q 81 281 121 188 q 40 486 40 374 q 81 692 40 599 q 194 853 121 785 q 369 958 268 921 q 590 994 469 994 q 848 946 735 994 q 1035 807 961 897 l 825 622 q 607 729 733 729 q 435 664 499 729 q 371 486 371 599 q 434 310 371 376 q 603 243 497 243 q 663 249 633 243 q 722 267 692 254 l 722 513 l 1007 513 l 1007 101 q 804 10 918 42 q 583 -22 690 -22 m 589 1051 q 384 1115 464 1051 q 299 1288 304 1178 l 486 1288 q 517 1226 489 1249 q 589 1203 546 1203 q 660 1226 632 1203 q 692 1288 689 1249 l 879 1288 q 794 1115 874 1178 q 589 1051 714 1051 z "},"Ǧ":{"ha":1068,"x_min":40,"x_max":1035,"o":"m 583 -22 q 366 15 465 -22 q 194 119 267 51 q 81 281 121 188 q 40 486 40 374 q 81 692 40 599 q 194 853 121 785 q 369 958 268 921 q 590 994 469 994 q 848 946 735 994 q 1035 807 961 897 l 825 622 q 607 729 733 729 q 435 664 499 729 q 371 486 371 599 q 434 310 371 376 q 603 243 497 243 q 663 249 633 243 q 722 267 692 254 l 722 513 l 1007 513 l 1007 101 q 804 10 918 42 q 583 -22 690 -22 m 456 1051 l 278 1274 l 472 1274 l 589 1167 l 706 1274 l 900 1274 l 722 1051 l 456 1051 z "},"Ĝ":{"ha":1068,"x_min":40,"x_max":1035,"o":"m 583 -22 q 366 15 465 -22 q 194 119 267 51 q 81 281 121 188 q 40 486 40 374 q 81 692 40 599 q 194 853 121 785 q 369 958 268 921 q 590 994 469 994 q 848 946 735 994 q 1035 807 961 897 l 825 622 q 607 729 733 729 q 435 664 499 729 q 371 486 371 599 q 434 310 371 376 q 603 243 497 243 q 663 249 633 243 q 722 267 692 254 l 722 513 l 1007 513 l 1007 101 q 804 10 918 42 q 583 -22 690 -22 m 278 1051 l 456 1274 l 722 1274 l 900 1051 l 706 1051 l 589 1158 l 472 1051 l 278 1051 z "},"Ģ":{"ha":1068,"x_min":40,"x_max":1035,"o":"m 583 -22 q 366 15 465 -22 q 194 119 267 51 q 81 281 121 188 q 40 486 40 374 q 81 692 40 599 q 194 853 121 785 q 369 958 268 921 q 590 994 469 994 q 848 946 735 994 q 1035 807 961 897 l 825 622 q 607 729 733 729 q 435 664 499 729 q 371 486 371 599 q 434 310 371 376 q 603 243 497 243 q 663 249 633 243 q 722 267 692 254 l 722 513 l 1007 513 l 1007 101 q 804 10 918 42 q 583 -22 690 -22 m 468 -375 l 504 -265 q 444 -174 444 -242 q 478 -98 444 -126 q 569 -69 511 -69 q 661 -98 628 -69 q 694 -174 694 -126 q 688 -220 694 -193 q 660 -285 682 -247 l 606 -375 l 468 -375 z "},"Ġ":{"ha":1068,"x_min":40,"x_max":1035,"o":"m 583 -22 q 366 15 465 -22 q 194 119 267 51 q 81 281 121 188 q 40 486 40 374 q 81 692 40 599 q 194 853 121 785 q 369 958 268 921 q 590 994 469 994 q 848 946 735 994 q 1035 807 961 897 l 825 622 q 607 729 733 729 q 435 664 499 729 q 371 486 371 599 q 434 310 371 376 q 603 243 497 243 q 663 249 633 243 q 722 267 692 254 l 722 513 l 1007 513 l 1007 101 q 804 10 918 42 q 583 -22 690 -22 m 589 1038 q 475 1082 519 1038 q 431 1196 431 1126 q 475 1310 431 1265 q 589 1354 519 1354 q 703 1310 658 1354 q 747 1196 747 1265 q 703 1082 747 1126 q 589 1038 658 1038 z "},"Ɠ":{"ha":1104,"x_min":40,"x_max":1194,"o":"m 583 -22 q 366 15 465 -22 q 194 119 267 51 q 81 281 121 188 q 40 486 40 374 q 81 692 40 599 q 194 853 121 785 q 369 958 268 921 q 590 994 469 994 q 771 972 686 994 q 812 1122 772 1064 q 914 1208 851 1181 q 1050 1233 976 1235 q 1194 1201 1124 1231 l 1135 997 q 1067 999 1100 1011 q 1035 942 1035 986 l 1035 807 l 825 622 q 607 729 733 729 q 435 664 499 729 q 371 486 371 599 q 434 310 371 376 q 603 243 497 243 q 663 249 633 243 q 722 267 692 254 l 722 513 l 1007 513 l 1007 101 q 804 10 918 42 q 583 -22 690 -22 z "},"Ɂ":{"ha":965,"x_min":11,"x_max":936,"o":"m 338 0 l 338 251 q 365 382 338 332 q 432 464 392 432 q 513 520 472 496 q 580 570 553 544 q 607 635 607 596 q 562 713 607 685 q 456 742 517 742 q 349 718 403 742 q 258 644 294 694 l 11 768 q 119 892 46 842 q 287 969 192 943 q 482 994 382 994 q 649 975 568 994 q 794 915 729 956 q 898 809 860 874 q 936 656 936 744 q 909 526 936 578 q 842 440 882 475 q 760 374 801 404 q 692 308 719 343 q 665 221 665 274 l 665 0 l 338 0 z "},"Ḡ":{"ha":1068,"x_min":40,"x_max":1035,"o":"m 583 -22 q 366 15 465 -22 q 194 119 267 51 q 81 281 121 188 q 40 486 40 374 q 81 692 40 599 q 194 853 121 785 q 369 958 268 921 q 590 994 469 994 q 848 946 735 994 q 1035 807 961 897 l 825 622 q 607 729 733 729 q 435 664 499 729 q 371 486 371 599 q 434 310 371 376 q 603 243 497 243 q 663 249 633 243 q 722 267 692 254 l 722 513 l 1007 513 l 1007 101 q 804 10 918 42 q 583 -22 690 -22 m 297 1081 l 297 1244 l 881 1244 l 881 1081 l 297 1081 z "},"Ǥ":{"ha":1128,"x_min":40,"x_max":1104,"o":"m 583 -22 q 366 15 465 -22 q 194 119 267 51 q 81 281 121 188 q 40 486 40 374 q 81 692 40 599 q 194 853 121 785 q 369 958 268 921 q 590 994 469 994 q 848 946 735 994 q 1035 807 961 897 l 825 622 q 607 729 733 729 q 435 664 499 729 q 371 486 371 599 q 434 310 371 376 q 603 243 497 243 q 663 249 633 243 q 722 267 692 254 l 722 294 l 576 294 l 576 483 l 722 483 l 722 526 l 1007 526 l 1007 483 l 1104 483 l 1104 294 l 1007 294 l 1007 101 q 804 10 918 42 q 583 -22 690 -22 z "},"Ȝ":{"ha":944,"x_min":-6,"x_max":901,"o":"m 7 -161 l -6 107 q 214 131 111 118 q 395 163 317 143 q 517 212 474 182 q 561 285 561 242 q 535 333 561 317 q 456 336 510 349 l 240 286 l 219 538 l 429 586 q 511 615 485 599 q 538 663 538 632 q 517 704 538 689 q 457 719 497 719 q 364 707 422 719 q 235 672 306 694 q 93 619 165 649 l -3 861 q 135 921 54 890 q 309 972 215 951 q 499 993 403 993 q 707 956 625 993 q 829 860 789 919 q 869 733 869 801 q 830 607 869 663 q 725 513 790 551 q 854 424 807 489 q 901 271 901 360 q 791 42 901 135 q 480 -101 681 -51 q 7 -161 279 -151 z "},"H":{"ha":1117,"x_min":79,"x_max":1038,"o":"m 710 0 l 710 358 l 407 358 l 407 0 l 79 0 l 79 972 l 407 972 l 407 628 l 710 628 l 710 972 l 1038 972 l 1038 0 l 710 0 z "},"Ħ":{"ha":1172,"x_min":10,"x_max":1163,"o":"m 738 0 l 738 344 l 435 344 l 435 0 l 107 0 l 107 690 l 10 690 l 10 879 l 107 879 l 107 972 l 435 972 l 435 879 l 738 879 l 738 972 l 1065 972 l 1065 879 l 1163 879 l 1163 690 l 1065 690 l 1065 0 l 738 0 m 435 600 l 738 600 l 738 690 l 435 690 l 435 600 z "},"Ḫ":{"ha":1117,"x_min":79,"x_max":1038,"o":"m 710 0 l 710 358 l 407 358 l 407 0 l 79 0 l 79 972 l 407 972 l 407 628 l 710 628 l 710 972 l 1038 972 l 1038 0 l 710 0 m 558 -296 q 353 -233 433 -296 q 268 -60 274 -169 l 456 -60 q 487 -122 458 -99 q 558 -144 515 -144 q 630 -122 601 -144 q 661 -60 658 -99 l 849 -60 q 763 -233 843 -169 q 558 -296 683 -296 z "},"Ȟ":{"ha":1117,"x_min":79,"x_max":1038,"o":"m 710 0 l 710 358 l 407 358 l 407 0 l 79 0 l 79 972 l 407 972 l 407 628 l 710 628 l 710 972 l 1038 972 l 1038 0 l 710 0 m 425 1051 l 247 1274 l 442 1274 l 558 1167 l 675 1274 l 869 1274 l 692 1051 l 425 1051 z "},"Ḩ":{"ha":1117,"x_min":58,"x_max":1038,"o":"m 710 0 l 710 358 l 407 358 l 407 0 l 329 0 l 313 -72 q 404 -114 378 -81 q 431 -183 431 -147 q 366 -293 431 -253 q 194 -333 301 -333 q 121 -325 160 -333 q 58 -304 82 -317 l 97 -189 q 134 -200 113 -194 q 181 -206 156 -206 q 232 -196 217 -206 q 247 -172 247 -186 q 190 -144 247 -144 l 133 -144 l 168 0 l 79 0 l 79 972 l 407 972 l 407 628 l 710 628 l 710 972 l 1038 972 l 1038 0 l 710 0 z "},"Ĥ":{"ha":1117,"x_min":79,"x_max":1038,"o":"m 710 0 l 710 358 l 407 358 l 407 0 l 79 0 l 79 972 l 407 972 l 407 628 l 710 628 l 710 972 l 1038 972 l 1038 0 l 710 0 m 247 1051 l 425 1274 l 692 1274 l 869 1051 l 675 1051 l 558 1158 l 442 1051 l 247 1051 z "},"Ḧ":{"ha":1117,"x_min":79,"x_max":1038,"o":"m 710 0 l 710 358 l 407 358 l 407 0 l 79 0 l 79 972 l 407 972 l 407 628 l 710 628 l 710 972 l 1038 972 l 1038 0 l 710 0 m 404 1040 q 315 1074 351 1040 q 279 1163 279 1107 q 315 1252 279 1218 q 404 1286 351 1286 q 493 1252 457 1286 q 529 1163 529 1218 q 493 1074 529 1107 q 404 1040 457 1040 m 713 1040 q 624 1074 660 1040 q 588 1163 588 1107 q 624 1252 588 1218 q 713 1286 660 1286 q 801 1252 765 1286 q 838 1163 838 1218 q 801 1074 838 1107 q 713 1040 765 1040 z "},"Ḣ":{"ha":1117,"x_min":79,"x_max":1038,"o":"m 710 0 l 710 358 l 407 358 l 407 0 l 79 0 l 79 972 l 407 972 l 407 628 l 710 628 l 710 972 l 1038 972 l 1038 0 l 710 0 m 558 1038 q 444 1082 489 1038 q 400 1196 400 1126 q 444 1310 400 1265 q 558 1354 489 1354 q 672 1310 628 1354 q 717 1196 717 1265 q 672 1082 717 1126 q 558 1038 628 1038 z "},"Ḥ":{"ha":1117,"x_min":79,"x_max":1038,"o":"m 710 0 l 710 358 l 407 358 l 407 0 l 79 0 l 79 972 l 407 972 l 407 628 l 710 628 l 710 972 l 1038 972 l 1038 0 l 710 0 m 558 -365 q 444 -321 489 -365 q 400 -207 400 -276 q 444 -93 400 -137 q 558 -49 489 -49 q 672 -93 628 -49 q 717 -207 717 -137 q 672 -321 717 -276 q 558 -365 628 -365 z "},"Ꜧ":{"ha":1124,"x_min":79,"x_max":1038,"o":"m 499 -246 l 574 -28 q 669 -39 629 -54 q 710 31 710 -24 l 710 363 l 407 363 l 407 0 l 79 0 l 79 972 l 407 972 l 407 626 l 710 626 l 710 972 l 1038 972 l 1038 31 q 988 -153 1038 -82 q 857 -258 938 -225 q 682 -287 776 -290 q 499 -246 588 -283 z "},"Ɦ":{"ha":1453,"x_min":8,"x_max":1374,"o":"m 82 440 q 24 577 40 504 q 20 720 8 650 q 74 847 32 790 q 192 938 117 904 q 379 972 268 972 l 743 972 l 743 628 l 1046 628 l 1046 972 l 1374 972 l 1374 0 l 1046 0 l 1046 358 l 743 358 l 743 0 l 415 0 l 415 718 l 374 718 q 300 667 311 718 q 329 546 289 615 l 82 440 z "},"Ɥ":{"ha":1063,"x_min":31,"x_max":983,"o":"m 983 972 l 983 0 l 665 0 l 665 378 q 550 284 618 317 q 393 251 482 251 q 126 363 221 251 q 31 683 31 475 l 31 972 l 358 972 l 358 693 q 398 559 358 601 q 503 517 438 517 q 611 562 567 517 q 656 704 656 607 l 656 972 l 983 972 z "},"I":{"ha":486,"x_min":79,"x_max":407,"o":"m 79 0 l 79 972 l 407 972 l 407 0 l 79 0 z "},"Ĳ":{"ha":1013,"x_min":43,"x_max":942,"o":"m 456 -22 q 225 10 331 -22 q 43 96 119 42 l 163 328 q 306 262 232 285 q 440 239 379 239 q 572 285 531 239 q 614 433 614 332 l 614 972 l 942 972 l 942 451 q 881 193 942 299 q 711 33 821 88 q 456 -22 601 -22 m 71 467 l 71 972 l 399 972 l 399 467 l 71 467 z "},"Í":{"ha":486,"x_min":79,"x_max":579,"o":"m 79 0 l 79 972 l 407 972 l 407 0 l 79 0 m 97 1051 l 281 1274 l 579 1274 l 306 1051 l 97 1051 z "},"Ĭ":{"ha":486,"x_min":-47,"x_max":533,"o":"m 79 0 l 79 972 l 407 972 l 407 0 l 79 0 m 243 1051 q 38 1115 118 1051 q -47 1288 -42 1178 l 140 1288 q 172 1226 143 1249 q 243 1203 200 1203 q 315 1226 286 1203 q 346 1288 343 1249 l 533 1288 q 448 1115 528 1178 q 243 1051 368 1051 z "},"Ǐ":{"ha":486,"x_min":-68,"x_max":554,"o":"m 79 0 l 79 972 l 407 972 l 407 0 l 79 0 m 110 1051 l -68 1274 l 126 1274 l 243 1167 l 360 1274 l 554 1274 l 376 1051 l 110 1051 z "},"Î":{"ha":486,"x_min":-68,"x_max":554,"o":"m 79 0 l 79 972 l 407 972 l 407 0 l 79 0 m -68 1051 l 110 1274 l 376 1274 l 554 1051 l 360 1051 l 243 1158 l 126 1051 l -68 1051 z "},"Ȉ":{"ha":486,"x_min":-158,"x_max":510,"o":"m 79 0 l 79 972 l 407 972 l 407 0 l 79 0 m -24 1051 l -158 1274 l 113 1274 l 185 1051 l -24 1051 m 301 1051 l 167 1274 l 438 1274 l 510 1051 l 301 1051 z "},"Ï":{"ha":486,"x_min":-36,"x_max":522,"o":"m 79 0 l 79 972 l 407 972 l 407 0 l 79 0 m 89 1040 q 0 1074 36 1040 q -36 1163 -36 1107 q 0 1252 -36 1218 q 89 1286 36 1286 q 178 1252 142 1286 q 214 1163 214 1218 q 178 1074 214 1107 q 89 1040 142 1040 m 397 1040 q 308 1074 344 1040 q 272 1163 272 1107 q 308 1252 272 1218 q 397 1286 344 1286 q 486 1252 450 1286 q 522 1163 522 1218 q 486 1074 522 1107 q 397 1040 450 1040 z "},"Ḯ":{"ha":486,"x_min":-22,"x_max":538,"o":"m 79 0 l 79 972 l 407 972 l 407 0 l 79 0 m 96 1040 q 12 1072 46 1040 q -22 1156 -22 1104 q 12 1240 -22 1208 q 96 1272 46 1272 q 180 1240 146 1272 q 214 1156 214 1208 q 180 1072 214 1104 q 96 1040 146 1040 m 390 1040 q 306 1072 340 1040 q 272 1156 272 1104 q 306 1240 272 1208 q 390 1272 340 1272 q 474 1240 440 1272 q 508 1156 508 1208 q 474 1072 508 1104 q 390 1040 440 1040 m 97 1306 l 239 1486 l 538 1486 l 306 1306 l 97 1306 z "},"İ":{"ha":486,"x_min":79,"x_max":407,"o":"m 79 0 l 79 972 l 407 972 l 407 0 l 79 0 m 243 1038 q 129 1082 174 1038 q 85 1196 85 1126 q 129 1310 85 1265 q 243 1354 174 1354 q 357 1310 313 1354 q 401 1196 401 1265 q 357 1082 401 1126 q 243 1038 313 1038 z "},"Ị":{"ha":486,"x_min":79,"x_max":407,"o":"m 79 0 l 79 972 l 407 972 l 407 0 l 79 0 m 243 -365 q 129 -321 174 -365 q 85 -207 85 -276 q 129 -93 85 -137 q 243 -49 174 -49 q 357 -93 313 -49 q 401 -207 401 -137 q 357 -321 401 -276 q 243 -365 313 -365 z "},"Ì":{"ha":486,"x_min":-93,"x_max":407,"o":"m 79 0 l 79 972 l 407 972 l 407 0 l 79 0 m 181 1051 l -93 1274 l 206 1274 l 389 1051 l 181 1051 z "},"Ỉ":{"ha":486,"x_min":15,"x_max":407,"o":"m 79 0 l 79 972 l 407 972 l 407 0 l 79 0 m 247 1007 l 153 1097 q 205 1135 193 1117 q 217 1172 217 1154 q 201 1211 217 1197 q 158 1225 185 1225 q 79 1197 119 1225 l 15 1314 q 110 1360 64 1346 q 199 1375 157 1375 q 304 1350 258 1375 q 376 1284 350 1325 q 401 1196 401 1243 q 365 1094 401 1144 q 247 1007 329 1043 z "},"Ȋ":{"ha":486,"x_min":-47,"x_max":533,"o":"m 79 0 l 79 972 l 407 972 l 407 0 l 79 0 m -47 1051 q 38 1224 -42 1161 q 243 1288 118 1288 q 448 1224 368 1288 q 533 1051 528 1161 l 346 1051 q 315 1113 343 1090 q 243 1136 286 1136 q 172 1113 200 1136 q 140 1051 143 1090 l -47 1051 z "},"Ī":{"ha":486,"x_min":7,"x_max":479,"o":"m 79 0 l 79 972 l 407 972 l 407 0 l 79 0 m 7 1081 l 7 1244 l 479 1244 l 479 1081 l 7 1081 z "},"Į":{"ha":486,"x_min":79,"x_max":442,"o":"m 79 0 l 79 972 l 407 972 l 407 0 l 79 0 m 324 -333 q 178 -286 233 -333 q 124 -160 124 -239 q 177 -22 124 -82 q 324 71 231 39 l 407 0 q 330 -65 351 -35 q 308 -132 308 -96 q 324 -175 308 -158 q 361 -192 339 -192 q 406 -176 386 -192 l 442 -301 q 324 -333 394 -333 z "},"Ɩ":{"ha":585,"x_min":69,"x_max":600,"o":"m 389 -21 q 231 10 304 -21 q 114 108 158 40 q 69 288 69 176 l 69 972 l 397 972 l 397 328 q 419 258 397 281 q 474 236 440 236 q 547 257 507 236 l 600 17 q 389 -21 496 -21 z "},"Ɨ":{"ha":542,"x_min":10,"x_max":532,"o":"m 107 0 l 107 399 l 10 399 l 10 588 l 107 588 l 107 972 l 435 972 l 435 588 l 532 588 l 532 399 l 435 399 l 435 0 l 107 0 z "},"Ĩ":{"ha":486,"x_min":-33,"x_max":519,"o":"m 79 0 l 79 972 l 407 972 l 407 0 l 79 0 m 344 1038 q 278 1050 304 1038 q 233 1078 251 1063 q 199 1107 215 1094 q 161 1119 182 1119 q 128 1101 138 1119 q 115 1051 118 1083 l -33 1051 q 13 1226 -31 1161 q 142 1292 56 1292 q 208 1279 182 1292 q 253 1251 235 1267 q 288 1222 271 1235 q 325 1210 304 1210 q 359 1227 349 1210 q 371 1274 369 1244 l 519 1274 q 474 1103 518 1168 q 344 1038 431 1038 z "},"Ḭ":{"ha":511,"x_min":-22,"x_max":531,"o":"m 79 0 l 79 972 l 407 972 l 407 0 l 79 0 m 356 -315 q 289 -303 315 -315 q 244 -274 263 -290 q 210 -246 226 -258 q 172 -233 193 -233 q 139 -251 149 -233 q 126 -301 129 -269 l -22 -301 q 24 -126 -19 -192 q 153 -61 67 -61 q 219 -74 193 -61 q 264 -102 246 -86 q 299 -131 282 -118 q 336 -143 315 -143 q 370 -126 360 -143 q 382 -79 381 -108 l 531 -79 q 485 -250 529 -185 q 356 -315 442 -315 z "},"J":{"ha":797,"x_min":-33,"x_max":726,"o":"m 325 -22 q 119 15 211 -22 q -33 122 28 51 l 143 331 q 297 235 221 235 q 403 356 403 235 l 403 725 l 72 725 l 72 972 l 726 972 l 726 375 q 624 76 726 175 q 325 -22 521 -22 z "},"Ĵ":{"ha":797,"x_min":-33,"x_max":726,"o":"m 325 -22 q 119 15 211 -22 q -33 122 28 51 l 143 331 q 297 235 221 235 q 403 356 403 235 l 403 725 l 72 725 l 72 972 l 726 972 l 726 375 q 624 76 726 175 q 325 -22 521 -22 m 89 1051 l 267 1274 l 533 1274 l 711 1051 l 517 1051 l 400 1158 l 283 1051 l 89 1051 z "},"Ʝ":{"ha":825,"x_min":21,"x_max":825,"o":"m 336 -22 q 156 12 226 -22 q 53 100 86 46 q 21 213 21 154 q 52 324 21 271 q 149 410 83 376 q 319 444 215 444 l 403 444 l 403 725 l 72 725 l 72 972 l 726 972 l 726 444 l 825 444 l 825 265 l 724 265 q 655 103 710 167 q 517 8 600 39 q 336 -22 433 -22 m 403 265 l 347 265 q 283 249 301 265 q 265 214 265 233 q 281 183 265 196 q 325 171 297 171 q 381 192 360 171 q 403 254 403 213 l 403 265 z "},"Ɉ":{"ha":801,"x_min":-33,"x_max":824,"o":"m 325 -22 q 119 15 211 -22 q -33 122 28 51 l 143 331 q 297 235 221 235 q 403 356 403 235 l 403 399 l 257 399 l 257 588 l 403 588 l 403 725 l 72 725 l 72 972 l 726 972 l 726 588 l 824 588 l 824 399 l 726 399 l 726 375 q 624 76 726 175 q 325 -22 521 -22 z "},"K":{"ha":1063,"x_min":79,"x_max":1097,"o":"m 79 0 l 79 972 l 401 972 l 401 619 l 721 972 l 1078 972 l 689 544 l 1097 0 l 718 0 l 475 322 l 401 240 l 401 0 l 79 0 z "},"Ḱ":{"ha":1063,"x_min":79,"x_max":1097,"o":"m 79 0 l 79 972 l 401 972 l 401 619 l 721 972 l 1078 972 l 689 544 l 1097 0 l 718 0 l 475 322 l 401 240 l 401 0 l 79 0 m 388 1051 l 571 1274 l 869 1274 l 596 1051 l 388 1051 z "},"Ǩ":{"ha":1063,"x_min":79,"x_max":1097,"o":"m 79 0 l 79 972 l 401 972 l 401 619 l 721 972 l 1078 972 l 689 544 l 1097 0 l 718 0 l 475 322 l 401 240 l 401 0 l 79 0 m 400 1051 l 222 1274 l 417 1274 l 533 1167 l 650 1274 l 844 1274 l 667 1051 l 400 1051 z "},"Ķ":{"ha":1063,"x_min":79,"x_max":1097,"o":"m 79 0 l 79 972 l 401 972 l 401 619 l 721 972 l 1078 972 l 689 544 l 1097 0 l 718 0 l 475 322 l 401 240 l 401 0 l 79 0 m 432 -375 l 468 -265 q 408 -174 408 -242 q 442 -98 408 -126 q 533 -69 475 -69 q 625 -98 592 -69 q 658 -174 658 -126 q 652 -220 658 -193 q 624 -285 646 -247 l 569 -375 l 432 -375 z "},"Ḳ":{"ha":1063,"x_min":79,"x_max":1097,"o":"m 79 0 l 79 972 l 401 972 l 401 619 l 721 972 l 1078 972 l 689 544 l 1097 0 l 718 0 l 475 322 l 401 240 l 401 0 l 79 0 m 533 -365 q 419 -321 464 -365 q 375 -207 375 -276 q 419 -93 375 -137 q 533 -49 464 -49 q 647 -93 603 -49 q 692 -207 692 -137 q 647 -321 692 -276 q 533 -365 603 -365 z "},"Ƙ":{"ha":1069,"x_min":79,"x_max":1114,"o":"m 79 0 l 79 972 l 401 972 l 401 646 l 651 903 q 832 1030 747 1001 q 988 1036 917 1058 q 1114 956 1060 1014 l 976 754 q 919 778 947 783 q 864 744 892 772 l 681 554 l 1097 0 l 718 0 l 467 332 l 401 265 l 401 0 l 79 0 z "},"Ḵ":{"ha":1063,"x_min":79,"x_max":1097,"o":"m 79 0 l 79 972 l 401 972 l 401 619 l 721 972 l 1078 972 l 689 544 l 1097 0 l 718 0 l 475 322 l 401 240 l 401 0 l 79 0 m 242 -268 l 242 -104 l 825 -104 l 825 -268 l 242 -268 z "},"Ꝁ":{"ha":1063,"x_min":15,"x_max":1131,"o":"m 113 0 l 113 753 l 15 753 l 15 906 l 113 906 l 113 972 l 435 972 l 435 906 l 560 906 l 560 753 l 435 753 l 435 571 l 761 972 l 1111 972 l 732 531 l 1131 0 l 751 0 l 532 296 l 435 183 l 435 0 l 113 0 z "},"L":{"ha":857,"x_min":79,"x_max":846,"o":"m 79 0 l 79 972 l 407 972 l 407 254 l 846 254 l 846 0 l 79 0 z "},"Ǉ":{"ha":1689,"x_min":79,"x_max":1618,"o":"m 79 0 l 79 972 l 407 972 l 407 254 l 846 254 l 846 0 l 79 0 m 1217 -22 q 1011 15 1103 -22 q 858 122 919 51 l 1035 331 q 1189 235 1113 235 q 1294 356 1294 235 l 1294 725 l 964 725 l 964 972 l 1618 972 l 1618 375 q 1515 76 1618 175 q 1217 -22 1413 -22 z "},"Ĺ":{"ha":857,"x_min":79,"x_max":846,"o":"m 79 0 l 79 972 l 407 972 l 407 254 l 846 254 l 846 0 l 79 0 m 97 1051 l 281 1274 l 579 1274 l 306 1051 l 97 1051 z "},"Ƚ":{"ha":872,"x_min":-3,"x_max":861,"o":"m 94 0 l 94 399 l -3 399 l -3 588 l 94 588 l 94 972 l 422 972 l 422 588 l 568 588 l 568 399 l 422 399 l 422 254 l 861 254 l 861 0 l 94 0 z "},"Ɬ":{"ha":1042,"x_min":-33,"x_max":1031,"o":"m 264 0 l 264 426 l 226 426 q 78 460 136 426 q -6 545 21 493 q -33 654 -33 597 q -10 758 -33 708 q 61 841 14 808 q 179 874 108 874 q 264 857 228 874 l 264 972 l 592 972 l 592 625 l 825 625 l 828 426 l 592 426 l 592 254 l 1031 254 l 1031 0 l 264 0 m 264 625 q 235 700 258 678 q 188 722 211 722 q 156 710 169 722 q 143 679 143 697 q 163 642 143 658 q 226 625 183 625 l 264 625 z "},"Ľ":{"ha":857,"x_min":79,"x_max":846,"o":"m 79 0 l 79 972 l 407 972 l 407 254 l 846 254 l 846 0 l 79 0 m 588 750 l 588 1042 l 807 1042 l 765 750 l 588 750 z "},"Ḽ":{"ha":857,"x_min":79,"x_max":846,"o":"m 79 0 l 79 972 l 407 972 l 407 254 l 846 254 l 846 0 l 79 0 m 151 -299 l 329 -76 l 596 -76 l 774 -299 l 579 -299 l 463 -192 l 346 -299 l 151 -299 z "},"Ļ":{"ha":857,"x_min":79,"x_max":846,"o":"m 79 0 l 79 972 l 407 972 l 407 254 l 846 254 l 846 0 l 79 0 m 361 -375 l 397 -265 q 338 -174 338 -242 q 371 -98 338 -126 q 463 -69 404 -69 q 554 -98 521 -69 q 588 -174 588 -126 q 581 -220 588 -193 q 553 -285 575 -247 l 499 -375 l 361 -375 z "},"Ŀ":{"ha":857,"x_min":79,"x_max":846,"o":"m 79 0 l 79 972 l 407 972 l 407 254 l 846 254 l 846 0 l 79 0 m 686 446 q 572 490 617 446 q 528 604 528 535 q 572 718 528 674 q 686 763 617 763 q 800 718 756 763 q 844 604 844 674 q 800 490 844 535 q 686 446 756 446 z "},"Ḷ":{"ha":857,"x_min":79,"x_max":846,"o":"m 79 0 l 79 972 l 407 972 l 407 254 l 846 254 l 846 0 l 79 0 m 463 -365 q 349 -321 393 -365 q 304 -207 304 -276 q 349 -93 304 -137 q 463 -49 393 -49 q 576 -93 532 -49 q 621 -207 621 -137 q 576 -321 621 -276 q 463 -365 532 -365 z "},"Ḹ":{"ha":857,"x_min":-49,"x_max":846,"o":"m 79 0 l 79 972 l 407 972 l 407 254 l 846 254 l 846 0 l 79 0 m 463 -365 q 349 -321 393 -365 q 304 -207 304 -276 q 349 -93 304 -137 q 463 -49 393 -49 q 576 -93 532 -49 q 621 -207 621 -137 q 576 -321 621 -276 q 463 -365 532 -365 m -49 1081 l -49 1244 l 535 1244 l 535 1081 l -49 1081 z "},"Ⱡ":{"ha":914,"x_min":39,"x_max":903,"o":"m 136 0 l 136 342 l 39 342 l 39 531 l 136 531 l 136 565 l 39 565 l 39 754 l 136 754 l 136 972 l 464 972 l 464 754 l 610 754 l 610 565 l 464 565 l 464 531 l 610 531 l 610 342 l 464 342 l 464 254 l 903 254 l 903 0 l 136 0 z "},"ǈ":{"ha":1321,"x_min":79,"x_max":1283,"o":"m 79 0 l 79 972 l 407 972 l 407 254 l 846 254 l 846 0 l 79 0 m 919 -283 q 813 -274 864 -283 q 726 -246 763 -264 l 801 -28 q 872 -46 835 -46 q 919 -25 900 -46 q 938 42 938 -4 l 938 760 l 1251 760 l 1251 39 q 1164 -196 1251 -108 q 919 -283 1076 -283 m 1094 821 q 957 867 1008 821 q 906 981 906 913 q 957 1094 906 1049 q 1094 1140 1008 1140 q 1232 1097 1181 1140 q 1283 986 1283 1054 q 1232 867 1283 914 q 1094 821 1181 821 z "},"Ḻ":{"ha":857,"x_min":79,"x_max":846,"o":"m 79 0 l 79 972 l 407 972 l 407 254 l 846 254 l 846 0 l 79 0 m 171 -268 l 171 -104 l 754 -104 l 754 -268 l 171 -268 z "},"Ɫ":{"ha":985,"x_min":-21,"x_max":974,"o":"m 207 0 l 207 517 q 188 518 196 518 q 146 500 161 518 q 128 450 131 482 l -21 450 q 31 624 -18 557 q 172 690 79 690 q 207 688 188 690 l 207 972 l 535 972 l 535 611 q 560 608 550 608 q 619 672 615 608 l 768 672 q 717 502 767 568 q 575 436 668 436 q 535 439 557 436 l 535 254 l 974 254 l 974 0 l 207 0 z "},"Ł":{"ha":885,"x_min":-50,"x_max":874,"o":"m 107 0 l 107 972 l 435 972 l 435 254 l 874 254 l 874 0 l 107 0 m 47 249 l -50 388 l 568 846 l 665 707 l 47 249 z "},"M":{"ha":1325,"x_min":79,"x_max":1246,"o":"m 79 0 l 79 972 l 349 972 l 665 454 l 974 972 l 1243 972 l 1246 0 l 947 0 l 944 443 l 733 88 l 589 88 l 378 428 l 378 0 l 79 0 z "},"Ḿ":{"ha":1325,"x_min":79,"x_max":1246,"o":"m 79 0 l 79 972 l 349 972 l 665 454 l 974 972 l 1243 972 l 1246 0 l 947 0 l 944 443 l 733 88 l 589 88 l 378 428 l 378 0 l 79 0 m 515 1051 l 699 1274 l 997 1274 l 724 1051 l 515 1051 z "},"Ṁ":{"ha":1325,"x_min":79,"x_max":1246,"o":"m 79 0 l 79 972 l 349 972 l 665 454 l 974 972 l 1243 972 l 1246 0 l 947 0 l 944 443 l 733 88 l 589 88 l 378 428 l 378 0 l 79 0 m 661 1038 q 547 1082 592 1038 q 503 1196 503 1126 q 547 1310 503 1265 q 661 1354 592 1354 q 775 1310 731 1354 q 819 1196 819 1265 q 775 1082 819 1126 q 661 1038 731 1038 z "},"Ṃ":{"ha":1325,"x_min":79,"x_max":1246,"o":"m 79 0 l 79 972 l 349 972 l 665 454 l 974 972 l 1243 972 l 1246 0 l 947 0 l 944 443 l 733 88 l 589 88 l 378 428 l 378 0 l 79 0 m 661 -365 q 547 -321 592 -365 q 503 -207 503 -276 q 547 -93 503 -137 q 661 -49 592 -49 q 775 -93 731 -49 q 819 -207 819 -137 q 775 -321 819 -276 q 661 -365 731 -365 z "},"Ɱ":{"ha":1338,"x_min":92,"x_max":1258,"o":"m 749 -246 l 824 -28 q 919 -39 879 -54 q 960 31 960 -24 l 960 447 l 746 88 l 601 88 l 390 428 l 390 0 l 92 0 l 92 972 l 361 972 l 678 454 l 986 972 l 1256 972 l 1258 31 q 1226 -123 1258 -60 q 1140 -225 1194 -186 q 1019 -278 1086 -264 q 881 -285 951 -293 q 749 -246 811 -276 z "},"Ɯ":{"ha":1683,"x_min":71,"x_max":1604,"o":"m 1604 972 l 1604 0 l 1288 0 l 1288 97 q 1019 -22 1199 -22 q 743 108 833 -22 q 612 10 690 43 q 439 -22 533 -22 q 169 81 267 -22 q 71 382 71 185 l 71 972 l 399 972 l 399 392 q 437 281 399 318 q 539 243 475 243 q 644 283 604 243 q 685 403 685 322 l 685 972 l 1013 972 l 1013 392 q 1047 281 1013 318 q 1142 243 1082 243 q 1240 283 1203 243 q 1276 403 1276 322 l 1276 972 l 1604 972 z "},"N":{"ha":1117,"x_min":79,"x_max":1038,"o":"m 79 0 l 79 972 l 349 972 l 718 531 l 718 972 l 1038 972 l 1038 0 l 768 0 l 399 442 l 399 0 l 79 0 z "},"Ǌ":{"ha":1914,"x_min":79,"x_max":1843,"o":"m 79 0 l 79 972 l 349 972 l 718 531 l 718 972 l 1038 972 l 1038 0 l 768 0 l 399 442 l 399 0 l 79 0 m 1442 -22 q 1236 15 1328 -22 q 1083 122 1144 51 l 1260 331 q 1414 235 1338 235 q 1519 356 1519 235 l 1519 725 l 1189 725 l 1189 972 l 1843 972 l 1843 375 q 1740 76 1843 175 q 1442 -22 1638 -22 z "},"Ń":{"ha":1117,"x_min":79,"x_max":1038,"o":"m 79 0 l 79 972 l 349 972 l 718 531 l 718 972 l 1038 972 l 1038 0 l 768 0 l 399 442 l 399 0 l 79 0 m 413 1051 l 596 1274 l 894 1274 l 621 1051 l 413 1051 z "},"Ň":{"ha":1117,"x_min":79,"x_max":1038,"o":"m 79 0 l 79 972 l 349 972 l 718 531 l 718 972 l 1038 972 l 1038 0 l 768 0 l 399 442 l 399 0 l 79 0 m 425 1051 l 247 1274 l 442 1274 l 558 1167 l 675 1274 l 869 1274 l 692 1051 l 425 1051 z "},"Ṋ":{"ha":1117,"x_min":79,"x_max":1038,"o":"m 79 0 l 79 972 l 349 972 l 718 531 l 718 972 l 1038 972 l 1038 0 l 768 0 l 399 442 l 399 0 l 79 0 m 246 -293 l 424 -71 l 690 -71 l 868 -293 l 674 -293 l 557 -186 l 440 -293 l 246 -293 z "},"Ņ":{"ha":1117,"x_min":79,"x_max":1038,"o":"m 79 0 l 79 972 l 349 972 l 718 531 l 718 972 l 1038 972 l 1038 0 l 768 0 l 399 442 l 399 0 l 79 0 m 457 -375 l 493 -265 q 433 -174 433 -242 q 467 -98 433 -126 q 558 -69 500 -69 q 650 -98 617 -69 q 683 -174 683 -126 q 677 -220 683 -193 q 649 -285 671 -247 l 594 -375 l 457 -375 z "},"Ṅ":{"ha":1117,"x_min":79,"x_max":1038,"o":"m 79 0 l 79 972 l 349 972 l 718 531 l 718 972 l 1038 972 l 1038 0 l 768 0 l 399 442 l 399 0 l 79 0 m 558 1038 q 444 1082 489 1038 q 400 1196 400 1126 q 444 1310 400 1265 q 558 1354 489 1354 q 672 1310 628 1354 q 717 1196 717 1265 q 672 1082 717 1126 q 558 1038 628 1038 z "},"Ṇ":{"ha":1117,"x_min":79,"x_max":1038,"o":"m 79 0 l 79 972 l 349 972 l 718 531 l 718 972 l 1038 972 l 1038 0 l 768 0 l 399 442 l 399 0 l 79 0 m 558 -365 q 444 -321 489 -365 q 400 -207 400 -276 q 444 -93 400 -137 q 558 -49 489 -49 q 672 -93 628 -49 q 717 -207 717 -137 q 672 -321 717 -276 q 558 -365 628 -365 z "},"Ǹ":{"ha":1117,"x_min":79,"x_max":1038,"o":"m 79 0 l 79 972 l 349 972 l 718 531 l 718 972 l 1038 972 l 1038 0 l 768 0 l 399 442 l 399 0 l 79 0 m 496 1051 l 222 1274 l 521 1274 l 704 1051 l 496 1051 z "},"Ɲ":{"ha":1114,"x_min":-103,"x_max":1043,"o":"m -103 -250 l -29 -35 q 56 -36 21 -53 q 90 31 90 -19 l 90 972 l 408 972 l 408 868 q 524 962 456 929 q 681 994 592 994 q 948 883 853 994 q 1043 563 1043 771 l 1043 0 l 715 0 l 715 553 q 676 687 715 644 q 571 729 636 729 q 463 684 507 729 q 418 542 418 639 l 418 31 q 370 -151 418 -79 q 244 -256 322 -222 q 74 -287 165 -289 q -103 -250 -17 -285 z "},"ǋ":{"ha":1608,"x_min":79,"x_max":1571,"o":"m 79 0 l 79 972 l 349 972 l 718 531 l 718 972 l 1038 972 l 1038 0 l 768 0 l 399 442 l 399 0 l 79 0 m 1207 -283 q 1101 -274 1151 -283 q 1014 -246 1050 -264 l 1089 -28 q 1160 -46 1122 -46 q 1206 -25 1188 -46 q 1225 42 1225 -4 l 1225 760 l 1539 760 l 1539 39 q 1451 -196 1539 -108 q 1207 -283 1364 -283 m 1382 821 q 1244 867 1296 821 q 1193 981 1193 913 q 1244 1094 1193 1049 q 1382 1140 1296 1140 q 1519 1097 1468 1140 q 1571 986 1571 1054 q 1519 867 1571 914 q 1382 821 1468 821 z "},"Ṉ":{"ha":1117,"x_min":79,"x_max":1038,"o":"m 79 0 l 79 972 l 349 972 l 718 531 l 718 972 l 1038 972 l 1038 0 l 768 0 l 399 442 l 399 0 l 79 0 m 267 -268 l 267 -104 l 850 -104 l 850 -268 l 267 -268 z "},"Ƞ":{"ha":1119,"x_min":92,"x_max":1044,"o":"m 717 -269 l 717 553 q 677 687 717 644 q 572 729 638 729 q 464 684 508 729 q 419 542 419 639 l 419 0 l 92 0 l 92 972 l 410 972 l 410 868 q 525 962 457 929 q 682 994 593 994 q 949 883 854 994 q 1044 563 1044 771 l 1044 -269 l 717 -269 z "},"Ñ":{"ha":1117,"x_min":79,"x_max":1038,"o":"m 79 0 l 79 972 l 349 972 l 718 531 l 718 972 l 1038 972 l 1038 0 l 768 0 l 399 442 l 399 0 l 79 0 m 671 1038 q 583 1058 619 1038 q 518 1099 546 1079 q 465 1119 490 1119 q 422 1101 439 1119 q 403 1051 406 1083 l 254 1051 q 307 1226 257 1161 q 446 1292 357 1292 q 534 1272 497 1292 q 599 1231 571 1251 q 651 1210 626 1210 q 696 1227 679 1210 q 714 1274 713 1244 l 863 1274 q 810 1103 861 1168 q 671 1038 760 1038 z "},"Ŋ":{"ha":1117,"x_min":79,"x_max":1038,"o":"m 79 0 l 79 972 l 349 972 l 718 531 l 718 972 l 1038 972 l 1038 117 q 1004 -74 1038 3 q 915 -198 971 -151 q 791 -265 860 -244 q 650 -285 722 -285 q 494 -264 569 -285 q 371 -208 419 -243 l 517 7 q 617 -29 568 -29 q 681 -6 654 -29 q 715 63 708 17 l 399 442 l 399 0 l 79 0 z "},"O":{"ha":1178,"x_min":40,"x_max":1138,"o":"m 589 -22 q 370 15 471 -22 q 196 122 269 53 q 81 283 122 190 q 40 486 40 376 q 81 690 40 597 q 196 851 122 782 q 370 957 269 919 q 589 994 471 994 q 808 957 708 994 q 982 851 908 919 q 1097 690 1056 782 q 1138 486 1138 597 q 1097 283 1138 376 q 982 122 1056 190 q 808 15 908 53 q 589 -22 708 -22 m 589 243 q 699 272 650 243 q 778 356 749 301 q 807 486 807 411 q 778 617 807 563 q 699 700 749 671 q 589 729 650 729 q 479 700 529 729 q 400 617 429 671 q 371 486 371 563 q 400 356 371 411 q 479 272 429 301 q 589 243 529 243 z "},"Ȣ":{"ha":1075,"x_min":28,"x_max":1047,"o":"m 538 -15 q 269 25 383 -15 q 91 141 154 65 q 28 319 28 217 q 65 463 28 399 q 172 571 103 526 q 96 665 122 610 q 69 788 69 719 l 69 972 l 392 972 l 392 789 q 431 702 392 732 q 538 672 469 672 q 644 702 606 672 q 683 789 683 732 l 683 972 l 1006 972 l 1006 788 q 979 665 1006 719 q 903 571 953 610 q 1010 463 972 526 q 1047 319 1047 399 q 984 141 1047 217 q 807 25 921 65 q 538 -15 693 -15 m 538 214 q 681 248 629 214 q 732 342 732 282 q 681 432 732 400 q 538 464 629 464 q 394 432 446 464 q 343 342 343 400 q 394 248 343 282 q 538 214 446 214 z "},"Ó":{"ha":1178,"x_min":40,"x_max":1138,"o":"m 589 -22 q 370 15 471 -22 q 196 122 269 53 q 81 283 122 190 q 40 486 40 376 q 81 690 40 597 q 196 851 122 782 q 370 957 269 919 q 589 994 471 994 q 808 957 708 994 q 982 851 908 919 q 1097 690 1056 782 q 1138 486 1138 597 q 1097 283 1138 376 q 982 122 1056 190 q 808 15 908 53 q 589 -22 708 -22 m 589 243 q 699 272 650 243 q 778 356 749 301 q 807 486 807 411 q 778 617 807 563 q 699 700 749 671 q 589 729 650 729 q 479 700 529 729 q 400 617 429 671 q 371 486 371 563 q 400 356 371 411 q 479 272 429 301 q 589 243 529 243 m 443 1051 l 626 1274 l 925 1274 l 651 1051 l 443 1051 z "},"Ŏ":{"ha":1178,"x_min":40,"x_max":1138,"o":"m 589 -22 q 370 15 471 -22 q 196 122 269 53 q 81 283 122 190 q 40 486 40 376 q 81 690 40 597 q 196 851 122 782 q 370 957 269 919 q 589 994 471 994 q 808 957 708 994 q 982 851 908 919 q 1097 690 1056 782 q 1138 486 1138 597 q 1097 283 1138 376 q 982 122 1056 190 q 808 15 908 53 q 589 -22 708 -22 m 589 243 q 699 272 650 243 q 778 356 749 301 q 807 486 807 411 q 778 617 807 563 q 699 700 749 671 q 589 729 650 729 q 479 700 529 729 q 400 617 429 671 q 371 486 371 563 q 400 356 371 411 q 479 272 429 301 q 589 243 529 243 m 589 1051 q 384 1115 464 1051 q 299 1288 304 1178 l 486 1288 q 517 1226 489 1249 q 589 1203 546 1203 q 660 1226 632 1203 q 692 1288 689 1249 l 879 1288 q 794 1115 874 1178 q 589 1051 714 1051 z "},"Ǒ":{"ha":1178,"x_min":40,"x_max":1138,"o":"m 589 -22 q 370 15 471 -22 q 196 122 269 53 q 81 283 122 190 q 40 486 40 376 q 81 690 40 597 q 196 851 122 782 q 370 957 269 919 q 589 994 471 994 q 808 957 708 994 q 982 851 908 919 q 1097 690 1056 782 q 1138 486 1138 597 q 1097 283 1138 376 q 982 122 1056 190 q 808 15 908 53 q 589 -22 708 -22 m 589 243 q 699 272 650 243 q 778 356 749 301 q 807 486 807 411 q 778 617 807 563 q 699 700 749 671 q 589 729 650 729 q 479 700 529 729 q 400 617 429 671 q 371 486 371 563 q 400 356 371 411 q 479 272 429 301 q 589 243 529 243 m 456 1051 l 278 1274 l 472 1274 l 589 1167 l 706 1274 l 900 1274 l 722 1051 l 456 1051 z "},"Ɵ":{"ha":1161,"x_min":32,"x_max":1129,"o":"m 581 -22 q 362 15 463 -22 q 188 122 261 53 q 73 283 114 190 q 32 486 32 376 q 73 690 32 597 q 188 851 114 782 q 362 957 261 919 q 581 994 463 994 q 800 957 700 994 q 974 851 900 919 q 1088 690 1047 782 q 1129 486 1129 597 q 1088 283 1129 376 q 974 122 1047 190 q 800 15 900 53 q 581 -22 700 -22 m 581 243 q 706 283 650 243 q 788 399 761 322 l 375 399 q 456 283 401 322 q 581 243 511 243 m 379 588 l 782 588 q 706 691 761 653 q 581 729 650 729 q 456 691 511 729 q 379 588 400 653 z "},"Ô":{"ha":1178,"x_min":40,"x_max":1138,"o":"m 589 -22 q 370 15 471 -22 q 196 122 269 53 q 81 283 122 190 q 40 486 40 376 q 81 690 40 597 q 196 851 122 782 q 370 957 269 919 q 589 994 471 994 q 808 957 708 994 q 982 851 908 919 q 1097 690 1056 782 q 1138 486 1138 597 q 1097 283 1138 376 q 982 122 1056 190 q 808 15 908 53 q 589 -22 708 -22 m 589 243 q 699 272 650 243 q 778 356 749 301 q 807 486 807 411 q 778 617 807 563 q 699 700 749 671 q 589 729 650 729 q 479 700 529 729 q 400 617 429 671 q 371 486 371 563 q 400 356 371 411 q 479 272 429 301 q 589 243 529 243 m 278 1051 l 456 1274 l 722 1274 l 900 1051 l 706 1051 l 589 1158 l 472 1051 l 278 1051 z "},"Ố":{"ha":1178,"x_min":40,"x_max":1231,"o":"m 589 -22 q 370 15 471 -22 q 196 122 269 53 q 81 283 122 190 q 40 486 40 376 q 81 690 40 597 q 196 851 122 782 q 370 957 269 919 q 589 994 471 994 q 808 957 708 994 q 982 851 908 919 q 1097 690 1056 782 q 1138 486 1138 597 q 1097 283 1138 376 q 982 122 1056 190 q 808 15 908 53 q 589 -22 708 -22 m 589 243 q 699 272 650 243 q 778 356 749 301 q 807 486 807 411 q 778 617 807 563 q 699 700 749 671 q 589 729 650 729 q 479 700 529 729 q 400 617 429 671 q 371 486 371 563 q 400 356 371 411 q 479 272 429 301 q 589 243 529 243 m 278 1051 l 457 1232 l 721 1232 l 900 1051 l 706 1051 l 589 1136 l 472 1051 l 278 1051 m 790 1197 l 932 1378 l 1231 1378 l 999 1197 l 790 1197 z "},"Ộ":{"ha":1178,"x_min":40,"x_max":1138,"o":"m 589 -22 q 370 15 471 -22 q 196 122 269 53 q 81 283 122 190 q 40 486 40 376 q 81 690 40 597 q 196 851 122 782 q 370 957 269 919 q 589 994 471 994 q 808 957 708 994 q 982 851 908 919 q 1097 690 1056 782 q 1138 486 1138 597 q 1097 283 1138 376 q 982 122 1056 190 q 808 15 908 53 q 589 -22 708 -22 m 589 243 q 699 272 650 243 q 778 356 749 301 q 807 486 807 411 q 778 617 807 563 q 699 700 749 671 q 589 729 650 729 q 479 700 529 729 q 400 617 429 671 q 371 486 371 563 q 400 356 371 411 q 479 272 429 301 q 589 243 529 243 m 589 -365 q 475 -321 519 -365 q 431 -207 431 -276 q 475 -93 431 -137 q 589 -49 519 -49 q 703 -93 658 -49 q 747 -207 747 -137 q 703 -321 747 -276 q 589 -365 658 -365 m 278 1051 l 456 1274 l 722 1274 l 900 1051 l 706 1051 l 589 1158 l 472 1051 l 278 1051 z "},"Ồ":{"ha":1178,"x_min":40,"x_max":1138,"o":"m 589 -22 q 370 15 471 -22 q 196 122 269 53 q 81 283 122 190 q 40 486 40 376 q 81 690 40 597 q 196 851 122 782 q 370 957 269 919 q 589 994 471 994 q 808 957 708 994 q 982 851 908 919 q 1097 690 1056 782 q 1138 486 1138 597 q 1097 283 1138 376 q 982 122 1056 190 q 808 15 908 53 q 589 -22 708 -22 m 589 243 q 699 272 650 243 q 778 356 749 301 q 807 486 807 411 q 778 617 807 563 q 699 700 749 671 q 589 729 650 729 q 479 700 529 729 q 400 617 429 671 q 371 486 371 563 q 400 356 371 411 q 479 272 429 301 q 589 243 529 243 m 278 1051 l 457 1232 l 721 1232 l 900 1051 l 706 1051 l 589 1136 l 472 1051 l 278 1051 m 874 1197 l 642 1378 l 940 1378 l 1082 1197 l 874 1197 z "},"Ổ":{"ha":1178,"x_min":40,"x_max":1138,"o":"m 589 -22 q 370 15 471 -22 q 196 122 269 53 q 81 283 122 190 q 40 486 40 376 q 81 690 40 597 q 196 851 122 782 q 370 957 269 919 q 589 994 471 994 q 808 957 708 994 q 982 851 908 919 q 1097 690 1056 782 q 1138 486 1138 597 q 1097 283 1138 376 q 982 122 1056 190 q 808 15 908 53 q 589 -22 708 -22 m 589 243 q 699 272 650 243 q 778 356 749 301 q 807 486 807 411 q 778 617 807 563 q 699 700 749 671 q 589 729 650 729 q 479 700 529 729 q 400 617 429 671 q 371 486 371 563 q 400 356 371 411 q 479 272 429 301 q 589 243 529 243 m 278 1051 l 457 1232 l 721 1232 l 900 1051 l 706 1051 l 589 1136 l 472 1051 l 278 1051 m 888 1169 l 815 1232 q 853 1260 843 1247 q 863 1283 863 1274 q 851 1308 863 1299 q 822 1318 840 1318 q 758 1301 792 1318 l 711 1386 q 774 1413 739 1404 q 849 1421 810 1421 q 956 1388 915 1421 q 997 1299 997 1356 q 965 1219 997 1253 q 888 1169 932 1186 z "},"Ỗ":{"ha":1178,"x_min":40,"x_max":1138,"o":"m 589 -22 q 370 15 471 -22 q 196 122 269 53 q 81 283 122 190 q 40 486 40 376 q 81 690 40 597 q 196 851 122 782 q 370 957 269 919 q 589 994 471 994 q 808 957 708 994 q 982 851 908 919 q 1097 690 1056 782 q 1138 486 1138 597 q 1097 283 1138 376 q 982 122 1056 190 q 808 15 908 53 q 589 -22 708 -22 m 589 243 q 699 272 650 243 q 778 356 749 301 q 807 486 807 411 q 778 617 807 563 q 699 700 749 671 q 589 729 650 729 q 479 700 529 729 q 400 617 429 671 q 371 486 371 563 q 400 356 371 411 q 479 272 429 301 q 589 243 529 243 m 278 1051 l 457 1232 l 721 1232 l 900 1051 l 706 1051 l 589 1136 l 472 1051 l 278 1051 m 701 1292 q 629 1303 658 1292 q 580 1328 600 1314 q 542 1353 560 1342 q 503 1364 524 1364 q 463 1347 479 1364 q 444 1304 447 1331 l 292 1304 q 342 1451 292 1399 q 478 1504 393 1504 q 568 1486 533 1504 q 628 1450 603 1468 q 679 1432 653 1432 q 720 1450 704 1432 q 738 1492 736 1468 l 886 1492 q 837 1344 886 1396 q 701 1292 788 1292 z "},"Ȍ":{"ha":1178,"x_min":40,"x_max":1138,"o":"m 589 -22 q 370 15 471 -22 q 196 122 269 53 q 81 283 122 190 q 40 486 40 376 q 81 690 40 597 q 196 851 122 782 q 370 957 269 919 q 589 994 471 994 q 808 957 708 994 q 982 851 908 919 q 1097 690 1056 782 q 1138 486 1138 597 q 1097 283 1138 376 q 982 122 1056 190 q 808 15 908 53 q 589 -22 708 -22 m 589 243 q 699 272 650 243 q 778 356 749 301 q 807 486 807 411 q 778 617 807 563 q 699 700 749 671 q 589 729 650 729 q 479 700 529 729 q 400 617 429 671 q 371 486 371 563 q 400 356 371 411 q 479 272 429 301 q 589 243 529 243 m 322 1051 l 188 1274 l 458 1274 l 531 1051 l 322 1051 m 647 1051 l 513 1274 l 783 1274 l 856 1051 l 647 1051 z "},"Ö":{"ha":1178,"x_min":40,"x_max":1138,"o":"m 589 -22 q 370 15 471 -22 q 196 122 269 53 q 81 283 122 190 q 40 486 40 376 q 81 690 40 597 q 196 851 122 782 q 370 957 269 919 q 589 994 471 994 q 808 957 708 994 q 982 851 908 919 q 1097 690 1056 782 q 1138 486 1138 597 q 1097 283 1138 376 q 982 122 1056 190 q 808 15 908 53 q 589 -22 708 -22 m 589 243 q 699 272 650 243 q 778 356 749 301 q 807 486 807 411 q 778 617 807 563 q 699 700 749 671 q 589 729 650 729 q 479 700 529 729 q 400 617 429 671 q 371 486 371 563 q 400 356 371 411 q 479 272 429 301 q 589 243 529 243 m 435 1040 q 346 1074 382 1040 q 310 1163 310 1107 q 346 1252 310 1218 q 435 1286 382 1286 q 524 1252 488 1286 q 560 1163 560 1218 q 524 1074 560 1107 q 435 1040 488 1040 m 743 1040 q 654 1074 690 1040 q 618 1163 618 1107 q 654 1252 618 1218 q 743 1286 690 1286 q 832 1252 796 1286 q 868 1163 868 1218 q 832 1074 868 1107 q 743 1040 796 1040 z "},"Ȫ":{"ha":1178,"x_min":40,"x_max":1138,"o":"m 589 -22 q 370 15 471 -22 q 196 122 269 53 q 81 283 122 190 q 40 486 40 376 q 81 690 40 597 q 196 851 122 782 q 370 957 269 919 q 589 994 471 994 q 808 957 708 994 q 982 851 908 919 q 1097 690 1056 782 q 1138 486 1138 597 q 1097 283 1138 376 q 982 122 1056 190 q 808 15 908 53 q 589 -22 708 -22 m 589 243 q 699 272 650 243 q 778 356 749 301 q 807 486 807 411 q 778 617 807 563 q 699 700 749 671 q 589 729 650 729 q 479 700 529 729 q 400 617 429 671 q 371 486 371 563 q 400 356 371 411 q 479 272 429 301 q 589 243 529 243 m 442 1040 q 358 1072 392 1040 q 324 1156 324 1104 q 358 1240 324 1208 q 442 1272 392 1272 q 526 1240 492 1272 q 560 1156 560 1208 q 526 1072 560 1104 q 442 1040 492 1040 m 736 1040 q 652 1072 686 1040 q 618 1156 618 1104 q 652 1240 618 1208 q 736 1272 686 1272 q 820 1240 786 1272 q 854 1156 854 1208 q 820 1072 854 1104 q 736 1040 786 1040 m 297 1338 l 297 1493 l 881 1493 l 881 1338 l 297 1338 z "},"Ȯ":{"ha":1178,"x_min":40,"x_max":1138,"o":"m 589 -22 q 370 15 471 -22 q 196 122 269 53 q 81 283 122 190 q 40 486 40 376 q 81 690 40 597 q 196 851 122 782 q 370 957 269 919 q 589 994 471 994 q 808 957 708 994 q 982 851 908 919 q 1097 690 1056 782 q 1138 486 1138 597 q 1097 283 1138 376 q 982 122 1056 190 q 808 15 908 53 q 589 -22 708 -22 m 589 243 q 699 272 650 243 q 778 356 749 301 q 807 486 807 411 q 778 617 807 563 q 699 700 749 671 q 589 729 650 729 q 479 700 529 729 q 400 617 429 671 q 371 486 371 563 q 400 356 371 411 q 479 272 429 301 q 589 243 529 243 m 589 1038 q 475 1082 519 1038 q 431 1196 431 1126 q 475 1310 431 1265 q 589 1354 519 1354 q 703 1310 658 1354 q 747 1196 747 1265 q 703 1082 747 1126 q 589 1038 658 1038 z "},"Ȱ":{"ha":1178,"x_min":40,"x_max":1138,"o":"m 589 -22 q 370 15 471 -22 q 196 122 269 53 q 81 283 122 190 q 40 486 40 376 q 81 690 40 597 q 196 851 122 782 q 370 957 269 919 q 589 994 471 994 q 808 957 708 994 q 982 851 908 919 q 1097 690 1056 782 q 1138 486 1138 597 q 1097 283 1138 376 q 982 122 1056 190 q 808 15 908 53 q 589 -22 708 -22 m 589 243 q 699 272 650 243 q 778 356 749 301 q 807 486 807 411 q 778 617 807 563 q 699 700 749 671 q 589 729 650 729 q 479 700 529 729 q 400 617 429 671 q 371 486 371 563 q 400 356 371 411 q 479 272 429 301 q 589 243 529 243 m 589 1038 q 500 1070 536 1038 q 464 1158 464 1103 q 500 1248 464 1214 q 589 1282 536 1282 q 678 1248 642 1282 q 714 1158 714 1214 q 678 1070 714 1103 q 589 1038 642 1038 m 297 1338 l 297 1493 l 881 1493 l 881 1338 l 297 1338 z "},"Ọ":{"ha":1178,"x_min":40,"x_max":1138,"o":"m 589 -22 q 370 15 471 -22 q 196 122 269 53 q 81 283 122 190 q 40 486 40 376 q 81 690 40 597 q 196 851 122 782 q 370 957 269 919 q 589 994 471 994 q 808 957 708 994 q 982 851 908 919 q 1097 690 1056 782 q 1138 486 1138 597 q 1097 283 1138 376 q 982 122 1056 190 q 808 15 908 53 q 589 -22 708 -22 m 589 243 q 699 272 650 243 q 778 356 749 301 q 807 486 807 411 q 778 617 807 563 q 699 700 749 671 q 589 729 650 729 q 479 700 529 729 q 400 617 429 671 q 371 486 371 563 q 400 356 371 411 q 479 272 429 301 q 589 243 529 243 m 589 -365 q 475 -321 519 -365 q 431 -207 431 -276 q 475 -93 431 -137 q 589 -49 519 -49 q 703 -93 658 -49 q 747 -207 747 -137 q 703 -321 747 -276 q 589 -365 658 -365 z "},"Ò":{"ha":1178,"x_min":40,"x_max":1138,"o":"m 589 -22 q 370 15 471 -22 q 196 122 269 53 q 81 283 122 190 q 40 486 40 376 q 81 690 40 597 q 196 851 122 782 q 370 957 269 919 q 589 994 471 994 q 808 957 708 994 q 982 851 908 919 q 1097 690 1056 782 q 1138 486 1138 597 q 1097 283 1138 376 q 982 122 1056 190 q 808 15 908 53 q 589 -22 708 -22 m 589 243 q 699 272 650 243 q 778 356 749 301 q 807 486 807 411 q 778 617 807 563 q 699 700 749 671 q 589 729 650 729 q 479 700 529 729 q 400 617 429 671 q 371 486 371 563 q 400 356 371 411 q 479 272 429 301 q 589 243 529 243 m 526 1051 l 253 1274 l 551 1274 l 735 1051 l 526 1051 z "},"Ỏ":{"ha":1178,"x_min":40,"x_max":1138,"o":"m 589 -22 q 370 15 471 -22 q 196 122 269 53 q 81 283 122 190 q 40 486 40 376 q 81 690 40 597 q 196 851 122 782 q 370 957 269 919 q 589 994 471 994 q 808 957 708 994 q 982 851 908 919 q 1097 690 1056 782 q 1138 486 1138 597 q 1097 283 1138 376 q 982 122 1056 190 q 808 15 908 53 q 589 -22 708 -22 m 589 243 q 699 272 650 243 q 778 356 749 301 q 807 486 807 411 q 778 617 807 563 q 699 700 749 671 q 589 729 650 729 q 479 700 529 729 q 400 617 429 671 q 371 486 371 563 q 400 356 371 411 q 479 272 429 301 q 589 243 529 243 m 593 1007 l 499 1097 q 551 1135 539 1117 q 563 1172 563 1154 q 547 1211 563 1197 q 504 1225 531 1225 q 425 1197 465 1225 l 361 1314 q 456 1360 410 1346 q 544 1375 503 1375 q 650 1350 604 1375 q 722 1284 696 1325 q 747 1196 747 1243 q 711 1094 747 1144 q 593 1007 675 1043 z "},"Ơ":{"ha":1178,"x_min":40,"x_max":1139,"o":"m 589 -22 q 370 15 471 -22 q 196 122 269 53 q 81 283 122 190 q 40 486 40 376 q 81 690 40 597 q 197 851 122 782 q 376 957 272 919 q 603 994 479 994 q 739 985 676 994 q 844 976 801 976 q 912 997 886 976 q 938 1057 938 1018 q 910 1136 938 1104 l 1088 1199 q 1125 1130 1111 1168 q 1139 1044 1139 1092 q 1101 909 1139 964 q 999 826 1064 854 q 1100 677 1063 764 q 1138 486 1138 590 q 1097 283 1138 376 q 982 122 1056 190 q 808 15 908 53 q 589 -22 708 -22 m 589 243 q 699 272 650 243 q 778 356 749 301 q 807 486 807 411 q 778 617 807 563 q 699 700 749 671 q 589 729 650 729 q 479 700 529 729 q 400 617 429 671 q 371 486 371 563 q 400 356 371 411 q 479 272 429 301 q 589 243 529 243 z "},"Ớ":{"ha":1178,"x_min":40,"x_max":1139,"o":"m 589 -22 q 370 15 471 -22 q 196 122 269 53 q 81 283 122 190 q 40 486 40 376 q 81 690 40 597 q 197 851 122 782 q 376 957 272 919 q 603 994 479 994 q 739 985 676 994 q 844 976 801 976 q 912 997 886 976 q 938 1057 938 1018 q 910 1136 938 1104 l 1088 1199 q 1125 1130 1111 1168 q 1139 1044 1139 1092 q 1101 909 1139 964 q 999 826 1064 854 q 1100 677 1063 764 q 1138 486 1138 590 q 1097 283 1138 376 q 982 122 1056 190 q 808 15 908 53 q 589 -22 708 -22 m 589 243 q 699 272 650 243 q 778 356 749 301 q 807 486 807 411 q 778 617 807 563 q 699 700 749 671 q 589 729 650 729 q 479 700 529 729 q 400 617 429 671 q 371 486 371 563 q 400 356 371 411 q 479 272 429 301 q 589 243 529 243 m 443 1051 l 626 1274 l 925 1274 l 651 1051 l 443 1051 z "},"Ợ":{"ha":1178,"x_min":40,"x_max":1139,"o":"m 589 -22 q 370 15 471 -22 q 196 122 269 53 q 81 283 122 190 q 40 486 40 376 q 81 690 40 597 q 197 851 122 782 q 376 957 272 919 q 603 994 479 994 q 739 985 676 994 q 844 976 801 976 q 912 997 886 976 q 938 1057 938 1018 q 910 1136 938 1104 l 1088 1199 q 1125 1130 1111 1168 q 1139 1044 1139 1092 q 1101 909 1139 964 q 999 826 1064 854 q 1100 677 1063 764 q 1138 486 1138 590 q 1097 283 1138 376 q 982 122 1056 190 q 808 15 908 53 q 589 -22 708 -22 m 589 243 q 699 272 650 243 q 778 356 749 301 q 807 486 807 411 q 778 617 807 563 q 699 700 749 671 q 589 729 650 729 q 479 700 529 729 q 400 617 429 671 q 371 486 371 563 q 400 356 371 411 q 479 272 429 301 q 589 243 529 243 m 589 -365 q 475 -321 519 -365 q 431 -207 431 -276 q 475 -93 431 -137 q 589 -49 519 -49 q 703 -93 658 -49 q 747 -207 747 -137 q 703 -321 747 -276 q 589 -365 658 -365 z "},"Ờ":{"ha":1178,"x_min":40,"x_max":1139,"o":"m 589 -22 q 370 15 471 -22 q 196 122 269 53 q 81 283 122 190 q 40 486 40 376 q 81 690 40 597 q 197 851 122 782 q 376 957 272 919 q 603 994 479 994 q 739 985 676 994 q 844 976 801 976 q 912 997 886 976 q 938 1057 938 1018 q 910 1136 938 1104 l 1088 1199 q 1125 1130 1111 1168 q 1139 1044 1139 1092 q 1101 909 1139 964 q 999 826 1064 854 q 1100 677 1063 764 q 1138 486 1138 590 q 1097 283 1138 376 q 982 122 1056 190 q 808 15 908 53 q 589 -22 708 -22 m 589 243 q 699 272 650 243 q 778 356 749 301 q 807 486 807 411 q 778 617 807 563 q 699 700 749 671 q 589 729 650 729 q 479 700 529 729 q 400 617 429 671 q 371 486 371 563 q 400 356 371 411 q 479 272 429 301 q 589 243 529 243 m 526 1051 l 253 1274 l 551 1274 l 735 1051 l 526 1051 z "},"Ở":{"ha":1178,"x_min":40,"x_max":1139,"o":"m 589 -22 q 370 15 471 -22 q 196 122 269 53 q 81 283 122 190 q 40 486 40 376 q 81 690 40 597 q 197 851 122 782 q 376 957 272 919 q 603 994 479 994 q 739 985 676 994 q 844 976 801 976 q 912 997 886 976 q 938 1057 938 1018 q 910 1136 938 1104 l 1088 1199 q 1125 1130 1111 1168 q 1139 1044 1139 1092 q 1101 909 1139 964 q 999 826 1064 854 q 1100 677 1063 764 q 1138 486 1138 590 q 1097 283 1138 376 q 982 122 1056 190 q 808 15 908 53 q 589 -22 708 -22 m 589 243 q 699 272 650 243 q 778 356 749 301 q 807 486 807 411 q 778 617 807 563 q 699 700 749 671 q 589 729 650 729 q 479 700 529 729 q 400 617 429 671 q 371 486 371 563 q 400 356 371 411 q 479 272 429 301 q 589 243 529 243 m 593 1007 l 499 1097 q 551 1135 539 1117 q 563 1172 563 1154 q 547 1211 563 1197 q 504 1225 531 1225 q 425 1197 465 1225 l 361 1314 q 456 1360 410 1346 q 544 1375 503 1375 q 650 1350 604 1375 q 722 1284 696 1325 q 747 1196 747 1243 q 711 1094 747 1144 q 593 1007 675 1043 z "},"Ỡ":{"ha":1178,"x_min":40,"x_max":1139,"o":"m 589 -22 q 370 15 471 -22 q 196 122 269 53 q 81 283 122 190 q 40 486 40 376 q 81 690 40 597 q 197 851 122 782 q 376 957 272 919 q 603 994 479 994 q 739 985 676 994 q 844 976 801 976 q 912 997 886 976 q 938 1057 938 1018 q 910 1136 938 1104 l 1088 1199 q 1125 1130 1111 1168 q 1139 1044 1139 1092 q 1101 909 1139 964 q 999 826 1064 854 q 1100 677 1063 764 q 1138 486 1138 590 q 1097 283 1138 376 q 982 122 1056 190 q 808 15 908 53 q 589 -22 708 -22 m 589 243 q 699 272 650 243 q 778 356 749 301 q 807 486 807 411 q 778 617 807 563 q 699 700 749 671 q 589 729 650 729 q 479 700 529 729 q 400 617 429 671 q 371 486 371 563 q 400 356 371 411 q 479 272 429 301 q 589 243 529 243 m 701 1038 q 613 1058 650 1038 q 549 1099 576 1079 q 496 1119 521 1119 q 453 1101 469 1119 q 433 1051 436 1083 l 285 1051 q 338 1226 288 1161 q 476 1292 388 1292 q 565 1272 528 1292 q 629 1231 601 1251 q 682 1210 657 1210 q 726 1227 710 1210 q 744 1274 743 1244 l 893 1274 q 841 1103 892 1168 q 701 1038 790 1038 z "},"Ő":{"ha":1178,"x_min":40,"x_max":1138,"o":"m 589 -22 q 370 15 471 -22 q 196 122 269 53 q 81 283 122 190 q 40 486 40 376 q 81 690 40 597 q 196 851 122 782 q 370 957 269 919 q 589 994 471 994 q 808 957 708 994 q 982 851 908 919 q 1097 690 1056 782 q 1138 486 1138 597 q 1097 283 1138 376 q 982 122 1056 190 q 808 15 908 53 q 589 -22 708 -22 m 589 243 q 699 272 650 243 q 778 356 749 301 q 807 486 807 411 q 778 617 807 563 q 699 700 749 671 q 589 729 650 729 q 479 700 529 729 q 400 617 429 671 q 371 486 371 563 q 400 356 371 411 q 479 272 429 301 q 589 243 529 243 m 322 1051 l 394 1274 l 665 1274 l 531 1051 l 322 1051 m 647 1051 l 719 1274 l 990 1274 l 856 1051 l 647 1051 z "},"Ȏ":{"ha":1178,"x_min":40,"x_max":1138,"o":"m 589 -22 q 370 15 471 -22 q 196 122 269 53 q 81 283 122 190 q 40 486 40 376 q 81 690 40 597 q 196 851 122 782 q 370 957 269 919 q 589 994 471 994 q 808 957 708 994 q 982 851 908 919 q 1097 690 1056 782 q 1138 486 1138 597 q 1097 283 1138 376 q 982 122 1056 190 q 808 15 908 53 q 589 -22 708 -22 m 589 243 q 699 272 650 243 q 778 356 749 301 q 807 486 807 411 q 778 617 807 563 q 699 700 749 671 q 589 729 650 729 q 479 700 529 729 q 400 617 429 671 q 371 486 371 563 q 400 356 371 411 q 479 272 429 301 q 589 243 529 243 m 299 1051 q 384 1224 304 1161 q 589 1288 464 1288 q 794 1224 714 1288 q 879 1051 874 1161 l 692 1051 q 660 1113 689 1090 q 589 1136 632 1136 q 517 1113 546 1136 q 486 1051 489 1090 l 299 1051 z "},"Ō":{"ha":1178,"x_min":40,"x_max":1138,"o":"m 589 -22 q 370 15 471 -22 q 196 122 269 53 q 81 283 122 190 q 40 486 40 376 q 81 690 40 597 q 196 851 122 782 q 370 957 269 919 q 589 994 471 994 q 808 957 708 994 q 982 851 908 919 q 1097 690 1056 782 q 1138 486 1138 597 q 1097 283 1138 376 q 982 122 1056 190 q 808 15 908 53 q 589 -22 708 -22 m 589 243 q 699 272 650 243 q 778 356 749 301 q 807 486 807 411 q 778 617 807 563 q 699 700 749 671 q 589 729 650 729 q 479 700 529 729 q 400 617 429 671 q 371 486 371 563 q 400 356 371 411 q 479 272 429 301 q 589 243 529 243 m 297 1081 l 297 1244 l 881 1244 l 881 1081 l 297 1081 z "},"Ṓ":{"ha":1178,"x_min":40,"x_max":1138,"o":"m 589 -22 q 370 15 471 -22 q 196 122 269 53 q 81 283 122 190 q 40 486 40 376 q 81 690 40 597 q 196 851 122 782 q 370 957 269 919 q 589 994 471 994 q 808 957 708 994 q 982 851 908 919 q 1097 690 1056 782 q 1138 486 1138 597 q 1097 283 1138 376 q 982 122 1056 190 q 808 15 908 53 q 589 -22 708 -22 m 589 243 q 699 272 650 243 q 778 356 749 301 q 807 486 807 411 q 778 617 807 563 q 699 700 749 671 q 589 729 650 729 q 479 700 529 729 q 400 617 429 671 q 371 486 371 563 q 400 356 371 411 q 479 272 429 301 q 589 243 529 243 m 297 1064 l 297 1219 l 881 1219 l 881 1064 l 297 1064 m 417 1313 l 558 1493 l 857 1493 l 625 1313 l 417 1313 z "},"Ṑ":{"ha":1178,"x_min":40,"x_max":1138,"o":"m 589 -22 q 370 15 471 -22 q 196 122 269 53 q 81 283 122 190 q 40 486 40 376 q 81 690 40 597 q 196 851 122 782 q 370 957 269 919 q 589 994 471 994 q 808 957 708 994 q 982 851 908 919 q 1097 690 1056 782 q 1138 486 1138 597 q 1097 283 1138 376 q 982 122 1056 190 q 808 15 908 53 q 589 -22 708 -22 m 589 243 q 699 272 650 243 q 778 356 749 301 q 807 486 807 411 q 778 617 807 563 q 699 700 749 671 q 589 729 650 729 q 479 700 529 729 q 400 617 429 671 q 371 486 371 563 q 400 356 371 411 q 479 272 429 301 q 589 243 529 243 m 297 1064 l 297 1219 l 881 1219 l 881 1064 l 297 1064 m 554 1313 l 322 1493 l 621 1493 l 763 1313 l 554 1313 z "},"Ꞷ":{"ha":1469,"x_min":46,"x_max":1424,"o":"m 439 -21 q 257 24 332 -21 q 135 144 182 68 q 67 313 89 219 q 46 507 46 407 q 77 763 46 638 q 161 972 108 888 l 469 972 q 426 833 447 917 q 390 658 404 750 q 375 483 375 567 q 386 362 375 417 q 423 274 397 307 q 492 240 449 240 q 558 280 540 240 q 575 376 575 319 l 575 657 l 888 657 l 888 376 q 906 280 888 319 q 971 240 924 240 q 1040 274 1015 240 q 1076 362 1065 307 q 1088 483 1088 417 q 1073 658 1088 567 q 1037 833 1058 750 q 993 972 1015 917 l 1300 972 q 1364 841 1336 917 q 1408 680 1392 765 q 1424 507 1424 594 q 1401 313 1424 407 q 1331 144 1379 219 q 1207 24 1283 68 q 1024 -21 1131 -21 q 852 14 926 -21 q 731 106 778 49 q 610 14 683 49 q 439 -21 536 -21 z "},"Ǫ":{"ha":1178,"x_min":40,"x_max":1138,"o":"m 638 -333 q 476 -287 533 -333 q 418 -162 418 -240 q 490 -15 418 -79 q 257 74 358 4 q 98 249 156 143 q 40 486 40 354 q 81 690 40 597 q 196 851 122 782 q 370 957 269 919 q 589 994 471 994 q 808 957 708 994 q 982 851 908 919 q 1097 690 1056 782 q 1138 486 1138 597 q 1091 271 1138 367 q 965 108 1044 175 q 783 7 885 42 q 640 -64 678 -28 q 601 -135 601 -100 q 619 -175 601 -158 q 675 -192 636 -192 q 720 -185 699 -192 q 757 -172 742 -179 l 794 -301 q 726 -324 769 -315 q 638 -333 682 -333 m 589 243 q 699 272 650 243 q 778 356 749 301 q 807 486 807 411 q 778 617 807 563 q 699 700 749 671 q 589 729 650 729 q 479 700 529 729 q 400 617 429 671 q 371 486 371 563 q 400 356 371 411 q 479 272 429 301 q 589 243 529 243 z "},"Ǭ":{"ha":1178,"x_min":40,"x_max":1138,"o":"m 638 -333 q 476 -287 533 -333 q 418 -162 418 -240 q 490 -15 418 -79 q 257 74 358 4 q 98 249 156 143 q 40 486 40 354 q 81 690 40 597 q 196 851 122 782 q 370 957 269 919 q 589 994 471 994 q 808 957 708 994 q 982 851 908 919 q 1097 690 1056 782 q 1138 486 1138 597 q 1091 271 1138 367 q 965 108 1044 175 q 783 7 885 42 q 640 -64 678 -28 q 601 -135 601 -100 q 619 -175 601 -158 q 675 -192 636 -192 q 720 -185 699 -192 q 757 -172 742 -179 l 794 -301 q 726 -324 769 -315 q 638 -333 682 -333 m 589 243 q 699 272 650 243 q 778 356 749 301 q 807 486 807 411 q 778 617 807 563 q 699 700 749 671 q 589 729 650 729 q 479 700 529 729 q 400 617 429 671 q 371 486 371 563 q 400 356 371 411 q 479 272 429 301 q 589 243 529 243 m 297 1081 l 297 1244 l 881 1244 l 881 1081 l 297 1081 z "},"Ɔ":{"ha":1024,"x_min":6,"x_max":983,"o":"m 442 994 q 658 958 558 994 q 830 853 757 921 q 943 692 903 785 q 983 486 983 599 q 943 281 983 374 q 830 119 903 188 q 658 15 757 51 q 442 -22 558 -22 q 188 28 299 -22 q 6 172 78 79 l 213 357 q 308 273 256 303 q 425 243 360 243 q 590 309 528 243 q 653 486 653 375 q 590 663 653 597 q 425 729 528 729 q 308 699 360 729 q 213 615 256 669 l 6 800 q 188 944 78 894 q 442 994 299 994 z "},"Ø":{"ha":1178,"x_min":40,"x_max":1138,"o":"m 589 -22 q 370 15 471 -22 q 196 122 269 53 q 81 283 122 190 q 40 486 40 376 q 81 690 40 597 q 196 851 122 782 q 370 957 269 919 q 589 994 471 994 q 808 957 708 994 q 982 851 908 919 q 1097 690 1056 782 q 1138 486 1138 597 q 1097 283 1138 376 q 982 122 1056 190 q 808 15 908 53 q 589 -22 708 -22 m 589 243 q 699 272 650 243 q 778 356 749 301 q 807 486 807 411 q 778 617 807 563 q 699 700 749 671 q 589 729 650 729 q 479 700 529 729 q 400 617 429 671 q 371 486 371 563 q 400 356 371 411 q 479 272 429 301 q 589 243 529 243 m 186 -97 l 819 1069 l 993 1069 l 360 -97 l 186 -97 z "},"Ǿ":{"ha":1178,"x_min":40,"x_max":1138,"o":"m 589 -22 q 370 15 471 -22 q 196 122 269 53 q 81 283 122 190 q 40 486 40 376 q 81 690 40 597 q 196 851 122 782 q 370 957 269 919 q 589 994 471 994 q 808 957 708 994 q 982 851 908 919 q 1097 690 1056 782 q 1138 486 1138 597 q 1097 283 1138 376 q 982 122 1056 190 q 808 15 908 53 q 589 -22 708 -22 m 589 243 q 699 272 650 243 q 778 356 749 301 q 807 486 807 411 q 778 617 807 563 q 699 700 749 671 q 589 729 650 729 q 479 700 529 729 q 400 617 429 671 q 371 486 371 563 q 400 356 371 411 q 479 272 429 301 q 589 243 529 243 m 186 -97 l 819 1069 l 993 1069 l 360 -97 l 186 -97 m 443 1051 l 626 1274 l 925 1274 l 651 1051 l 443 1051 z "},"Õ":{"ha":1178,"x_min":40,"x_max":1138,"o":"m 589 -22 q 370 15 471 -22 q 196 122 269 53 q 81 283 122 190 q 40 486 40 376 q 81 690 40 597 q 196 851 122 782 q 370 957 269 919 q 589 994 471 994 q 808 957 708 994 q 982 851 908 919 q 1097 690 1056 782 q 1138 486 1138 597 q 1097 283 1138 376 q 982 122 1056 190 q 808 15 908 53 q 589 -22 708 -22 m 589 243 q 699 272 650 243 q 778 356 749 301 q 807 486 807 411 q 778 617 807 563 q 699 700 749 671 q 589 729 650 729 q 479 700 529 729 q 400 617 429 671 q 371 486 371 563 q 400 356 371 411 q 479 272 429 301 q 589 243 529 243 m 701 1038 q 613 1058 650 1038 q 549 1099 576 1079 q 496 1119 521 1119 q 453 1101 469 1119 q 433 1051 436 1083 l 285 1051 q 338 1226 288 1161 q 476 1292 388 1292 q 565 1272 528 1292 q 629 1231 601 1251 q 682 1210 657 1210 q 726 1227 710 1210 q 744 1274 743 1244 l 893 1274 q 841 1103 892 1168 q 701 1038 790 1038 z "},"Ṍ":{"ha":1178,"x_min":40,"x_max":1138,"o":"m 589 -22 q 370 15 471 -22 q 196 122 269 53 q 81 283 122 190 q 40 486 40 376 q 81 690 40 597 q 196 851 122 782 q 370 957 269 919 q 589 994 471 994 q 808 957 708 994 q 982 851 908 919 q 1097 690 1056 782 q 1138 486 1138 597 q 1097 283 1138 376 q 982 122 1056 190 q 808 15 908 53 q 589 -22 708 -22 m 589 243 q 699 272 650 243 q 778 356 749 301 q 807 486 807 411 q 778 617 807 563 q 699 700 749 671 q 589 729 650 729 q 479 700 529 729 q 400 617 429 671 q 371 486 371 563 q 400 356 371 411 q 479 272 429 301 q 589 243 529 243 m 701 1038 q 629 1049 658 1038 q 580 1074 600 1060 q 542 1099 560 1088 q 503 1110 524 1110 q 463 1093 479 1110 q 444 1050 447 1076 l 292 1050 q 342 1197 292 1144 q 478 1250 393 1250 q 568 1232 533 1250 q 628 1196 603 1214 q 679 1178 653 1178 q 720 1196 704 1178 q 738 1238 736 1214 l 886 1238 q 837 1090 886 1142 q 701 1038 788 1038 m 443 1306 l 585 1486 l 883 1486 l 651 1306 l 443 1306 z "},"Ṏ":{"ha":1178,"x_min":40,"x_max":1138,"o":"m 589 -22 q 370 15 471 -22 q 196 122 269 53 q 81 283 122 190 q 40 486 40 376 q 81 690 40 597 q 196 851 122 782 q 370 957 269 919 q 589 994 471 994 q 808 957 708 994 q 982 851 908 919 q 1097 690 1056 782 q 1138 486 1138 597 q 1097 283 1138 376 q 982 122 1056 190 q 808 15 908 53 q 589 -22 708 -22 m 589 243 q 699 272 650 243 q 778 356 749 301 q 807 486 807 411 q 778 617 807 563 q 699 700 749 671 q 589 729 650 729 q 479 700 529 729 q 400 617 429 671 q 371 486 371 563 q 400 356 371 411 q 479 272 429 301 q 589 243 529 243 m 701 1038 q 629 1049 658 1038 q 580 1074 600 1060 q 542 1099 560 1088 q 503 1110 524 1110 q 463 1093 479 1110 q 444 1050 447 1076 l 292 1050 q 342 1197 292 1144 q 478 1250 393 1250 q 568 1232 533 1250 q 628 1196 603 1214 q 679 1178 653 1178 q 720 1196 704 1178 q 738 1238 736 1214 l 886 1238 q 837 1090 886 1142 q 701 1038 788 1038 m 442 1294 q 358 1326 392 1294 q 324 1410 324 1358 q 358 1494 324 1463 q 442 1526 392 1526 q 526 1494 492 1526 q 560 1410 560 1463 q 526 1326 560 1358 q 442 1294 492 1294 m 736 1294 q 652 1326 686 1294 q 618 1410 618 1358 q 652 1494 618 1463 q 736 1526 686 1526 q 820 1494 786 1526 q 854 1410 854 1463 q 820 1326 854 1358 q 736 1294 786 1294 z "},"Ȭ":{"ha":1178,"x_min":40,"x_max":1138,"o":"m 589 -22 q 370 15 471 -22 q 196 122 269 53 q 81 283 122 190 q 40 486 40 376 q 81 690 40 597 q 196 851 122 782 q 370 957 269 919 q 589 994 471 994 q 808 957 708 994 q 982 851 908 919 q 1097 690 1056 782 q 1138 486 1138 597 q 1097 283 1138 376 q 982 122 1056 190 q 808 15 908 53 q 589 -22 708 -22 m 589 243 q 699 272 650 243 q 778 356 749 301 q 807 486 807 411 q 778 617 807 563 q 699 700 749 671 q 589 729 650 729 q 479 700 529 729 q 400 617 429 671 q 371 486 371 563 q 400 356 371 411 q 479 272 429 301 q 589 243 529 243 m 701 1038 q 629 1049 658 1038 q 580 1074 600 1060 q 542 1099 560 1088 q 503 1110 524 1110 q 463 1093 479 1110 q 444 1050 447 1076 l 292 1050 q 342 1197 292 1144 q 478 1250 393 1250 q 568 1232 533 1250 q 628 1196 603 1214 q 679 1178 653 1178 q 720 1196 704 1178 q 738 1238 736 1214 l 886 1238 q 837 1090 886 1142 q 701 1038 788 1038 m 297 1338 l 297 1493 l 881 1493 l 881 1338 l 297 1338 z "},"Œ":{"ha":1596,"x_min":40,"x_max":1549,"o":"m 589 0 q 303 59 426 0 q 110 227 179 118 q 40 486 40 336 q 110 746 40 638 q 303 913 179 854 q 589 972 426 972 l 1531 972 l 1531 725 l 1063 725 l 1063 611 l 1474 611 l 1474 375 l 1063 375 l 1063 247 l 1549 247 l 1549 0 l 589 0 m 740 256 l 740 717 l 603 717 q 435 657 500 717 q 371 486 371 597 q 435 315 371 375 q 603 256 500 256 l 740 256 z "},"P":{"ha":1032,"x_min":79,"x_max":990,"o":"m 79 0 l 79 972 l 547 972 q 783 928 683 972 q 936 801 882 883 q 990 606 990 718 q 936 411 990 493 q 783 284 882 329 q 547 239 683 239 l 407 239 l 407 0 l 79 0 m 407 492 l 526 492 q 627 522 594 492 q 660 606 660 553 q 627 689 660 658 q 526 719 594 719 l 407 719 l 407 492 z "},"Ṕ":{"ha":1032,"x_min":79,"x_max":990,"o":"m 79 0 l 79 972 l 547 972 q 783 928 683 972 q 936 801 882 883 q 990 606 990 718 q 936 411 990 493 q 783 284 882 329 q 547 239 683 239 l 407 239 l 407 0 l 79 0 m 407 492 l 526 492 q 627 522 594 492 q 660 606 660 553 q 627 689 660 658 q 526 719 594 719 l 407 719 l 407 492 m 371 1051 l 554 1274 l 853 1274 l 579 1051 l 371 1051 z "},"Ṗ":{"ha":1032,"x_min":79,"x_max":990,"o":"m 79 0 l 79 972 l 547 972 q 783 928 683 972 q 936 801 882 883 q 990 606 990 718 q 936 411 990 493 q 783 284 882 329 q 547 239 683 239 l 407 239 l 407 0 l 79 0 m 407 492 l 526 492 q 627 522 594 492 q 660 606 660 553 q 627 689 660 658 q 526 719 594 719 l 407 719 l 407 492 m 517 1038 q 403 1082 447 1038 q 358 1196 358 1126 q 403 1310 358 1265 q 517 1354 447 1354 q 631 1310 586 1354 q 675 1196 675 1265 q 631 1082 675 1126 q 517 1038 586 1038 z "},"Ƥ":{"ha":1368,"x_min":8,"x_max":1326,"o":"m 82 440 q 24 577 40 504 q 20 720 8 650 q 74 847 32 790 q 192 938 117 904 q 379 972 268 972 l 883 972 q 1119 928 1019 972 q 1272 801 1218 883 q 1326 606 1326 718 q 1272 411 1326 493 q 1119 284 1218 329 q 883 239 1019 239 l 743 239 l 743 0 l 415 0 l 415 718 l 374 718 q 300 667 311 718 q 329 546 289 615 l 82 440 m 743 492 l 863 492 q 963 522 931 492 q 996 606 996 553 q 963 689 996 658 q 863 719 931 719 l 743 719 l 743 492 z "},"Þ":{"ha":1032,"x_min":79,"x_max":990,"o":"m 79 0 l 79 974 l 407 974 l 407 879 l 547 879 q 783 835 683 879 q 936 708 882 790 q 990 513 990 625 q 936 317 990 400 q 783 190 882 235 q 547 146 683 146 l 407 146 l 407 0 l 79 0 m 407 399 l 526 399 q 627 429 594 399 q 660 513 660 460 q 627 596 660 565 q 526 626 594 626 l 407 626 l 407 399 z "},"Ᵽ":{"ha":1038,"x_min":-12,"x_max":996,"o":"m 85 0 l 85 513 l -12 513 l -12 699 l 85 699 l 85 972 l 553 972 q 788 928 689 972 q 942 801 888 883 q 996 606 996 718 q 942 411 996 493 q 788 284 888 329 q 553 239 689 239 l 413 239 l 413 0 l 85 0 m 413 478 l 532 478 q 631 511 597 478 q 665 606 665 544 q 631 699 665 667 q 532 732 597 732 l 413 732 l 413 699 l 544 699 l 544 513 l 413 513 l 413 478 z "},"Q":{"ha":1178,"x_min":40,"x_max":1190,"o":"m 907 -246 q 751 -225 821 -246 q 610 -152 681 -204 q 453 -8 540 -100 q 238 87 331 18 q 92 258 144 156 q 40 486 40 361 q 81 690 40 597 q 196 851 122 782 q 370 957 269 919 q 589 994 471 994 q 808 957 708 994 q 982 851 908 919 q 1097 690 1056 782 q 1138 486 1138 597 q 1099 288 1138 379 q 990 129 1060 197 q 824 22 919 61 q 867 -10 846 -1 q 914 -18 888 -18 q 1049 44 986 -18 l 1190 -122 q 907 -246 1086 -246 m 589 243 q 699 272 650 243 q 778 356 749 301 q 807 486 807 411 q 778 617 807 563 q 699 700 749 671 q 589 729 650 729 q 479 700 529 729 q 400 617 429 671 q 371 486 371 563 q 400 356 371 411 q 479 272 429 301 q 589 243 529 243 z "},"Ɋ":{"ha":1215,"x_min":40,"x_max":1311,"o":"m 522 -22 q 335 15 422 -22 q 181 122 247 53 q 78 283 115 190 q 40 486 40 376 q 78 690 40 597 q 181 851 115 782 q 335 957 247 919 q 522 994 422 994 q 676 967 606 994 q 801 890 747 940 l 797 972 l 1125 972 l 1125 24 q 1159 -37 1125 -21 q 1243 -33 1193 -53 l 1311 -254 q 1132 -290 1222 -287 q 966 -260 1042 -292 q 844 -158 890 -228 q 797 24 797 -87 l 797 78 q 674 4 743 31 q 522 -22 604 -22 m 589 243 q 748 309 689 243 q 807 486 807 375 q 748 663 807 597 q 589 729 689 729 q 430 663 489 729 q 371 486 371 597 q 430 309 371 375 q 589 243 489 243 z "},"R":{"ha":1035,"x_min":79,"x_max":1011,"o":"m 79 0 l 79 972 l 533 972 q 874 874 757 972 q 990 606 990 775 q 942 422 990 500 q 807 300 894 344 l 1011 0 l 661 0 l 496 244 l 407 244 l 407 0 l 79 0 m 407 492 l 526 492 q 627 522 594 492 q 660 606 660 553 q 627 689 660 658 q 526 719 594 719 l 407 719 l 407 492 z "},"Ŕ":{"ha":1035,"x_min":79,"x_max":1011,"o":"m 79 0 l 79 972 l 533 972 q 874 874 757 972 q 990 606 990 775 q 942 422 990 500 q 807 300 894 344 l 1011 0 l 661 0 l 496 244 l 407 244 l 407 0 l 79 0 m 407 492 l 526 492 q 627 522 594 492 q 660 606 660 553 q 627 689 660 658 q 526 719 594 719 l 407 719 l 407 492 m 361 1051 l 544 1274 l 843 1274 l 569 1051 l 361 1051 z "},"Ř":{"ha":1035,"x_min":79,"x_max":1011,"o":"m 79 0 l 79 972 l 533 972 q 874 874 757 972 q 990 606 990 775 q 942 422 990 500 q 807 300 894 344 l 1011 0 l 661 0 l 496 244 l 407 244 l 407 0 l 79 0 m 407 492 l 526 492 q 627 522 594 492 q 660 606 660 553 q 627 689 660 658 q 526 719 594 719 l 407 719 l 407 492 m 374 1051 l 196 1274 l 390 1274 l 507 1167 l 624 1274 l 818 1274 l 640 1051 l 374 1051 z "},"Ŗ":{"ha":1035,"x_min":79,"x_max":1011,"o":"m 79 0 l 79 972 l 533 972 q 874 874 757 972 q 990 606 990 775 q 942 422 990 500 q 807 300 894 344 l 1011 0 l 661 0 l 496 244 l 407 244 l 407 0 l 79 0 m 407 492 l 526 492 q 627 522 594 492 q 660 606 660 553 q 627 689 660 658 q 526 719 594 719 l 407 719 l 407 492 m 406 -375 l 442 -265 q 382 -174 382 -242 q 415 -98 382 -126 q 507 -69 449 -69 q 599 -98 565 -69 q 632 -174 632 -126 q 626 -220 632 -193 q 597 -285 619 -247 l 543 -375 l 406 -375 z "},"Ȑ":{"ha":1035,"x_min":79,"x_max":1011,"o":"m 79 0 l 79 972 l 533 972 q 874 874 757 972 q 990 606 990 775 q 942 422 990 500 q 807 300 894 344 l 1011 0 l 661 0 l 496 244 l 407 244 l 407 0 l 79 0 m 407 492 l 526 492 q 627 522 594 492 q 660 606 660 553 q 627 689 660 658 q 526 719 594 719 l 407 719 l 407 492 m 240 1051 l 106 1274 l 376 1274 l 449 1051 l 240 1051 m 565 1051 l 431 1274 l 701 1274 l 774 1051 l 565 1051 z "},"Ṙ":{"ha":1035,"x_min":79,"x_max":1011,"o":"m 79 0 l 79 972 l 533 972 q 874 874 757 972 q 990 606 990 775 q 942 422 990 500 q 807 300 894 344 l 1011 0 l 661 0 l 496 244 l 407 244 l 407 0 l 79 0 m 407 492 l 526 492 q 627 522 594 492 q 660 606 660 553 q 627 689 660 658 q 526 719 594 719 l 407 719 l 407 492 m 507 1038 q 393 1082 438 1038 q 349 1196 349 1126 q 393 1310 349 1265 q 507 1354 438 1354 q 621 1310 576 1354 q 665 1196 665 1265 q 621 1082 665 1126 q 507 1038 576 1038 z "},"Ṛ":{"ha":1035,"x_min":79,"x_max":1011,"o":"m 79 0 l 79 972 l 533 972 q 874 874 757 972 q 990 606 990 775 q 942 422 990 500 q 807 300 894 344 l 1011 0 l 661 0 l 496 244 l 407 244 l 407 0 l 79 0 m 407 492 l 526 492 q 627 522 594 492 q 660 606 660 553 q 627 689 660 658 q 526 719 594 719 l 407 719 l 407 492 m 507 -365 q 393 -321 438 -365 q 349 -207 349 -276 q 393 -93 349 -137 q 507 -49 438 -49 q 621 -93 576 -49 q 665 -207 665 -137 q 621 -321 665 -276 q 507 -365 576 -365 z "},"Ṝ":{"ha":1035,"x_min":79,"x_max":1011,"o":"m 79 0 l 79 972 l 533 972 q 874 874 757 972 q 990 606 990 775 q 942 422 990 500 q 807 300 894 344 l 1011 0 l 661 0 l 496 244 l 407 244 l 407 0 l 79 0 m 407 492 l 526 492 q 627 522 594 492 q 660 606 660 553 q 627 689 660 658 q 526 719 594 719 l 407 719 l 407 492 m 507 -365 q 393 -321 438 -365 q 349 -207 349 -276 q 393 -93 349 -137 q 507 -49 438 -49 q 621 -93 576 -49 q 665 -207 665 -137 q 621 -321 665 -276 q 507 -365 576 -365 m 215 1081 l 215 1244 l 799 1244 l 799 1081 l 215 1081 z "},"Ȓ":{"ha":1035,"x_min":79,"x_max":1011,"o":"m 79 0 l 79 972 l 533 972 q 874 874 757 972 q 990 606 990 775 q 942 422 990 500 q 807 300 894 344 l 1011 0 l 661 0 l 496 244 l 407 244 l 407 0 l 79 0 m 407 492 l 526 492 q 627 522 594 492 q 660 606 660 553 q 627 689 660 658 q 526 719 594 719 l 407 719 l 407 492 m 217 1051 q 302 1224 222 1161 q 507 1288 382 1288 q 712 1224 632 1288 q 797 1051 792 1161 l 610 1051 q 578 1113 607 1090 q 507 1136 550 1136 q 435 1113 464 1136 q 404 1051 407 1090 l 217 1051 z "},"Ṟ":{"ha":1035,"x_min":79,"x_max":1011,"o":"m 79 0 l 79 972 l 533 972 q 874 874 757 972 q 990 606 990 775 q 942 422 990 500 q 807 300 894 344 l 1011 0 l 661 0 l 496 244 l 407 244 l 407 0 l 79 0 m 407 492 l 526 492 q 627 522 594 492 q 660 606 660 553 q 627 689 660 658 q 526 719 594 719 l 407 719 l 407 492 m 215 -268 l 215 -104 l 799 -104 l 799 -268 l 215 -268 z "},"Ɍ":{"ha":1035,"x_min":-18,"x_max":1011,"o":"m 79 0 l 79 303 l -18 303 l -18 492 l 79 492 l 79 972 l 533 972 q 874 874 757 972 q 990 606 990 775 q 942 422 990 500 q 807 300 894 344 l 1011 0 l 661 0 l 496 244 l 407 244 l 407 0 l 79 0 m 526 492 q 627 522 594 492 q 660 606 660 553 q 627 689 660 658 q 526 719 594 719 l 407 719 l 407 492 l 526 492 z "},"Ɽ":{"ha":1054,"x_min":92,"x_max":1024,"o":"m 643 -242 q 455 -289 551 -282 q 276 -265 358 -296 q 142 -164 193 -235 q 92 24 92 -93 l 92 972 l 560 972 q 795 928 696 972 q 949 801 894 883 q 1003 606 1003 718 q 955 422 1003 500 q 819 300 907 344 l 1024 0 l 674 0 l 508 244 l 419 244 l 419 24 q 463 -42 419 -29 q 567 -24 507 -54 l 643 -242 m 419 492 l 539 492 q 640 522 607 492 q 672 606 672 553 q 640 689 672 658 q 539 719 607 719 l 419 719 l 419 492 z "},"S":{"ha":913,"x_min":18,"x_max":894,"o":"m 442 -22 q 206 6 319 -22 q 18 78 92 33 l 124 317 q 278 252 193 276 q 444 228 364 228 q 542 242 514 228 q 571 281 571 256 q 542 322 571 307 q 465 348 513 338 q 360 370 417 358 q 245 401 303 382 q 140 453 188 421 q 63 537 92 485 q 33 667 33 589 q 84 831 33 757 q 235 950 135 906 q 486 994 336 994 q 681 974 585 994 q 853 910 776 953 l 754 672 q 483 744 611 744 q 384 726 411 744 q 357 683 357 708 q 386 644 357 658 q 463 619 415 629 q 569 599 511 610 q 683 568 626 588 q 788 517 740 549 q 865 433 836 485 q 894 306 894 382 q 844 142 894 217 q 693 23 793 68 q 442 -22 593 -22 z "},"Ś":{"ha":913,"x_min":18,"x_max":894,"o":"m 442 -22 q 206 6 319 -22 q 18 78 92 33 l 124 317 q 278 252 193 276 q 444 228 364 228 q 542 242 514 228 q 571 281 571 256 q 542 322 571 307 q 465 348 513 338 q 360 370 417 358 q 245 401 303 382 q 140 453 188 421 q 63 537 92 485 q 33 667 33 589 q 84 831 33 757 q 235 950 135 906 q 486 994 336 994 q 681 974 585 994 q 853 910 776 953 l 754 672 q 483 744 611 744 q 384 726 411 744 q 357 683 357 708 q 386 644 357 658 q 463 619 415 629 q 569 599 511 610 q 683 568 626 588 q 788 517 740 549 q 865 433 836 485 q 894 306 894 382 q 844 142 894 217 q 693 23 793 68 q 442 -22 593 -22 m 311 1051 l 494 1274 l 793 1274 l 519 1051 l 311 1051 z "},"Ṥ":{"ha":913,"x_min":18,"x_max":894,"o":"m 442 -22 q 206 6 319 -22 q 18 78 92 33 l 124 317 q 278 252 193 276 q 444 228 364 228 q 542 242 514 228 q 571 281 571 256 q 542 322 571 307 q 465 348 513 338 q 360 370 417 358 q 245 401 303 382 q 140 453 188 421 q 63 537 92 485 q 33 667 33 589 q 84 831 33 757 q 235 950 135 906 q 486 994 336 994 q 681 974 585 994 q 853 910 776 953 l 754 672 q 483 744 611 744 q 384 726 411 744 q 357 683 357 708 q 386 644 357 658 q 463 619 415 629 q 569 599 511 610 q 683 568 626 588 q 788 517 740 549 q 865 433 836 485 q 894 306 894 382 q 844 142 894 217 q 693 23 793 68 q 442 -22 593 -22 m 311 1051 l 453 1232 l 751 1232 l 519 1051 l 311 1051 m 471 1279 q 382 1312 418 1279 q 346 1400 346 1344 q 382 1490 346 1456 q 471 1524 418 1524 q 560 1490 524 1524 q 596 1400 596 1456 q 560 1312 596 1344 q 471 1279 524 1279 z "},"Š":{"ha":913,"x_min":18,"x_max":894,"o":"m 442 -22 q 206 6 319 -22 q 18 78 92 33 l 124 317 q 278 252 193 276 q 444 228 364 228 q 542 242 514 228 q 571 281 571 256 q 542 322 571 307 q 465 348 513 338 q 360 370 417 358 q 245 401 303 382 q 140 453 188 421 q 63 537 92 485 q 33 667 33 589 q 84 831 33 757 q 235 950 135 906 q 486 994 336 994 q 681 974 585 994 q 853 910 776 953 l 754 672 q 483 744 611 744 q 384 726 411 744 q 357 683 357 708 q 386 644 357 658 q 463 619 415 629 q 569 599 511 610 q 683 568 626 588 q 788 517 740 549 q 865 433 836 485 q 894 306 894 382 q 844 142 894 217 q 693 23 793 68 q 442 -22 593 -22 m 324 1051 l 146 1274 l 340 1274 l 457 1167 l 574 1274 l 768 1274 l 590 1051 l 324 1051 z "},"Ṧ":{"ha":913,"x_min":18,"x_max":894,"o":"m 442 -22 q 206 6 319 -22 q 18 78 92 33 l 124 317 q 278 252 193 276 q 444 228 364 228 q 542 242 514 228 q 571 281 571 256 q 542 322 571 307 q 465 348 513 338 q 360 370 417 358 q 245 401 303 382 q 140 453 188 421 q 63 537 92 485 q 33 667 33 589 q 84 831 33 757 q 235 950 135 906 q 486 994 336 994 q 681 974 585 994 q 853 910 776 953 l 754 672 q 483 744 611 744 q 384 726 411 744 q 357 683 357 708 q 386 644 357 658 q 463 619 415 629 q 569 599 511 610 q 683 568 626 588 q 788 517 740 549 q 865 433 836 485 q 894 306 894 382 q 844 142 894 217 q 693 23 793 68 q 442 -22 593 -22 m 325 1063 l 146 1243 l 340 1243 l 457 1158 l 574 1243 l 768 1243 l 589 1063 l 325 1063 m 457 1268 q 368 1301 404 1268 q 332 1389 332 1333 q 368 1478 332 1444 q 457 1513 404 1513 q 546 1478 510 1513 q 582 1389 582 1444 q 546 1301 582 1333 q 457 1268 510 1268 z "},"Ş":{"ha":913,"x_min":18,"x_max":894,"o":"m 442 -22 q 206 6 319 -22 q 18 78 92 33 l 124 317 q 278 252 193 276 q 444 228 364 228 q 542 242 514 228 q 571 281 571 256 q 542 322 571 307 q 465 348 513 338 q 360 370 417 358 q 245 401 303 382 q 140 453 188 421 q 63 537 92 485 q 33 667 33 589 q 84 831 33 757 q 235 950 135 906 q 486 994 336 994 q 681 974 585 994 q 853 910 776 953 l 754 672 q 483 744 611 744 q 384 726 411 744 q 357 683 357 708 q 386 644 357 658 q 463 619 415 629 q 569 599 511 610 q 683 568 626 588 q 788 517 740 549 q 865 433 836 485 q 894 306 894 382 q 844 142 894 217 q 693 23 793 68 q 442 -22 593 -22 m 400 -333 q 326 -325 365 -333 q 264 -304 288 -317 l 303 -189 q 340 -200 318 -194 q 386 -206 361 -206 q 438 -196 422 -206 q 453 -172 453 -186 q 396 -144 453 -144 l 339 -144 l 376 14 l 538 14 l 518 -72 q 610 -114 583 -81 q 636 -183 636 -147 q 572 -293 636 -253 q 400 -333 507 -333 z "},"Ŝ":{"ha":913,"x_min":18,"x_max":894,"o":"m 442 -22 q 206 6 319 -22 q 18 78 92 33 l 124 317 q 278 252 193 276 q 444 228 364 228 q 542 242 514 228 q 571 281 571 256 q 542 322 571 307 q 465 348 513 338 q 360 370 417 358 q 245 401 303 382 q 140 453 188 421 q 63 537 92 485 q 33 667 33 589 q 84 831 33 757 q 235 950 135 906 q 486 994 336 994 q 681 974 585 994 q 853 910 776 953 l 754 672 q 483 744 611 744 q 384 726 411 744 q 357 683 357 708 q 386 644 357 658 q 463 619 415 629 q 569 599 511 610 q 683 568 626 588 q 788 517 740 549 q 865 433 836 485 q 894 306 894 382 q 844 142 894 217 q 693 23 793 68 q 442 -22 593 -22 m 146 1051 l 324 1274 l 590 1274 l 768 1051 l 574 1051 l 457 1158 l 340 1051 l 146 1051 z "},"Ș":{"ha":913,"x_min":18,"x_max":894,"o":"m 442 -22 q 206 6 319 -22 q 18 78 92 33 l 124 317 q 278 252 193 276 q 444 228 364 228 q 542 242 514 228 q 571 281 571 256 q 542 322 571 307 q 465 348 513 338 q 360 370 417 358 q 245 401 303 382 q 140 453 188 421 q 63 537 92 485 q 33 667 33 589 q 84 831 33 757 q 235 950 135 906 q 486 994 336 994 q 681 974 585 994 q 853 910 776 953 l 754 672 q 483 744 611 744 q 384 726 411 744 q 357 683 357 708 q 386 644 357 658 q 463 619 415 629 q 569 599 511 610 q 683 568 626 588 q 788 517 740 549 q 865 433 836 485 q 894 306 894 382 q 844 142 894 217 q 693 23 793 68 q 442 -22 593 -22 m 356 -375 l 392 -265 q 332 -174 332 -242 q 365 -98 332 -126 q 457 -69 399 -69 q 549 -98 515 -69 q 582 -174 582 -126 q 576 -220 582 -193 q 547 -285 569 -247 l 493 -375 l 356 -375 z "},"Ṡ":{"ha":913,"x_min":18,"x_max":894,"o":"m 442 -22 q 206 6 319 -22 q 18 78 92 33 l 124 317 q 278 252 193 276 q 444 228 364 228 q 542 242 514 228 q 571 281 571 256 q 542 322 571 307 q 465 348 513 338 q 360 370 417 358 q 245 401 303 382 q 140 453 188 421 q 63 537 92 485 q 33 667 33 589 q 84 831 33 757 q 235 950 135 906 q 486 994 336 994 q 681 974 585 994 q 853 910 776 953 l 754 672 q 483 744 611 744 q 384 726 411 744 q 357 683 357 708 q 386 644 357 658 q 463 619 415 629 q 569 599 511 610 q 683 568 626 588 q 788 517 740 549 q 865 433 836 485 q 894 306 894 382 q 844 142 894 217 q 693 23 793 68 q 442 -22 593 -22 m 457 1038 q 343 1082 388 1038 q 299 1196 299 1126 q 343 1310 299 1265 q 457 1354 388 1354 q 571 1310 526 1354 q 615 1196 615 1265 q 571 1082 615 1126 q 457 1038 526 1038 z "},"Ṣ":{"ha":913,"x_min":18,"x_max":894,"o":"m 442 -22 q 206 6 319 -22 q 18 78 92 33 l 124 317 q 278 252 193 276 q 444 228 364 228 q 542 242 514 228 q 571 281 571 256 q 542 322 571 307 q 465 348 513 338 q 360 370 417 358 q 245 401 303 382 q 140 453 188 421 q 63 537 92 485 q 33 667 33 589 q 84 831 33 757 q 235 950 135 906 q 486 994 336 994 q 681 974 585 994 q 853 910 776 953 l 754 672 q 483 744 611 744 q 384 726 411 744 q 357 683 357 708 q 386 644 357 658 q 463 619 415 629 q 569 599 511 610 q 683 568 626 588 q 788 517 740 549 q 865 433 836 485 q 894 306 894 382 q 844 142 894 217 q 693 23 793 68 q 442 -22 593 -22 m 457 -365 q 343 -321 388 -365 q 299 -207 299 -276 q 343 -93 299 -137 q 457 -49 388 -49 q 571 -93 526 -49 q 615 -207 615 -137 q 571 -321 615 -276 q 457 -365 526 -365 z "},"Ṩ":{"ha":913,"x_min":18,"x_max":894,"o":"m 442 -22 q 206 6 319 -22 q 18 78 92 33 l 124 317 q 278 252 193 276 q 444 228 364 228 q 542 242 514 228 q 571 281 571 256 q 542 322 571 307 q 465 348 513 338 q 360 370 417 358 q 245 401 303 382 q 140 453 188 421 q 63 537 92 485 q 33 667 33 589 q 84 831 33 757 q 235 950 135 906 q 486 994 336 994 q 681 974 585 994 q 853 910 776 953 l 754 672 q 483 744 611 744 q 384 726 411 744 q 357 683 357 708 q 386 644 357 658 q 463 619 415 629 q 569 599 511 610 q 683 568 626 588 q 788 517 740 549 q 865 433 836 485 q 894 306 894 382 q 844 142 894 217 q 693 23 793 68 q 442 -22 593 -22 m 457 -365 q 343 -321 388 -365 q 299 -207 299 -276 q 343 -93 299 -137 q 457 -49 388 -49 q 571 -93 526 -49 q 615 -207 615 -137 q 571 -321 615 -276 q 457 -365 526 -365 m 457 1038 q 343 1082 388 1038 q 299 1196 299 1126 q 343 1310 299 1265 q 457 1354 388 1354 q 571 1310 526 1354 q 615 1196 615 1265 q 571 1082 615 1126 q 457 1038 526 1038 z "},"ẞ":{"ha":1108,"x_min":71,"x_max":1072,"o":"m 686 -22 q 565 -14 618 -22 q 468 10 511 -6 l 513 254 q 570 235 538 243 q 631 228 603 228 q 742 307 742 228 q 635 386 742 386 q 589 383 611 386 q 549 372 567 379 l 493 504 l 692 736 q 603 744 649 744 q 450 685 501 744 q 399 519 399 626 l 399 0 l 71 0 l 71 526 q 132 776 71 671 q 311 938 193 881 q 599 994 429 994 q 728 984 660 994 q 860 953 796 974 q 969 903 924 932 l 969 715 l 856 582 q 1010 475 949 549 q 1072 293 1072 401 q 1020 124 1072 194 q 881 15 968 53 q 686 -22 793 -22 z "},"Ꞩ":{"ha":899,"x_min":18,"x_max":881,"o":"m 436 -21 q 282 -8 360 -21 q 136 27 204 4 q 18 82 68 50 l 118 306 q 269 240 183 265 q 439 214 356 214 q 547 231 515 214 q 578 278 578 249 q 540 328 578 311 q 443 358 501 344 l 374 238 l 235 317 l 282 396 q 162 446 218 414 q 70 532 106 478 q 35 671 35 586 q 84 833 35 760 q 232 949 133 906 q 478 993 331 993 q 672 972 576 993 q 839 908 767 950 l 746 685 q 476 758 606 758 q 367 738 399 758 q 336 686 336 717 q 358 648 336 663 q 418 622 381 633 l 489 740 l 624 671 l 575 588 q 685 556 631 575 q 783 504 739 536 q 854 423 828 472 q 881 301 881 374 q 831 141 881 214 q 683 24 782 68 q 436 -21 585 -21 z "},"T":{"ha":908,"x_min":6,"x_max":903,"o":"m 290 0 l 290 718 l 6 718 l 6 972 l 903 972 l 903 718 l 618 718 l 618 0 l 290 0 z "},"Ŧ":{"ha":908,"x_min":6,"x_max":903,"o":"m 290 0 l 290 342 l 143 342 l 143 531 l 290 531 l 290 718 l 6 718 l 6 972 l 903 972 l 903 718 l 618 718 l 618 531 l 764 531 l 764 342 l 618 342 l 618 0 l 290 0 z "},"Ť":{"ha":908,"x_min":6,"x_max":903,"o":"m 290 0 l 290 718 l 6 718 l 6 972 l 903 972 l 903 718 l 618 718 l 618 0 l 290 0 m 321 1051 l 143 1274 l 338 1274 l 454 1167 l 571 1274 l 765 1274 l 588 1051 l 321 1051 z "},"Ţ":{"ha":908,"x_min":6,"x_max":903,"o":"m 290 0 l 290 718 l 6 718 l 6 972 l 903 972 l 903 718 l 618 718 l 618 0 l 290 0 m 397 -333 q 324 -325 363 -333 q 261 -304 285 -317 l 300 -189 q 337 -200 315 -194 q 383 -206 358 -206 q 435 -196 419 -206 q 450 -172 450 -186 q 393 -144 450 -144 l 336 -144 l 374 14 l 535 14 l 515 -72 q 607 -114 581 -81 q 633 -183 633 -147 q 569 -293 633 -253 q 397 -333 504 -333 z "},"Ṱ":{"ha":908,"x_min":6,"x_max":903,"o":"m 290 0 l 290 718 l 6 718 l 6 972 l 903 972 l 903 718 l 618 718 l 618 0 l 290 0 m 143 -299 l 321 -76 l 588 -76 l 765 -299 l 571 -299 l 454 -192 l 338 -299 l 143 -299 z "},"Ț":{"ha":908,"x_min":6,"x_max":903,"o":"m 290 0 l 290 718 l 6 718 l 6 972 l 903 972 l 903 718 l 618 718 l 618 0 l 290 0 m 353 -375 l 389 -265 q 329 -174 329 -242 q 363 -98 329 -126 q 454 -69 396 -69 q 546 -98 513 -69 q 579 -174 579 -126 q 573 -220 579 -193 q 544 -285 567 -247 l 490 -375 l 353 -375 z "},"Ⱦ":{"ha":908,"x_min":6,"x_max":903,"o":"m 364 0 l 318 -97 l 160 -97 l 304 210 l 304 718 l 6 718 l 6 972 l 664 972 l 710 1069 l 868 1069 l 822 972 l 903 972 l 903 718 l 604 718 l 604 0 l 364 0 z "},"Ṫ":{"ha":908,"x_min":6,"x_max":903,"o":"m 290 0 l 290 718 l 6 718 l 6 972 l 903 972 l 903 718 l 618 718 l 618 0 l 290 0 m 454 1038 q 340 1082 385 1038 q 296 1196 296 1126 q 340 1310 296 1265 q 454 1354 385 1354 q 568 1310 524 1354 q 613 1196 613 1265 q 568 1082 613 1126 q 454 1038 524 1038 z "},"Ṭ":{"ha":908,"x_min":6,"x_max":903,"o":"m 290 0 l 290 718 l 6 718 l 6 972 l 903 972 l 903 718 l 618 718 l 618 0 l 290 0 m 454 -365 q 340 -321 385 -365 q 296 -207 296 -276 q 340 -93 296 -137 q 454 -49 385 -49 q 568 -93 524 -49 q 613 -207 613 -137 q 568 -321 613 -276 q 454 -365 524 -365 z "},"Ƭ":{"ha":1086,"x_min":8,"x_max":1081,"o":"m 468 0 l 468 718 l 368 718 q 295 667 307 718 q 322 546 283 617 l 86 440 q 25 575 42 503 q 21 717 8 647 q 76 845 33 788 q 192 938 118 903 q 374 972 267 972 l 1081 972 l 1081 718 l 796 718 l 796 0 l 468 0 z "},"Ṯ":{"ha":908,"x_min":6,"x_max":903,"o":"m 290 0 l 290 718 l 6 718 l 6 972 l 903 972 l 903 718 l 618 718 l 618 0 l 290 0 m 163 -268 l 163 -104 l 746 -104 l 746 -268 l 163 -268 z "},"Ʈ":{"ha":908,"x_min":6,"x_max":903,"o":"m 842 -240 q 653 -287 750 -281 q 474 -264 557 -294 q 341 -162 392 -233 q 290 25 290 -92 l 290 718 l 6 718 l 6 972 l 903 972 l 903 718 l 618 718 l 618 25 q 662 -40 618 -28 q 765 -22 706 -53 l 842 -240 z "},"Ʇ":{"ha":908,"x_min":6,"x_max":903,"o":"m 618 972 l 618 254 l 903 254 l 903 0 l 6 0 l 6 254 l 290 254 l 290 972 l 618 972 z "},"U":{"ha":1089,"x_min":71,"x_max":1018,"o":"m 544 -22 q 196 99 321 -22 q 71 438 71 219 l 71 972 l 399 972 l 399 447 q 439 290 399 336 q 547 243 479 243 q 656 290 617 243 q 696 447 696 336 l 696 972 l 1018 972 l 1018 438 q 893 99 1018 219 q 544 -22 768 -22 z "},"Ú":{"ha":1089,"x_min":71,"x_max":1018,"o":"m 544 -22 q 196 99 321 -22 q 71 438 71 219 l 71 972 l 399 972 l 399 447 q 439 290 399 336 q 547 243 479 243 q 656 290 617 243 q 696 447 696 336 l 696 972 l 1018 972 l 1018 438 q 893 99 1018 219 q 544 -22 768 -22 m 401 1051 l 585 1274 l 883 1274 l 610 1051 l 401 1051 z "},"Ʉ":{"ha":1101,"x_min":-21,"x_max":1122,"o":"m 550 -22 q 213 88 336 -22 q 78 399 89 197 l -21 399 l -21 588 l 76 588 l 76 972 l 404 972 l 404 588 l 701 588 l 701 972 l 1024 972 l 1024 588 l 1122 588 l 1122 399 l 1022 399 q 888 88 1011 197 q 550 -22 764 -22 m 699 399 l 407 399 q 453 278 415 314 q 553 243 492 243 q 652 278 614 243 q 699 399 690 314 z "},"Ŭ":{"ha":1089,"x_min":71,"x_max":1018,"o":"m 544 -22 q 196 99 321 -22 q 71 438 71 219 l 71 972 l 399 972 l 399 447 q 439 290 399 336 q 547 243 479 243 q 656 290 617 243 q 696 447 696 336 l 696 972 l 1018 972 l 1018 438 q 893 99 1018 219 q 544 -22 768 -22 m 547 1051 q 342 1115 422 1051 q 257 1288 263 1178 l 444 1288 q 476 1226 447 1249 q 547 1203 504 1203 q 619 1226 590 1203 q 650 1288 647 1249 l 838 1288 q 752 1115 832 1178 q 547 1051 672 1051 z "},"Ǔ":{"ha":1089,"x_min":71,"x_max":1018,"o":"m 544 -22 q 196 99 321 -22 q 71 438 71 219 l 71 972 l 399 972 l 399 447 q 439 290 399 336 q 547 243 479 243 q 656 290 617 243 q 696 447 696 336 l 696 972 l 1018 972 l 1018 438 q 893 99 1018 219 q 544 -22 768 -22 m 414 1051 l 236 1274 l 431 1274 l 547 1167 l 664 1274 l 858 1274 l 681 1051 l 414 1051 z "},"Û":{"ha":1089,"x_min":71,"x_max":1018,"o":"m 544 -22 q 196 99 321 -22 q 71 438 71 219 l 71 972 l 399 972 l 399 447 q 439 290 399 336 q 547 243 479 243 q 656 290 617 243 q 696 447 696 336 l 696 972 l 1018 972 l 1018 438 q 893 99 1018 219 q 544 -22 768 -22 m 236 1051 l 414 1274 l 681 1274 l 858 1051 l 664 1051 l 547 1158 l 431 1051 l 236 1051 z "},"Ṷ":{"ha":1089,"x_min":71,"x_max":1018,"o":"m 544 -22 q 196 99 321 -22 q 71 438 71 219 l 71 972 l 399 972 l 399 447 q 439 290 399 336 q 547 243 479 243 q 656 290 617 243 q 696 447 696 336 l 696 972 l 1018 972 l 1018 438 q 893 99 1018 219 q 544 -22 768 -22 m 236 -299 l 414 -76 l 681 -76 l 858 -299 l 664 -299 l 547 -192 l 431 -299 l 236 -299 z "},"Ȕ":{"ha":1089,"x_min":71,"x_max":1018,"o":"m 544 -22 q 196 99 321 -22 q 71 438 71 219 l 71 972 l 399 972 l 399 447 q 439 290 399 336 q 547 243 479 243 q 656 290 617 243 q 696 447 696 336 l 696 972 l 1018 972 l 1018 438 q 893 99 1018 219 q 544 -22 768 -22 m 281 1051 l 146 1274 l 417 1274 l 489 1051 l 281 1051 m 606 1051 l 471 1274 l 742 1274 l 814 1051 l 606 1051 z "},"Ü":{"ha":1089,"x_min":71,"x_max":1018,"o":"m 544 -22 q 196 99 321 -22 q 71 438 71 219 l 71 972 l 399 972 l 399 447 q 439 290 399 336 q 547 243 479 243 q 656 290 617 243 q 696 447 696 336 l 696 972 l 1018 972 l 1018 438 q 893 99 1018 219 q 544 -22 768 -22 m 393 1040 q 304 1074 340 1040 q 268 1163 268 1107 q 304 1252 268 1218 q 393 1286 340 1286 q 482 1252 446 1286 q 518 1163 518 1218 q 482 1074 518 1107 q 393 1040 446 1040 m 701 1040 q 613 1074 649 1040 q 576 1163 576 1107 q 613 1252 576 1218 q 701 1286 649 1286 q 790 1252 754 1286 q 826 1163 826 1218 q 790 1074 826 1107 q 701 1040 754 1040 z "},"Ǘ":{"ha":1089,"x_min":71,"x_max":1018,"o":"m 544 -22 q 196 99 321 -22 q 71 438 71 219 l 71 972 l 399 972 l 399 447 q 439 290 399 336 q 547 243 479 243 q 656 290 617 243 q 696 447 696 336 l 696 972 l 1018 972 l 1018 438 q 893 99 1018 219 q 544 -22 768 -22 m 400 1040 q 316 1072 350 1040 q 282 1156 282 1104 q 316 1240 282 1208 q 400 1272 350 1272 q 484 1240 450 1272 q 518 1156 518 1208 q 484 1072 518 1104 q 400 1040 450 1040 m 694 1040 q 610 1072 644 1040 q 576 1156 576 1104 q 610 1240 576 1208 q 694 1272 644 1272 q 778 1240 744 1272 q 813 1156 813 1208 q 778 1072 813 1104 q 694 1040 744 1040 m 401 1306 l 543 1486 l 842 1486 l 610 1306 l 401 1306 z "},"Ṳ":{"ha":1089,"x_min":71,"x_max":1018,"o":"m 544 -22 q 196 99 321 -22 q 71 438 71 219 l 71 972 l 399 972 l 399 447 q 439 290 399 336 q 547 243 479 243 q 656 290 617 243 q 696 447 696 336 l 696 972 l 1018 972 l 1018 438 q 893 99 1018 219 q 544 -22 768 -22 m 393 -312 q 304 -279 340 -312 q 268 -190 268 -246 q 304 -101 268 -135 q 393 -67 340 -67 q 482 -101 446 -67 q 518 -190 518 -135 q 482 -279 518 -246 q 393 -312 446 -312 m 701 -312 q 613 -279 649 -312 q 576 -190 576 -246 q 613 -101 576 -135 q 701 -67 649 -67 q 790 -101 754 -67 q 826 -190 826 -135 q 790 -279 826 -246 q 701 -312 754 -312 z "},"Ǚ":{"ha":1089,"x_min":71,"x_max":1018,"o":"m 544 -22 q 196 99 321 -22 q 71 438 71 219 l 71 972 l 399 972 l 399 447 q 439 290 399 336 q 547 243 479 243 q 656 290 617 243 q 696 447 696 336 l 696 972 l 1018 972 l 1018 438 q 893 99 1018 219 q 544 -22 768 -22 m 393 1040 q 304 1074 340 1040 q 268 1163 268 1107 q 304 1252 268 1218 q 393 1286 340 1286 q 482 1252 446 1286 q 518 1163 518 1218 q 482 1074 518 1107 q 393 1040 446 1040 m 701 1040 q 613 1074 649 1040 q 576 1163 576 1107 q 613 1252 576 1218 q 701 1286 649 1286 q 790 1252 754 1286 q 826 1163 826 1218 q 790 1074 826 1107 q 701 1040 754 1040 m 414 1319 l 236 1542 l 431 1542 l 547 1435 l 664 1542 l 858 1542 l 681 1319 l 414 1319 z "},"Ǜ":{"ha":1089,"x_min":71,"x_max":1018,"o":"m 544 -22 q 196 99 321 -22 q 71 438 71 219 l 71 972 l 399 972 l 399 447 q 439 290 399 336 q 547 243 479 243 q 656 290 617 243 q 696 447 696 336 l 696 972 l 1018 972 l 1018 438 q 893 99 1018 219 q 544 -22 768 -22 m 400 1040 q 316 1072 350 1040 q 282 1156 282 1104 q 316 1240 282 1208 q 400 1272 350 1272 q 484 1240 450 1272 q 518 1156 518 1208 q 484 1072 518 1104 q 400 1040 450 1040 m 694 1040 q 610 1072 644 1040 q 576 1156 576 1104 q 610 1240 576 1208 q 694 1272 644 1272 q 778 1240 744 1272 q 813 1156 813 1208 q 778 1072 813 1104 q 694 1040 744 1040 m 485 1306 l 253 1486 l 551 1486 l 693 1306 l 485 1306 z "},"Ǖ":{"ha":1089,"x_min":71,"x_max":1018,"o":"m 544 -22 q 196 99 321 -22 q 71 438 71 219 l 71 972 l 399 972 l 399 447 q 439 290 399 336 q 547 243 479 243 q 656 290 617 243 q 696 447 696 336 l 696 972 l 1018 972 l 1018 438 q 893 99 1018 219 q 544 -22 768 -22 m 400 1040 q 316 1072 350 1040 q 282 1156 282 1104 q 316 1240 282 1208 q 400 1272 350 1272 q 484 1240 450 1272 q 518 1156 518 1208 q 484 1072 518 1104 q 400 1040 450 1040 m 694 1040 q 610 1072 644 1040 q 576 1156 576 1104 q 610 1240 576 1208 q 694 1272 644 1272 q 778 1240 744 1272 q 813 1156 813 1208 q 778 1072 813 1104 q 694 1040 744 1040 m 256 1338 l 256 1493 l 839 1493 l 839 1338 l 256 1338 z "},"Ụ":{"ha":1089,"x_min":71,"x_max":1018,"o":"m 544 -22 q 196 99 321 -22 q 71 438 71 219 l 71 972 l 399 972 l 399 447 q 439 290 399 336 q 547 243 479 243 q 656 290 617 243 q 696 447 696 336 l 696 972 l 1018 972 l 1018 438 q 893 99 1018 219 q 544 -22 768 -22 m 547 -365 q 433 -321 478 -365 q 389 -207 389 -276 q 433 -93 389 -137 q 547 -49 478 -49 q 661 -93 617 -49 q 706 -207 706 -137 q 661 -321 706 -276 q 547 -365 617 -365 z "},"Ù":{"ha":1089,"x_min":71,"x_max":1018,"o":"m 544 -22 q 196 99 321 -22 q 71 438 71 219 l 71 972 l 399 972 l 399 447 q 439 290 399 336 q 547 243 479 243 q 656 290 617 243 q 696 447 696 336 l 696 972 l 1018 972 l 1018 438 q 893 99 1018 219 q 544 -22 768 -22 m 485 1051 l 211 1274 l 510 1274 l 693 1051 l 485 1051 z "},"Ủ":{"ha":1089,"x_min":71,"x_max":1018,"o":"m 544 -22 q 196 99 321 -22 q 71 438 71 219 l 71 972 l 399 972 l 399 447 q 439 290 399 336 q 547 243 479 243 q 656 290 617 243 q 696 447 696 336 l 696 972 l 1018 972 l 1018 438 q 893 99 1018 219 q 544 -22 768 -22 m 551 1007 l 457 1097 q 509 1135 497 1117 q 521 1172 521 1154 q 505 1211 521 1197 q 463 1225 489 1225 q 383 1197 424 1225 l 319 1314 q 415 1360 368 1346 q 503 1375 461 1375 q 608 1350 563 1375 q 680 1284 654 1325 q 706 1196 706 1243 q 669 1094 706 1144 q 551 1007 633 1043 z "},"Ư":{"ha":1117,"x_min":71,"x_max":1181,"o":"m 544 -22 q 196 99 321 -22 q 71 438 71 219 l 71 972 l 399 972 l 399 447 q 439 290 399 336 q 547 243 479 243 q 656 290 617 243 q 696 447 696 336 l 696 972 l 1018 972 l 1018 438 q 893 99 1018 219 q 544 -22 768 -22 m 847 781 l 847 972 l 903 972 q 956 995 932 972 q 979 1057 979 1018 q 951 1136 979 1104 l 1129 1199 q 1167 1130 1153 1168 q 1181 1044 1181 1092 q 1103 849 1181 918 q 889 781 1026 781 l 847 781 z "},"Ứ":{"ha":1117,"x_min":71,"x_max":1181,"o":"m 544 -22 q 196 99 321 -22 q 71 438 71 219 l 71 972 l 399 972 l 399 447 q 439 290 399 336 q 547 243 479 243 q 656 290 617 243 q 696 447 696 336 l 696 972 l 1018 972 l 1018 438 q 893 99 1018 219 q 544 -22 768 -22 m 847 781 l 847 972 l 903 972 q 956 995 932 972 q 979 1057 979 1018 q 951 1136 979 1104 l 1129 1199 q 1167 1130 1153 1168 q 1181 1044 1181 1092 q 1103 849 1181 918 q 889 781 1026 781 l 847 781 m 401 1051 l 585 1274 l 883 1274 l 610 1051 l 401 1051 z "},"Ự":{"ha":1117,"x_min":71,"x_max":1181,"o":"m 544 -22 q 196 99 321 -22 q 71 438 71 219 l 71 972 l 399 972 l 399 447 q 439 290 399 336 q 547 243 479 243 q 656 290 617 243 q 696 447 696 336 l 696 972 l 1018 972 l 1018 438 q 893 99 1018 219 q 544 -22 768 -22 m 847 781 l 847 972 l 903 972 q 956 995 932 972 q 979 1057 979 1018 q 951 1136 979 1104 l 1129 1199 q 1167 1130 1153 1168 q 1181 1044 1181 1092 q 1103 849 1181 918 q 889 781 1026 781 l 847 781 m 547 -365 q 433 -321 478 -365 q 389 -207 389 -276 q 433 -93 389 -137 q 547 -49 478 -49 q 661 -93 617 -49 q 706 -207 706 -137 q 661 -321 706 -276 q 547 -365 617 -365 z "},"Ừ":{"ha":1117,"x_min":71,"x_max":1181,"o":"m 544 -22 q 196 99 321 -22 q 71 438 71 219 l 71 972 l 399 972 l 399 447 q 439 290 399 336 q 547 243 479 243 q 656 290 617 243 q 696 447 696 336 l 696 972 l 1018 972 l 1018 438 q 893 99 1018 219 q 544 -22 768 -22 m 847 781 l 847 972 l 903 972 q 956 995 932 972 q 979 1057 979 1018 q 951 1136 979 1104 l 1129 1199 q 1167 1130 1153 1168 q 1181 1044 1181 1092 q 1103 849 1181 918 q 889 781 1026 781 l 847 781 m 485 1051 l 211 1274 l 510 1274 l 693 1051 l 485 1051 z "},"Ử":{"ha":1117,"x_min":71,"x_max":1181,"o":"m 544 -22 q 196 99 321 -22 q 71 438 71 219 l 71 972 l 399 972 l 399 447 q 439 290 399 336 q 547 243 479 243 q 656 290 617 243 q 696 447 696 336 l 696 972 l 1018 972 l 1018 438 q 893 99 1018 219 q 544 -22 768 -22 m 847 781 l 847 972 l 903 972 q 956 995 932 972 q 979 1057 979 1018 q 951 1136 979 1104 l 1129 1199 q 1167 1130 1153 1168 q 1181 1044 1181 1092 q 1103 849 1181 918 q 889 781 1026 781 l 847 781 m 551 1007 l 457 1097 q 509 1135 497 1117 q 521 1172 521 1154 q 505 1211 521 1197 q 463 1225 489 1225 q 383 1197 424 1225 l 319 1314 q 415 1360 368 1346 q 503 1375 461 1375 q 608 1350 563 1375 q 680 1284 654 1325 q 706 1196 706 1243 q 669 1094 706 1144 q 551 1007 633 1043 z "},"Ữ":{"ha":1117,"x_min":71,"x_max":1181,"o":"m 544 -22 q 196 99 321 -22 q 71 438 71 219 l 71 972 l 399 972 l 399 447 q 439 290 399 336 q 547 243 479 243 q 656 290 617 243 q 696 447 696 336 l 696 972 l 1018 972 l 1018 438 q 893 99 1018 219 q 544 -22 768 -22 m 847 781 l 847 972 l 903 972 q 956 995 932 972 q 979 1057 979 1018 q 951 1136 979 1104 l 1129 1199 q 1167 1130 1153 1168 q 1181 1044 1181 1092 q 1103 849 1181 918 q 889 781 1026 781 l 847 781 m 660 1038 q 572 1058 608 1038 q 507 1099 535 1079 q 454 1119 479 1119 q 411 1101 428 1119 q 392 1051 394 1083 l 243 1051 q 296 1226 246 1161 q 435 1292 346 1292 q 523 1272 486 1292 q 588 1231 560 1251 q 640 1210 615 1210 q 685 1227 668 1210 q 703 1274 701 1244 l 851 1274 q 799 1103 850 1168 q 660 1038 749 1038 z "},"Ű":{"ha":1089,"x_min":71,"x_max":1018,"o":"m 544 -22 q 196 99 321 -22 q 71 438 71 219 l 71 972 l 399 972 l 399 447 q 439 290 399 336 q 547 243 479 243 q 656 290 617 243 q 696 447 696 336 l 696 972 l 1018 972 l 1018 438 q 893 99 1018 219 q 544 -22 768 -22 m 281 1051 l 353 1274 l 624 1274 l 489 1051 l 281 1051 m 606 1051 l 678 1274 l 949 1274 l 814 1051 l 606 1051 z "},"Ȗ":{"ha":1089,"x_min":71,"x_max":1018,"o":"m 544 -22 q 196 99 321 -22 q 71 438 71 219 l 71 972 l 399 972 l 399 447 q 439 290 399 336 q 547 243 479 243 q 656 290 617 243 q 696 447 696 336 l 696 972 l 1018 972 l 1018 438 q 893 99 1018 219 q 544 -22 768 -22 m 257 1051 q 342 1224 263 1161 q 547 1288 422 1288 q 752 1224 672 1288 q 838 1051 832 1161 l 650 1051 q 619 1113 647 1090 q 547 1136 590 1136 q 476 1113 504 1136 q 444 1051 447 1090 l 257 1051 z "},"Ū":{"ha":1089,"x_min":71,"x_max":1018,"o":"m 544 -22 q 196 99 321 -22 q 71 438 71 219 l 71 972 l 399 972 l 399 447 q 439 290 399 336 q 547 243 479 243 q 656 290 617 243 q 696 447 696 336 l 696 972 l 1018 972 l 1018 438 q 893 99 1018 219 q 544 -22 768 -22 m 256 1081 l 256 1244 l 839 1244 l 839 1081 l 256 1081 z "},"Ṻ":{"ha":1089,"x_min":71,"x_max":1018,"o":"m 544 -22 q 196 99 321 -22 q 71 438 71 219 l 71 972 l 399 972 l 399 447 q 439 290 399 336 q 547 243 479 243 q 656 290 617 243 q 696 447 696 336 l 696 972 l 1018 972 l 1018 438 q 893 99 1018 219 q 544 -22 768 -22 m 256 1064 l 256 1219 l 839 1219 l 839 1064 l 256 1064 m 400 1293 q 316 1325 350 1293 q 282 1408 282 1357 q 316 1493 282 1461 q 400 1525 350 1525 q 484 1493 450 1525 q 518 1408 518 1461 q 484 1325 518 1357 q 400 1293 450 1293 m 694 1293 q 610 1325 644 1293 q 576 1408 576 1357 q 610 1493 576 1461 q 694 1525 644 1525 q 778 1493 744 1525 q 813 1408 813 1461 q 778 1325 813 1357 q 694 1293 744 1293 z "},"Ų":{"ha":1089,"x_min":71,"x_max":1018,"o":"m 594 -333 q 433 -287 490 -333 q 375 -162 375 -240 q 447 -15 375 -79 q 169 127 268 10 q 71 438 71 244 l 71 972 l 399 972 l 399 447 q 439 290 399 336 q 547 243 479 243 q 656 290 617 243 q 696 447 696 336 l 696 972 l 1018 972 l 1018 438 q 944 161 1018 265 q 750 10 869 57 q 599 -68 639 -33 q 558 -135 558 -103 q 576 -175 558 -158 q 632 -192 593 -192 q 677 -185 656 -192 q 714 -172 699 -179 l 751 -301 q 683 -324 726 -315 q 594 -333 639 -333 z "},"Ʊ":{"ha":1192,"x_min":39,"x_max":1153,"o":"m 1153 972 l 1153 718 l 1028 718 q 1108 592 1076 667 q 1139 425 1139 517 q 1098 244 1139 326 q 983 103 1057 163 q 810 10 910 43 q 596 -22 711 -22 q 381 10 481 -22 q 208 103 282 43 q 94 245 135 163 q 53 426 53 328 q 84 592 53 518 q 164 718 115 667 l 39 718 l 39 972 l 539 972 l 539 736 q 421 627 464 697 q 378 471 378 557 q 442 302 378 361 q 596 243 506 243 q 750 302 686 243 q 814 471 814 361 q 770 628 814 558 q 653 736 726 699 l 653 972 l 1153 972 z "},"Ů":{"ha":1089,"x_min":71,"x_max":1018,"o":"m 544 -22 q 196 99 321 -22 q 71 438 71 219 l 71 972 l 399 972 l 399 447 q 439 290 399 336 q 547 243 479 243 q 656 290 617 243 q 696 447 696 336 l 696 972 l 1018 972 l 1018 438 q 893 99 1018 219 q 544 -22 768 -22 m 547 1021 q 449 1046 493 1021 q 378 1113 404 1071 q 353 1207 353 1156 q 378 1301 353 1260 q 449 1368 404 1343 q 547 1393 493 1393 q 647 1368 603 1393 q 716 1301 690 1343 q 742 1207 742 1260 q 716 1113 742 1156 q 647 1046 690 1071 q 547 1021 603 1021 m 547 1132 q 601 1153 579 1132 q 622 1207 622 1174 q 601 1261 622 1240 q 547 1282 579 1282 q 494 1261 517 1282 q 472 1207 472 1240 q 494 1153 472 1174 q 547 1132 517 1132 z "},"Ũ":{"ha":1089,"x_min":71,"x_max":1018,"o":"m 544 -22 q 196 99 321 -22 q 71 438 71 219 l 71 972 l 399 972 l 399 447 q 439 290 399 336 q 547 243 479 243 q 656 290 617 243 q 696 447 696 336 l 696 972 l 1018 972 l 1018 438 q 893 99 1018 219 q 544 -22 768 -22 m 660 1038 q 572 1058 608 1038 q 507 1099 535 1079 q 454 1119 479 1119 q 411 1101 428 1119 q 392 1051 394 1083 l 243 1051 q 296 1226 246 1161 q 435 1292 346 1292 q 523 1272 486 1292 q 588 1231 560 1251 q 640 1210 615 1210 q 685 1227 668 1210 q 703 1274 701 1244 l 851 1274 q 799 1103 850 1168 q 660 1038 749 1038 z "},"Ṹ":{"ha":1089,"x_min":71,"x_max":1018,"o":"m 544 -22 q 196 99 321 -22 q 71 438 71 219 l 71 972 l 399 972 l 399 447 q 439 290 399 336 q 547 243 479 243 q 656 290 617 243 q 696 447 696 336 l 696 972 l 1018 972 l 1018 438 q 893 99 1018 219 q 544 -22 768 -22 m 660 1038 q 588 1049 617 1038 q 538 1074 558 1060 q 500 1099 518 1088 q 461 1110 482 1110 q 422 1093 438 1110 q 403 1050 406 1076 l 250 1050 q 301 1197 250 1144 q 436 1250 351 1250 q 526 1232 492 1250 q 586 1196 561 1214 q 638 1178 611 1178 q 678 1196 663 1178 q 696 1238 694 1214 l 844 1238 q 795 1090 844 1142 q 660 1038 746 1038 m 401 1306 l 543 1486 l 842 1486 l 610 1306 l 401 1306 z "},"Ṵ":{"ha":1089,"x_min":71,"x_max":1018,"o":"m 544 -22 q 196 99 321 -22 q 71 438 71 219 l 71 972 l 399 972 l 399 447 q 439 290 399 336 q 547 243 479 243 q 656 290 617 243 q 696 447 696 336 l 696 972 l 1018 972 l 1018 438 q 893 99 1018 219 q 544 -22 768 -22 m 660 -315 q 572 -294 608 -315 q 507 -253 535 -274 q 454 -233 479 -233 q 411 -251 428 -233 q 392 -301 394 -269 l 243 -301 q 296 -126 246 -192 q 435 -61 346 -61 q 523 -81 486 -61 q 588 -122 560 -101 q 640 -143 615 -143 q 685 -126 668 -143 q 703 -79 701 -108 l 851 -79 q 799 -250 850 -185 q 660 -315 749 -315 z "},"V":{"ha":1092,"x_min":-26,"x_max":1118,"o":"m 385 0 l -26 972 l 326 972 l 558 404 l 796 972 l 1118 972 l 707 0 l 385 0 z "},"Ɣ":{"ha":986,"x_min":-40,"x_max":1049,"o":"m 507 -290 q 361 -262 428 -290 q 254 -179 294 -233 q 214 -46 214 -125 q 251 96 214 31 q 339 232 289 161 q 335 238 336 235 l -40 972 l 313 972 l 518 542 l 726 972 l 1049 972 l 689 258 q 681 243 685 251 q 758 101 725 172 q 792 -44 792 31 q 753 -180 792 -125 q 651 -262 715 -235 q 507 -290 586 -290 m 504 57 q 458 -1 476 28 q 439 -56 439 -29 q 460 -101 439 -85 q 504 -117 481 -117 q 547 -101 528 -117 q 567 -57 567 -85 q 549 -1 567 -31 q 504 57 531 28 z "},"Ṿ":{"ha":1092,"x_min":-26,"x_max":1118,"o":"m 385 0 l -26 972 l 326 972 l 558 404 l 796 972 l 1118 972 l 707 0 l 385 0 m 546 -365 q 432 -321 476 -365 q 388 -207 388 -276 q 432 -93 388 -137 q 546 -49 476 -49 q 660 -93 615 -49 q 704 -207 704 -137 q 660 -321 704 -276 q 546 -365 615 -365 z "},"Ʋ":{"ha":1074,"x_min":65,"x_max":1018,"o":"m 539 -22 q 190 99 315 -22 q 65 438 65 219 l 65 972 l 393 972 l 393 447 q 433 290 393 336 q 542 243 474 243 q 651 290 611 243 q 690 447 690 336 l 690 686 q 655 768 690 749 q 567 765 619 788 l 514 986 q 692 1014 603 1013 q 855 984 781 1015 q 974 885 929 953 q 1018 704 1018 817 l 1018 438 q 892 99 1018 219 q 539 -22 767 -22 z "},"Ṽ":{"ha":1092,"x_min":-26,"x_max":1118,"o":"m 385 0 l -26 972 l 326 972 l 558 404 l 796 972 l 1118 972 l 707 0 l 385 0 m 658 1038 q 570 1058 607 1038 q 506 1099 533 1079 q 453 1119 478 1119 q 410 1101 426 1119 q 390 1051 393 1083 l 242 1051 q 294 1226 244 1161 q 433 1292 344 1292 q 522 1272 485 1292 q 586 1231 558 1251 q 639 1210 614 1210 q 683 1227 667 1210 q 701 1274 700 1244 l 850 1274 q 798 1103 849 1168 q 658 1038 747 1038 z "},"Ʌ":{"ha":1092,"x_min":-26,"x_max":1118,"o":"m 707 972 l 1118 0 l 765 0 l 533 568 l 296 0 l -26 0 l 385 972 l 707 972 z "},"W":{"ha":1675,"x_min":14,"x_max":1661,"o":"m 325 0 l 14 972 l 351 972 l 521 419 l 700 972 l 1001 972 l 1171 413 l 1350 972 l 1661 972 l 1350 0 l 999 0 l 842 519 l 676 0 l 325 0 z "},"Ẃ":{"ha":1675,"x_min":14,"x_max":1661,"o":"m 325 0 l 14 972 l 351 972 l 521 419 l 700 972 l 1001 972 l 1171 413 l 1350 972 l 1661 972 l 1350 0 l 999 0 l 842 519 l 676 0 l 325 0 m 692 1051 l 875 1274 l 1174 1274 l 900 1051 l 692 1051 z "},"Ŵ":{"ha":1675,"x_min":14,"x_max":1661,"o":"m 325 0 l 14 972 l 351 972 l 521 419 l 700 972 l 1001 972 l 1171 413 l 1350 972 l 1661 972 l 1350 0 l 999 0 l 842 519 l 676 0 l 325 0 m 526 1051 l 704 1274 l 971 1274 l 1149 1051 l 954 1051 l 838 1158 l 721 1051 l 526 1051 z "},"Ẅ":{"ha":1675,"x_min":14,"x_max":1661,"o":"m 325 0 l 14 972 l 351 972 l 521 419 l 700 972 l 1001 972 l 1171 413 l 1350 972 l 1661 972 l 1350 0 l 999 0 l 842 519 l 676 0 l 325 0 m 683 1040 q 594 1074 631 1040 q 558 1163 558 1107 q 594 1252 558 1218 q 683 1286 631 1286 q 772 1252 736 1286 q 808 1163 808 1218 q 772 1074 808 1107 q 683 1040 736 1040 m 992 1040 q 903 1074 939 1040 q 867 1163 867 1107 q 903 1252 867 1218 q 992 1286 939 1286 q 1081 1252 1044 1286 q 1117 1163 1117 1218 q 1081 1074 1117 1107 q 992 1040 1044 1040 z "},"Ẇ":{"ha":1675,"x_min":14,"x_max":1661,"o":"m 325 0 l 14 972 l 351 972 l 521 419 l 700 972 l 1001 972 l 1171 413 l 1350 972 l 1661 972 l 1350 0 l 999 0 l 842 519 l 676 0 l 325 0 m 838 1038 q 724 1082 768 1038 q 679 1196 679 1126 q 724 1310 679 1265 q 838 1354 768 1354 q 951 1310 907 1354 q 996 1196 996 1265 q 951 1082 996 1126 q 838 1038 907 1038 z "},"Ẉ":{"ha":1675,"x_min":14,"x_max":1661,"o":"m 325 0 l 14 972 l 351 972 l 521 419 l 700 972 l 1001 972 l 1171 413 l 1350 972 l 1661 972 l 1350 0 l 999 0 l 842 519 l 676 0 l 325 0 m 838 -365 q 724 -321 768 -365 q 679 -207 679 -276 q 724 -93 679 -137 q 838 -49 768 -49 q 951 -93 907 -49 q 996 -207 996 -137 q 951 -321 996 -276 q 838 -365 907 -365 z "},"Ẁ":{"ha":1675,"x_min":14,"x_max":1661,"o":"m 325 0 l 14 972 l 351 972 l 521 419 l 700 972 l 1001 972 l 1171 413 l 1350 972 l 1661 972 l 1350 0 l 999 0 l 842 519 l 676 0 l 325 0 m 775 1051 l 501 1274 l 800 1274 l 983 1051 l 775 1051 z "},"Ⱳ":{"ha":1728,"x_min":14,"x_max":1747,"o":"m 325 0 l 14 972 l 351 972 l 521 419 l 700 972 l 1001 972 l 1168 419 l 1283 799 q 1370 962 1315 906 q 1490 1035 1425 1018 q 1623 1040 1556 1053 q 1747 993 1690 1026 l 1668 758 q 1602 762 1629 776 q 1563 706 1575 747 l 1350 0 l 1003 0 l 842 521 l 676 0 l 325 0 z "},"X":{"ha":1058,"x_min":-11,"x_max":1069,"o":"m -11 0 l 340 490 l 1 972 l 369 972 l 535 728 l 696 972 l 1049 972 l 711 503 l 1069 0 l 694 0 l 526 260 l 363 0 l -11 0 z "},"Ẍ":{"ha":1058,"x_min":-11,"x_max":1069,"o":"m -11 0 l 340 490 l 1 972 l 369 972 l 535 728 l 696 972 l 1049 972 l 711 503 l 1069 0 l 694 0 l 526 260 l 363 0 l -11 0 m 375 1040 q 286 1074 322 1040 q 250 1163 250 1107 q 286 1252 250 1218 q 375 1286 322 1286 q 464 1252 428 1286 q 500 1163 500 1218 q 464 1074 500 1107 q 375 1040 428 1040 m 683 1040 q 594 1074 631 1040 q 558 1163 558 1107 q 594 1252 558 1218 q 683 1286 631 1286 q 772 1252 736 1286 q 808 1163 808 1218 q 772 1074 808 1107 q 683 1040 736 1040 z "},"Ẋ":{"ha":1058,"x_min":-11,"x_max":1069,"o":"m -11 0 l 340 490 l 1 972 l 369 972 l 535 728 l 696 972 l 1049 972 l 711 503 l 1069 0 l 694 0 l 526 260 l 363 0 l -11 0 m 529 1038 q 415 1082 460 1038 q 371 1196 371 1126 q 415 1310 371 1265 q 529 1354 460 1354 q 643 1310 599 1354 q 688 1196 688 1265 q 643 1082 688 1126 q 529 1038 599 1038 z "},"Y":{"ha":986,"x_min":-37,"x_max":1024,"o":"m 329 0 l 329 357 l -37 972 l 308 972 l 507 636 l 707 972 l 1024 972 l 657 353 l 657 0 l 329 0 z "},"Ý":{"ha":986,"x_min":-37,"x_max":1024,"o":"m 329 0 l 329 357 l -37 972 l 308 972 l 507 636 l 707 972 l 1024 972 l 657 353 l 657 0 l 329 0 m 347 1051 l 531 1274 l 829 1274 l 556 1051 l 347 1051 z "},"Ŷ":{"ha":986,"x_min":-37,"x_max":1024,"o":"m 329 0 l 329 357 l -37 972 l 308 972 l 507 636 l 707 972 l 1024 972 l 657 353 l 657 0 l 329 0 m 182 1051 l 360 1274 l 626 1274 l 804 1051 l 610 1051 l 493 1158 l 376 1051 l 182 1051 z "},"Ÿ":{"ha":986,"x_min":-37,"x_max":1024,"o":"m 329 0 l 329 357 l -37 972 l 308 972 l 507 636 l 707 972 l 1024 972 l 657 353 l 657 0 l 329 0 m 339 1040 q 250 1074 286 1040 q 214 1163 214 1107 q 250 1252 214 1218 q 339 1286 286 1286 q 428 1252 392 1286 q 464 1163 464 1218 q 428 1074 464 1107 q 339 1040 392 1040 m 647 1040 q 558 1074 594 1040 q 522 1163 522 1107 q 558 1252 522 1218 q 647 1286 594 1286 q 736 1252 700 1286 q 772 1163 772 1218 q 736 1074 772 1107 q 647 1040 700 1040 z "},"Ẏ":{"ha":986,"x_min":-37,"x_max":1024,"o":"m 329 0 l 329 357 l -37 972 l 308 972 l 507 636 l 707 972 l 1024 972 l 657 353 l 657 0 l 329 0 m 493 1038 q 379 1082 424 1038 q 335 1196 335 1126 q 379 1310 335 1265 q 493 1354 424 1354 q 607 1310 563 1354 q 651 1196 651 1265 q 607 1082 651 1126 q 493 1038 563 1038 z "},"Ỵ":{"ha":986,"x_min":-37,"x_max":1024,"o":"m 329 0 l 329 357 l -37 972 l 308 972 l 507 636 l 707 972 l 1024 972 l 657 353 l 657 0 l 329 0 m 493 -365 q 379 -321 424 -365 q 335 -207 335 -276 q 379 -93 335 -137 q 493 -49 424 -49 q 607 -93 563 -49 q 651 -207 651 -137 q 607 -321 651 -276 q 493 -365 563 -365 z "},"Ỳ":{"ha":986,"x_min":-37,"x_max":1024,"o":"m 329 0 l 329 357 l -37 972 l 308 972 l 507 636 l 707 972 l 1024 972 l 657 353 l 657 0 l 329 0 m 431 1051 l 157 1274 l 456 1274 l 639 1051 l 431 1051 z "},"Ƴ":{"ha":1039,"x_min":-37,"x_max":1075,"o":"m 1075 988 l 990 756 q 925 768 951 779 q 879 725 899 757 l 657 350 l 657 0 l 329 0 l 329 357 l -37 972 l 307 972 l 507 635 l 654 883 q 784 1019 713 982 q 931 1044 856 1056 q 1075 988 1007 1033 z "},"Ỷ":{"ha":986,"x_min":-37,"x_max":1024,"o":"m 329 0 l 329 357 l -37 972 l 308 972 l 507 636 l 707 972 l 1024 972 l 657 353 l 657 0 l 329 0 m 497 1007 l 403 1097 q 455 1135 443 1117 q 467 1172 467 1154 q 451 1211 467 1197 q 408 1225 435 1225 q 329 1197 369 1225 l 265 1314 q 360 1360 314 1346 q 449 1375 407 1375 q 554 1350 508 1375 q 626 1284 600 1325 q 651 1196 651 1243 q 615 1094 651 1144 q 497 1007 579 1043 z "},"Ȳ":{"ha":986,"x_min":-37,"x_max":1024,"o":"m 329 0 l 329 357 l -37 972 l 308 972 l 507 636 l 707 972 l 1024 972 l 657 353 l 657 0 l 329 0 m 201 1081 l 201 1244 l 785 1244 l 785 1081 l 201 1081 z "},"Ʀ":{"ha":1035,"x_min":79,"x_max":1011,"o":"m 79 0 l 79 972 l 407 972 l 407 896 l 533 896 q 874 797 757 896 q 990 529 990 699 q 940 342 990 421 q 797 218 889 263 l 1011 -139 l 661 -139 l 481 168 l 407 168 l 407 0 l 79 0 m 407 643 l 407 415 l 526 415 q 627 446 594 415 q 660 529 660 476 q 627 613 660 582 q 526 643 594 643 l 407 643 z "},"Ɏ":{"ha":986,"x_min":-37,"x_max":1024,"o":"m 329 0 l 329 333 l 125 690 l -18 690 l -18 879 l 15 879 l -37 972 l 281 972 l 331 879 l 685 879 l 735 972 l 1024 972 l 971 879 l 1003 879 l 1003 690 l 863 690 l 657 329 l 657 0 l 329 0 m 582 690 l 432 690 l 507 553 l 582 690 z "},"Ỹ":{"ha":986,"x_min":-37,"x_max":1024,"o":"m 329 0 l 329 357 l -37 972 l 308 972 l 507 636 l 707 972 l 1024 972 l 657 353 l 657 0 l 329 0 m 606 1038 q 517 1058 554 1038 q 453 1099 481 1079 q 400 1119 425 1119 q 357 1101 374 1119 q 338 1051 340 1083 l 189 1051 q 242 1226 192 1161 q 381 1292 292 1292 q 469 1272 432 1292 q 533 1231 506 1251 q 586 1210 561 1210 q 631 1227 614 1210 q 649 1274 647 1244 l 797 1274 q 745 1103 796 1168 q 606 1038 694 1038 z "},"Z":{"ha":954,"x_min":44,"x_max":938,"o":"m 44 0 l 44 201 l 489 718 l 58 718 l 58 972 l 915 972 l 915 771 l 471 254 l 938 254 l 938 0 l 44 0 z "},"Ź":{"ha":954,"x_min":44,"x_max":938,"o":"m 44 0 l 44 201 l 489 718 l 58 718 l 58 972 l 915 972 l 915 771 l 471 254 l 938 254 l 938 0 l 44 0 m 346 1051 l 529 1274 l 828 1274 l 554 1051 l 346 1051 z "},"Ž":{"ha":954,"x_min":44,"x_max":938,"o":"m 44 0 l 44 201 l 489 718 l 58 718 l 58 972 l 915 972 l 915 771 l 471 254 l 938 254 l 938 0 l 44 0 m 358 1051 l 181 1274 l 375 1274 l 492 1167 l 608 1274 l 803 1274 l 625 1051 l 358 1051 z "},"Ẑ":{"ha":954,"x_min":44,"x_max":938,"o":"m 44 0 l 44 201 l 489 718 l 58 718 l 58 972 l 915 972 l 915 771 l 471 254 l 938 254 l 938 0 l 44 0 m 181 1051 l 358 1274 l 625 1274 l 803 1051 l 608 1051 l 492 1158 l 375 1051 l 181 1051 z "},"Ż":{"ha":954,"x_min":44,"x_max":938,"o":"m 44 0 l 44 201 l 489 718 l 58 718 l 58 972 l 915 972 l 915 771 l 471 254 l 938 254 l 938 0 l 44 0 m 492 1038 q 378 1082 422 1038 q 333 1196 333 1126 q 378 1310 333 1265 q 492 1354 422 1354 q 606 1310 561 1354 q 650 1196 650 1265 q 606 1082 650 1126 q 492 1038 561 1038 z "},"Ẓ":{"ha":954,"x_min":44,"x_max":938,"o":"m 44 0 l 44 201 l 489 718 l 58 718 l 58 972 l 915 972 l 915 771 l 471 254 l 938 254 l 938 0 l 44 0 m 492 -365 q 378 -321 422 -365 q 333 -207 333 -276 q 378 -93 333 -137 q 492 -49 422 -49 q 606 -93 561 -49 q 650 -207 650 -137 q 606 -321 650 -276 q 492 -365 561 -365 z "},"Ẕ":{"ha":954,"x_min":44,"x_max":938,"o":"m 44 0 l 44 201 l 489 718 l 58 718 l 58 972 l 915 972 l 915 771 l 471 254 l 938 254 l 938 0 l 44 0 m 200 -268 l 200 -104 l 783 -104 l 783 -268 l 200 -268 z "},"Ƶ":{"ha":954,"x_min":44,"x_max":938,"o":"m 44 0 l 44 201 l 214 399 l 149 399 l 149 588 l 376 588 l 489 718 l 58 718 l 58 972 l 915 972 l 915 771 l 758 588 l 825 588 l 825 399 l 596 399 l 471 254 l 938 254 l 938 0 l 44 0 z "},"Ꞌ":{"ha":475,"x_min":76,"x_max":399,"o":"m 76 411 l 76 974 l 399 974 l 357 411 l 76 411 z "},"ɪ":{"ha":606,"x_min":32,"x_max":574,"o":"m 32 538 l 32 760 l 574 760 l 574 538 l 460 538 l 460 222 l 574 222 l 574 0 l 32 0 l 32 222 l 146 222 l 146 538 l 32 538 z "},"ᵻ":{"ha":675,"x_min":67,"x_max":608,"o":"m 67 538 l 67 760 l 608 760 l 608 538 l 494 538 l 494 463 l 585 463 l 585 310 l 494 310 l 494 222 l 608 222 l 608 0 l 67 0 l 67 222 l 181 222 l 181 310 l 90 310 l 90 463 l 181 463 l 181 538 l 67 538 z "},"ɴ":{"ha":946,"x_min":54,"x_max":892,"o":"m 54 0 l 54 760 l 307 760 l 586 478 l 586 760 l 892 760 l 892 0 l 640 0 l 360 290 l 360 0 l 54 0 z "},"ʀ":{"ha":899,"x_min":69,"x_max":886,"o":"m 69 0 l 69 760 l 485 760 q 768 680 668 760 q 868 469 868 600 q 828 330 868 390 q 718 233 789 269 l 886 0 l 551 0 l 419 185 l 382 185 l 382 0 l 69 0 m 382 413 l 471 413 q 550 469 550 413 q 471 526 550 526 l 382 526 l 382 413 z "},"ᵾ":{"ha":1028,"x_min":-7,"x_max":1007,"o":"m 403 -14 q 240 23 313 -14 q 125 138 167 60 q 83 340 83 217 l 83 406 l -7 406 l -7 558 l 83 558 l 83 760 l 397 760 l 397 558 l 603 558 l 603 760 l 917 760 l 917 558 l 1007 558 l 1007 406 l 917 406 l 917 0 l 618 0 l 618 72 q 519 7 575 28 q 403 -14 464 -14 m 603 406 l 397 406 l 397 394 q 424 282 397 314 q 496 250 450 250 q 569 284 536 250 q 603 403 603 318 l 603 406 z "},"a":{"ha":888,"x_min":32,"x_max":821,"o":"m 529 0 l 529 100 q 314 -14 475 -14 q 158 18 221 -14 q 64 103 96 50 q 32 222 32 157 q 117 392 32 333 q 379 451 203 451 l 506 451 q 464 517 499 494 q 363 540 429 540 q 258 524 311 540 q 168 481 206 508 l 68 688 q 228 751 135 729 q 410 774 321 774 q 713 686 606 774 q 821 408 821 599 l 821 0 l 529 0 m 507 247 l 507 300 l 429 300 q 333 236 333 300 q 353 192 333 210 q 408 175 374 175 q 467 192 440 175 q 507 247 494 210 z "},"á":{"ha":888,"x_min":32,"x_max":821,"o":"m 529 0 l 529 100 q 314 -14 475 -14 q 158 18 221 -14 q 64 103 96 50 q 32 222 32 157 q 117 392 32 333 q 379 451 203 451 l 506 451 q 464 517 499 494 q 363 540 429 540 q 258 524 311 540 q 168 481 206 508 l 68 688 q 228 751 135 729 q 410 774 321 774 q 713 686 606 774 q 821 408 821 599 l 821 0 l 529 0 m 507 247 l 507 300 l 429 300 q 333 236 333 300 q 353 192 333 210 q 408 175 374 175 q 467 192 440 175 q 507 247 494 210 m 300 843 l 483 1065 l 782 1065 l 508 843 l 300 843 z "},"ă":{"ha":888,"x_min":32,"x_max":821,"o":"m 529 0 l 529 100 q 314 -14 475 -14 q 158 18 221 -14 q 64 103 96 50 q 32 222 32 157 q 117 392 32 333 q 379 451 203 451 l 506 451 q 464 517 499 494 q 363 540 429 540 q 258 524 311 540 q 168 481 206 508 l 68 688 q 228 751 135 729 q 410 774 321 774 q 713 686 606 774 q 821 408 821 599 l 821 0 l 529 0 m 507 247 l 507 300 l 429 300 q 333 236 333 300 q 353 192 333 210 q 408 175 374 175 q 467 192 440 175 q 507 247 494 210 m 446 829 q 241 892 321 829 q 156 1065 161 956 l 343 1065 q 374 1003 346 1026 q 446 981 403 981 q 517 1003 489 981 q 549 1065 546 1026 l 736 1065 q 651 892 731 956 q 446 829 571 829 z "},"ắ":{"ha":888,"x_min":32,"x_max":821,"o":"m 529 0 l 529 100 q 314 -14 475 -14 q 158 18 221 -14 q 64 103 96 50 q 32 222 32 157 q 117 392 32 333 q 379 451 203 451 l 506 451 q 464 517 499 494 q 363 540 429 540 q 258 524 311 540 q 168 481 206 508 l 68 688 q 228 751 135 729 q 410 774 321 774 q 713 686 606 774 q 821 408 821 599 l 821 0 l 529 0 m 507 247 l 507 300 l 429 300 q 333 236 333 300 q 353 192 333 210 q 408 175 374 175 q 467 192 440 175 q 507 247 494 210 m 446 835 q 242 888 321 835 q 156 1029 163 940 l 332 1029 q 367 987 336 1003 q 446 971 399 971 q 525 987 494 971 q 560 1029 556 1003 l 736 1029 q 651 888 731 940 q 446 835 571 835 m 300 1076 l 442 1257 l 740 1257 l 508 1076 l 300 1076 z "},"ặ":{"ha":888,"x_min":32,"x_max":821,"o":"m 529 0 l 529 100 q 314 -14 475 -14 q 158 18 221 -14 q 64 103 96 50 q 32 222 32 157 q 117 392 32 333 q 379 451 203 451 l 506 451 q 464 517 499 494 q 363 540 429 540 q 258 524 311 540 q 168 481 206 508 l 68 688 q 228 751 135 729 q 410 774 321 774 q 713 686 606 774 q 821 408 821 599 l 821 0 l 529 0 m 507 247 l 507 300 l 429 300 q 333 236 333 300 q 353 192 333 210 q 408 175 374 175 q 467 192 440 175 q 507 247 494 210 m 414 -367 q 300 -322 344 -367 q 256 -208 256 -278 q 300 -94 256 -139 q 414 -50 344 -50 q 528 -94 483 -50 q 572 -208 572 -139 q 528 -322 572 -278 q 414 -367 483 -367 m 446 829 q 241 892 321 829 q 156 1065 161 956 l 343 1065 q 374 1003 346 1026 q 446 981 403 981 q 517 1003 489 981 q 549 1065 546 1026 l 736 1065 q 651 892 731 956 q 446 829 571 829 z "},"ằ":{"ha":888,"x_min":32,"x_max":821,"o":"m 529 0 l 529 100 q 314 -14 475 -14 q 158 18 221 -14 q 64 103 96 50 q 32 222 32 157 q 117 392 32 333 q 379 451 203 451 l 506 451 q 464 517 499 494 q 363 540 429 540 q 258 524 311 540 q 168 481 206 508 l 68 688 q 228 751 135 729 q 410 774 321 774 q 713 686 606 774 q 821 408 821 599 l 821 0 l 529 0 m 507 247 l 507 300 l 429 300 q 333 236 333 300 q 353 192 333 210 q 408 175 374 175 q 467 192 440 175 q 507 247 494 210 m 446 835 q 242 888 321 835 q 156 1029 163 940 l 332 1029 q 367 987 336 1003 q 446 971 399 971 q 525 987 494 971 q 560 1029 556 1003 l 736 1029 q 651 888 731 940 q 446 835 571 835 m 383 1076 l 151 1257 l 450 1257 l 592 1076 l 383 1076 z "},"ẳ":{"ha":888,"x_min":32,"x_max":821,"o":"m 529 0 l 529 100 q 314 -14 475 -14 q 158 18 221 -14 q 64 103 96 50 q 32 222 32 157 q 117 392 32 333 q 379 451 203 451 l 506 451 q 464 517 499 494 q 363 540 429 540 q 258 524 311 540 q 168 481 206 508 l 68 688 q 228 751 135 729 q 410 774 321 774 q 713 686 606 774 q 821 408 821 599 l 821 0 l 529 0 m 507 247 l 507 300 l 429 300 q 333 236 333 300 q 353 192 333 210 q 408 175 374 175 q 467 192 440 175 q 507 247 494 210 m 446 835 q 242 888 321 835 q 156 1029 163 940 l 332 1029 q 367 987 336 1003 q 446 971 399 971 q 525 987 494 971 q 560 1029 556 1003 l 736 1029 q 651 888 731 940 q 446 835 571 835 m 494 1035 l 422 1097 q 460 1126 450 1113 q 469 1149 469 1139 q 458 1174 469 1164 q 429 1183 447 1183 q 365 1167 399 1183 l 318 1251 q 381 1278 346 1269 q 456 1286 417 1286 q 563 1253 522 1286 q 604 1164 604 1221 q 572 1085 604 1118 q 494 1035 539 1051 z "},"ẵ":{"ha":888,"x_min":32,"x_max":821,"o":"m 529 0 l 529 100 q 314 -14 475 -14 q 158 18 221 -14 q 64 103 96 50 q 32 222 32 157 q 117 392 32 333 q 379 451 203 451 l 506 451 q 464 517 499 494 q 363 540 429 540 q 258 524 311 540 q 168 481 206 508 l 68 688 q 228 751 135 729 q 410 774 321 774 q 713 686 606 774 q 821 408 821 599 l 821 0 l 529 0 m 507 247 l 507 300 l 429 300 q 333 236 333 300 q 353 192 333 210 q 408 175 374 175 q 467 192 440 175 q 507 247 494 210 m 446 835 q 242 888 321 835 q 156 1029 163 940 l 332 1029 q 367 987 336 1003 q 446 971 399 971 q 525 987 494 971 q 560 1029 556 1003 l 736 1029 q 651 888 731 940 q 446 835 571 835 m 558 1089 q 486 1100 515 1089 q 437 1125 457 1111 q 399 1150 417 1139 q 360 1161 381 1161 q 320 1144 336 1161 q 301 1101 304 1128 l 149 1101 q 199 1249 149 1196 q 335 1301 250 1301 q 425 1283 390 1301 q 485 1247 460 1265 q 536 1229 510 1229 q 577 1247 561 1229 q 594 1289 593 1265 l 743 1289 q 694 1141 743 1193 q 558 1089 644 1089 z "},"ǎ":{"ha":888,"x_min":32,"x_max":821,"o":"m 529 0 l 529 100 q 314 -14 475 -14 q 158 18 221 -14 q 64 103 96 50 q 32 222 32 157 q 117 392 32 333 q 379 451 203 451 l 506 451 q 464 517 499 494 q 363 540 429 540 q 258 524 311 540 q 168 481 206 508 l 68 688 q 228 751 135 729 q 410 774 321 774 q 713 686 606 774 q 821 408 821 599 l 821 0 l 529 0 m 507 247 l 507 300 l 429 300 q 333 236 333 300 q 353 192 333 210 q 408 175 374 175 q 467 192 440 175 q 507 247 494 210 m 313 843 l 135 1065 l 329 1065 l 446 958 l 563 1065 l 757 1065 l 579 843 l 313 843 z "},"â":{"ha":888,"x_min":32,"x_max":821,"o":"m 529 0 l 529 100 q 314 -14 475 -14 q 158 18 221 -14 q 64 103 96 50 q 32 222 32 157 q 117 392 32 333 q 379 451 203 451 l 506 451 q 464 517 499 494 q 363 540 429 540 q 258 524 311 540 q 168 481 206 508 l 68 688 q 228 751 135 729 q 410 774 321 774 q 713 686 606 774 q 821 408 821 599 l 821 0 l 529 0 m 507 247 l 507 300 l 429 300 q 333 236 333 300 q 353 192 333 210 q 408 175 374 175 q 467 192 440 175 q 507 247 494 210 m 135 843 l 313 1065 l 579 1065 l 757 843 l 563 843 l 446 950 l 329 843 l 135 843 z "},"ấ":{"ha":888,"x_min":32,"x_max":1088,"o":"m 529 0 l 529 100 q 314 -14 475 -14 q 158 18 221 -14 q 64 103 96 50 q 32 222 32 157 q 117 392 32 333 q 379 451 203 451 l 506 451 q 464 517 499 494 q 363 540 429 540 q 258 524 311 540 q 168 481 206 508 l 68 688 q 228 751 135 729 q 410 774 321 774 q 713 686 606 774 q 821 408 821 599 l 821 0 l 529 0 m 507 247 l 507 300 l 429 300 q 333 236 333 300 q 353 192 333 210 q 408 175 374 175 q 467 192 440 175 q 507 247 494 210 m 135 843 l 314 1024 l 578 1024 l 757 843 l 563 843 l 446 928 l 329 843 l 135 843 m 647 989 l 789 1169 l 1088 1169 l 856 989 l 647 989 z "},"ậ":{"ha":888,"x_min":32,"x_max":821,"o":"m 529 0 l 529 100 q 314 -14 475 -14 q 158 18 221 -14 q 64 103 96 50 q 32 222 32 157 q 117 392 32 333 q 379 451 203 451 l 506 451 q 464 517 499 494 q 363 540 429 540 q 258 524 311 540 q 168 481 206 508 l 68 688 q 228 751 135 729 q 410 774 321 774 q 713 686 606 774 q 821 408 821 599 l 821 0 l 529 0 m 507 247 l 507 300 l 429 300 q 333 236 333 300 q 353 192 333 210 q 408 175 374 175 q 467 192 440 175 q 507 247 494 210 m 414 -367 q 300 -322 344 -367 q 256 -208 256 -278 q 300 -94 256 -139 q 414 -50 344 -50 q 528 -94 483 -50 q 572 -208 572 -139 q 528 -322 572 -278 q 414 -367 483 -367 m 135 843 l 313 1065 l 579 1065 l 757 843 l 563 843 l 446 950 l 329 843 l 135 843 z "},"ầ":{"ha":888,"x_min":32,"x_max":939,"o":"m 529 0 l 529 100 q 314 -14 475 -14 q 158 18 221 -14 q 64 103 96 50 q 32 222 32 157 q 117 392 32 333 q 379 451 203 451 l 506 451 q 464 517 499 494 q 363 540 429 540 q 258 524 311 540 q 168 481 206 508 l 68 688 q 228 751 135 729 q 410 774 321 774 q 713 686 606 774 q 821 408 821 599 l 821 0 l 529 0 m 507 247 l 507 300 l 429 300 q 333 236 333 300 q 353 192 333 210 q 408 175 374 175 q 467 192 440 175 q 507 247 494 210 m 135 843 l 314 1024 l 578 1024 l 757 843 l 563 843 l 446 928 l 329 843 l 135 843 m 731 989 l 499 1169 l 797 1169 l 939 989 l 731 989 z "},"ẩ":{"ha":888,"x_min":32,"x_max":854,"o":"m 529 0 l 529 100 q 314 -14 475 -14 q 158 18 221 -14 q 64 103 96 50 q 32 222 32 157 q 117 392 32 333 q 379 451 203 451 l 506 451 q 464 517 499 494 q 363 540 429 540 q 258 524 311 540 q 168 481 206 508 l 68 688 q 228 751 135 729 q 410 774 321 774 q 713 686 606 774 q 821 408 821 599 l 821 0 l 529 0 m 507 247 l 507 300 l 429 300 q 333 236 333 300 q 353 192 333 210 q 408 175 374 175 q 467 192 440 175 q 507 247 494 210 m 135 843 l 314 1024 l 578 1024 l 757 843 l 563 843 l 446 928 l 329 843 l 135 843 m 744 961 l 672 1024 q 710 1052 700 1039 q 719 1075 719 1065 q 708 1100 719 1090 q 679 1110 697 1110 q 615 1093 649 1110 l 568 1178 q 631 1204 596 1196 q 706 1213 667 1213 q 813 1180 772 1213 q 854 1090 854 1147 q 822 1011 854 1044 q 744 961 789 978 z "},"ẫ":{"ha":888,"x_min":32,"x_max":821,"o":"m 529 0 l 529 100 q 314 -14 475 -14 q 158 18 221 -14 q 64 103 96 50 q 32 222 32 157 q 117 392 32 333 q 379 451 203 451 l 506 451 q 464 517 499 494 q 363 540 429 540 q 258 524 311 540 q 168 481 206 508 l 68 688 q 228 751 135 729 q 410 774 321 774 q 713 686 606 774 q 821 408 821 599 l 821 0 l 529 0 m 507 247 l 507 300 l 429 300 q 333 236 333 300 q 353 192 333 210 q 408 175 374 175 q 467 192 440 175 q 507 247 494 210 m 135 843 l 314 1024 l 578 1024 l 757 843 l 563 843 l 446 928 l 329 843 l 135 843 m 558 1083 q 486 1094 515 1083 q 437 1119 457 1106 q 399 1144 417 1133 q 360 1156 381 1156 q 320 1139 336 1156 q 301 1096 304 1122 l 149 1096 q 199 1243 149 1190 q 335 1296 250 1296 q 425 1278 390 1296 q 485 1242 460 1260 q 536 1224 510 1224 q 577 1242 561 1224 q 594 1283 593 1260 l 743 1283 q 694 1135 743 1188 q 558 1083 644 1083 z "},"ȁ":{"ha":888,"x_min":32,"x_max":821,"o":"m 529 0 l 529 100 q 314 -14 475 -14 q 158 18 221 -14 q 64 103 96 50 q 32 222 32 157 q 117 392 32 333 q 379 451 203 451 l 506 451 q 464 517 499 494 q 363 540 429 540 q 258 524 311 540 q 168 481 206 508 l 68 688 q 228 751 135 729 q 410 774 321 774 q 713 686 606 774 q 821 408 821 599 l 821 0 l 529 0 m 507 247 l 507 300 l 429 300 q 333 236 333 300 q 353 192 333 210 q 408 175 374 175 q 467 192 440 175 q 507 247 494 210 m 179 843 l 44 1065 l 315 1065 l 388 843 l 179 843 m 504 843 l 369 1065 l 640 1065 l 713 843 l 504 843 z "},"ä":{"ha":888,"x_min":32,"x_max":821,"o":"m 529 0 l 529 100 q 314 -14 475 -14 q 158 18 221 -14 q 64 103 96 50 q 32 222 32 157 q 117 392 32 333 q 379 451 203 451 l 506 451 q 464 517 499 494 q 363 540 429 540 q 258 524 311 540 q 168 481 206 508 l 68 688 q 228 751 135 729 q 410 774 321 774 q 713 686 606 774 q 821 408 821 599 l 821 0 l 529 0 m 507 247 l 507 300 l 429 300 q 333 236 333 300 q 353 192 333 210 q 408 175 374 175 q 467 192 440 175 q 507 247 494 210 m 292 832 q 203 865 239 832 q 167 954 167 899 q 203 1044 167 1010 q 292 1078 239 1078 q 381 1044 344 1078 q 417 954 417 1010 q 381 865 417 899 q 292 832 344 832 m 600 832 q 511 865 547 832 q 475 954 475 899 q 511 1044 475 1010 q 600 1078 547 1078 q 689 1044 653 1078 q 725 954 725 1010 q 689 865 725 899 q 600 832 653 832 z "},"ǟ":{"ha":888,"x_min":32,"x_max":821,"o":"m 529 0 l 529 100 q 314 -14 475 -14 q 158 18 221 -14 q 64 103 96 50 q 32 222 32 157 q 117 392 32 333 q 379 451 203 451 l 506 451 q 464 517 499 494 q 363 540 429 540 q 258 524 311 540 q 168 481 206 508 l 68 688 q 228 751 135 729 q 410 774 321 774 q 713 686 606 774 q 821 408 821 599 l 821 0 l 529 0 m 507 247 l 507 300 l 429 300 q 333 236 333 300 q 353 192 333 210 q 408 175 374 175 q 467 192 440 175 q 507 247 494 210 m 299 832 q 215 864 249 832 q 181 947 181 896 q 215 1032 181 1000 q 299 1064 249 1064 q 383 1032 349 1064 q 417 947 417 1000 q 383 864 417 896 q 299 832 349 832 m 593 832 q 509 864 543 832 q 475 947 475 896 q 509 1032 475 1000 q 593 1064 543 1064 q 677 1032 643 1064 q 711 947 711 1000 q 677 864 711 896 q 593 832 643 832 m 154 1129 l 154 1285 l 738 1285 l 738 1129 l 154 1129 z "},"ȧ":{"ha":888,"x_min":32,"x_max":821,"o":"m 529 0 l 529 100 q 314 -14 475 -14 q 158 18 221 -14 q 64 103 96 50 q 32 222 32 157 q 117 392 32 333 q 379 451 203 451 l 506 451 q 464 517 499 494 q 363 540 429 540 q 258 524 311 540 q 168 481 206 508 l 68 688 q 228 751 135 729 q 410 774 321 774 q 713 686 606 774 q 821 408 821 599 l 821 0 l 529 0 m 507 247 l 507 300 l 429 300 q 333 236 333 300 q 353 192 333 210 q 408 175 374 175 q 467 192 440 175 q 507 247 494 210 m 446 829 q 332 874 376 829 q 288 988 288 918 q 332 1101 288 1057 q 446 1146 376 1146 q 560 1101 515 1146 q 604 988 604 1057 q 560 874 604 918 q 446 829 515 829 z "},"ạ":{"ha":888,"x_min":32,"x_max":821,"o":"m 529 0 l 529 100 q 314 -14 475 -14 q 158 18 221 -14 q 64 103 96 50 q 32 222 32 157 q 117 392 32 333 q 379 451 203 451 l 506 451 q 464 517 499 494 q 363 540 429 540 q 258 524 311 540 q 168 481 206 508 l 68 688 q 228 751 135 729 q 410 774 321 774 q 713 686 606 774 q 821 408 821 599 l 821 0 l 529 0 m 507 247 l 507 300 l 429 300 q 333 236 333 300 q 353 192 333 210 q 408 175 374 175 q 467 192 440 175 q 507 247 494 210 m 414 -367 q 300 -322 344 -367 q 256 -208 256 -278 q 300 -94 256 -139 q 414 -50 344 -50 q 528 -94 483 -50 q 572 -208 572 -139 q 528 -322 572 -278 q 414 -367 483 -367 z "},"ǡ":{"ha":888,"x_min":32,"x_max":821,"o":"m 529 0 l 529 100 q 314 -14 475 -14 q 158 18 221 -14 q 64 103 96 50 q 32 222 32 157 q 117 392 32 333 q 379 451 203 451 l 506 451 q 464 517 499 494 q 363 540 429 540 q 258 524 311 540 q 168 481 206 508 l 68 688 q 228 751 135 729 q 410 774 321 774 q 713 686 606 774 q 821 408 821 599 l 821 0 l 529 0 m 507 247 l 507 300 l 429 300 q 333 236 333 300 q 353 192 333 210 q 408 175 374 175 q 467 192 440 175 q 507 247 494 210 m 446 829 q 357 862 393 829 q 321 950 321 894 q 357 1040 321 1006 q 446 1074 393 1074 q 535 1040 499 1074 q 571 950 571 1006 q 535 862 571 894 q 446 829 499 829 m 154 1129 l 154 1285 l 738 1285 l 738 1129 l 154 1129 z "},"à":{"ha":888,"x_min":32,"x_max":821,"o":"m 529 0 l 529 100 q 314 -14 475 -14 q 158 18 221 -14 q 64 103 96 50 q 32 222 32 157 q 117 392 32 333 q 379 451 203 451 l 506 451 q 464 517 499 494 q 363 540 429 540 q 258 524 311 540 q 168 481 206 508 l 68 688 q 228 751 135 729 q 410 774 321 774 q 713 686 606 774 q 821 408 821 599 l 821 0 l 529 0 m 507 247 l 507 300 l 429 300 q 333 236 333 300 q 353 192 333 210 q 408 175 374 175 q 467 192 440 175 q 507 247 494 210 m 383 843 l 110 1065 l 408 1065 l 592 843 l 383 843 z "},"ả":{"ha":888,"x_min":32,"x_max":821,"o":"m 529 0 l 529 100 q 314 -14 475 -14 q 158 18 221 -14 q 64 103 96 50 q 32 222 32 157 q 117 392 32 333 q 379 451 203 451 l 506 451 q 464 517 499 494 q 363 540 429 540 q 258 524 311 540 q 168 481 206 508 l 68 688 q 228 751 135 729 q 410 774 321 774 q 713 686 606 774 q 821 408 821 599 l 821 0 l 529 0 m 507 247 l 507 300 l 429 300 q 333 236 333 300 q 353 192 333 210 q 408 175 374 175 q 467 192 440 175 q 507 247 494 210 m 478 813 l 383 903 q 435 941 424 922 q 447 978 447 960 q 431 1017 447 1003 q 389 1031 415 1031 q 310 1003 350 1031 l 246 1119 q 341 1166 294 1151 q 429 1181 388 1181 q 535 1156 489 1181 q 606 1090 581 1131 q 632 1001 632 1049 q 596 899 632 950 q 478 813 560 849 z "},"ȃ":{"ha":888,"x_min":32,"x_max":821,"o":"m 529 0 l 529 100 q 314 -14 475 -14 q 158 18 221 -14 q 64 103 96 50 q 32 222 32 157 q 117 392 32 333 q 379 451 203 451 l 506 451 q 464 517 499 494 q 363 540 429 540 q 258 524 311 540 q 168 481 206 508 l 68 688 q 228 751 135 729 q 410 774 321 774 q 713 686 606 774 q 821 408 821 599 l 821 0 l 529 0 m 507 247 l 507 300 l 429 300 q 333 236 333 300 q 353 192 333 210 q 408 175 374 175 q 467 192 440 175 q 507 247 494 210 m 156 843 q 241 1016 161 953 q 446 1079 321 1079 q 651 1016 571 1079 q 736 843 731 953 l 549 843 q 517 905 546 882 q 446 928 489 928 q 374 905 403 928 q 343 843 346 882 l 156 843 z "},"ɑ":{"ha":972,"x_min":29,"x_max":903,"o":"m 396 -14 q 213 34 297 -14 q 79 170 129 82 q 29 381 29 258 q 79 591 29 503 q 213 726 129 679 q 396 774 297 774 q 589 708 519 774 l 589 760 l 903 760 l 903 0 l 604 0 l 604 63 q 396 -14 536 -14 m 471 231 q 559 269 524 231 q 594 381 594 307 q 559 492 594 454 q 471 529 524 529 q 383 492 419 529 q 347 381 347 454 q 383 269 347 307 q 471 231 419 231 z "},"ā":{"ha":888,"x_min":32,"x_max":821,"o":"m 529 0 l 529 100 q 314 -14 475 -14 q 158 18 221 -14 q 64 103 96 50 q 32 222 32 157 q 117 392 32 333 q 379 451 203 451 l 506 451 q 464 517 499 494 q 363 540 429 540 q 258 524 311 540 q 168 481 206 508 l 68 688 q 228 751 135 729 q 410 774 321 774 q 713 686 606 774 q 821 408 821 599 l 821 0 l 529 0 m 507 247 l 507 300 l 429 300 q 333 236 333 300 q 353 192 333 210 q 408 175 374 175 q 467 192 440 175 q 507 247 494 210 m 154 872 l 154 1036 l 738 1036 l 738 872 l 154 872 z "},"ą":{"ha":888,"x_min":32,"x_max":856,"o":"m 529 0 l 529 100 q 314 -14 475 -14 q 158 18 221 -14 q 64 103 96 50 q 32 222 32 157 q 117 392 32 333 q 379 451 203 451 l 506 451 q 464 517 499 494 q 363 540 429 540 q 258 524 311 540 q 168 481 206 508 l 68 688 q 228 751 135 729 q 410 774 321 774 q 713 686 606 774 q 821 408 821 599 l 821 0 l 529 0 m 507 247 l 507 300 l 429 300 q 333 236 333 300 q 353 192 333 210 q 408 175 374 175 q 467 192 440 175 q 507 247 494 210 m 699 -333 q 537 -287 594 -333 q 479 -162 479 -240 q 540 -26 479 -85 q 711 68 601 33 l 821 0 q 697 -71 731 -39 q 663 -135 663 -103 q 680 -175 663 -158 q 736 -192 697 -192 q 781 -185 760 -192 q 818 -172 803 -179 l 856 -301 q 787 -324 831 -315 q 699 -333 743 -333 z "},"ẚ":{"ha":888,"x_min":32,"x_max":821,"o":"m 529 0 l 529 100 q 314 -14 475 -14 q 158 18 221 -14 q 64 103 96 50 q 32 222 32 157 q 117 392 32 333 q 379 451 203 451 l 506 451 q 464 517 499 494 q 363 540 429 540 q 258 524 311 540 q 168 481 206 508 l 68 688 q 228 751 135 729 q 410 774 321 774 q 713 686 606 774 q 821 408 821 599 l 821 0 l 529 0 m 507 247 l 507 300 l 429 300 q 333 236 333 300 q 353 192 333 210 q 408 175 374 175 q 467 192 440 175 q 507 247 494 210 m 363 819 l 363 931 q 416 951 394 931 q 438 1006 438 972 q 416 1060 438 1039 q 363 1081 394 1081 l 363 1192 q 462 1167 418 1192 q 531 1100 506 1142 q 557 1006 557 1058 q 531 912 557 954 q 462 844 506 869 q 363 819 418 819 z "},"å":{"ha":888,"x_min":32,"x_max":821,"o":"m 529 0 l 529 100 q 314 -14 475 -14 q 158 18 221 -14 q 64 103 96 50 q 32 222 32 157 q 117 392 32 333 q 379 451 203 451 l 506 451 q 464 517 499 494 q 363 540 429 540 q 258 524 311 540 q 168 481 206 508 l 68 688 q 228 751 135 729 q 410 774 321 774 q 713 686 606 774 q 821 408 821 599 l 821 0 l 529 0 m 507 247 l 507 300 l 429 300 q 333 236 333 300 q 353 192 333 210 q 408 175 374 175 q 467 192 440 175 q 507 247 494 210 m 446 819 q 347 844 392 819 q 277 912 303 869 q 251 1006 251 954 q 277 1100 251 1058 q 347 1167 303 1142 q 446 1192 392 1192 q 545 1167 501 1192 q 615 1100 589 1142 q 640 1006 640 1058 q 615 912 640 954 q 545 844 589 869 q 446 819 501 819 m 446 931 q 499 951 478 931 q 521 1006 521 972 q 499 1060 521 1039 q 446 1081 478 1081 q 393 1060 415 1081 q 371 1006 371 1039 q 393 951 371 972 q 446 931 415 931 z "},"ǻ":{"ha":888,"x_min":32,"x_max":821,"o":"m 529 0 l 529 100 q 314 -14 475 -14 q 158 18 221 -14 q 64 103 96 50 q 32 222 32 157 q 117 392 32 333 q 379 451 203 451 l 506 451 q 464 517 499 494 q 363 540 429 540 q 258 524 311 540 q 168 481 206 508 l 68 688 q 228 751 135 729 q 410 774 321 774 q 713 686 606 774 q 821 408 821 599 l 821 0 l 529 0 m 507 247 l 507 300 l 429 300 q 333 236 333 300 q 353 192 333 210 q 408 175 374 175 q 467 192 440 175 q 507 247 494 210 m 446 819 q 347 844 392 819 q 277 912 303 869 q 251 1006 251 954 q 277 1100 251 1058 q 347 1167 303 1142 q 446 1192 392 1192 q 511 1182 479 1192 l 639 1317 l 790 1204 l 618 1093 q 640 1006 640 1053 q 615 912 640 954 q 545 844 589 869 q 446 819 501 819 m 446 931 q 499 951 478 931 q 521 1006 521 972 q 499 1060 521 1039 q 446 1081 478 1081 q 393 1060 415 1081 q 371 1006 371 1039 q 393 951 371 972 q 446 931 415 931 z "},"ḁ":{"ha":888,"x_min":32,"x_max":821,"o":"m 529 0 l 529 100 q 314 -14 475 -14 q 158 18 221 -14 q 64 103 96 50 q 32 222 32 157 q 117 392 32 333 q 379 451 203 451 l 506 451 q 464 517 499 494 q 363 540 429 540 q 258 524 311 540 q 168 481 206 508 l 68 688 q 228 751 135 729 q 410 774 321 774 q 713 686 606 774 q 821 408 821 599 l 821 0 l 529 0 m 507 247 l 507 300 l 429 300 q 333 236 333 300 q 353 192 333 210 q 408 175 374 175 q 467 192 440 175 q 507 247 494 210 m 414 -407 q 315 -382 360 -407 q 245 -315 271 -357 q 219 -221 219 -272 q 245 -126 219 -168 q 315 -60 271 -85 q 414 -35 360 -35 q 513 -60 469 -35 q 583 -126 557 -85 q 608 -221 608 -168 q 583 -315 608 -272 q 513 -382 557 -357 q 414 -407 469 -407 m 414 -296 q 467 -275 446 -296 q 489 -221 489 -254 q 467 -167 489 -187 q 414 -146 446 -146 q 361 -167 383 -146 q 339 -221 339 -187 q 361 -275 339 -254 q 414 -296 383 -296 z "},"ⱥ":{"ha":888,"x_min":32,"x_max":821,"o":"m 529 0 l 529 100 q 371 -10 486 7 l 335 -97 l 221 -97 l 257 -10 q 89 69 146 4 q 32 222 32 135 q 117 392 32 333 q 379 451 203 451 l 506 451 q 464 517 499 494 q 363 540 429 540 q 258 524 311 540 q 168 481 206 508 l 68 688 q 228 751 135 729 q 410 774 321 774 q 574 756 501 774 l 611 847 l 725 847 l 671 715 q 782 597 743 674 q 821 408 821 521 l 821 0 l 529 0 m 507 300 l 429 300 q 333 236 333 300 q 353 192 333 210 q 408 175 374 175 q 467 192 440 175 q 507 247 494 210 l 507 300 z "},"ã":{"ha":888,"x_min":32,"x_max":821,"o":"m 529 0 l 529 100 q 314 -14 475 -14 q 158 18 221 -14 q 64 103 96 50 q 32 222 32 157 q 117 392 32 333 q 379 451 203 451 l 506 451 q 464 517 499 494 q 363 540 429 540 q 258 524 311 540 q 168 481 206 508 l 68 688 q 228 751 135 729 q 410 774 321 774 q 713 686 606 774 q 821 408 821 599 l 821 0 l 529 0 m 507 247 l 507 300 l 429 300 q 333 236 333 300 q 353 192 333 210 q 408 175 374 175 q 467 192 440 175 q 507 247 494 210 m 558 829 q 470 850 507 829 q 406 891 433 871 q 353 911 378 911 q 310 893 326 911 q 290 843 293 875 l 142 843 q 194 1018 144 953 q 333 1083 244 1083 q 422 1063 385 1083 q 486 1022 458 1043 q 539 1001 514 1001 q 583 1019 567 1001 q 601 1065 600 1036 l 750 1065 q 698 894 749 960 q 558 829 647 829 z "},"ɐ":{"ha":888,"x_min":67,"x_max":856,"o":"m 358 760 l 358 660 q 574 774 413 774 q 729 742 667 774 q 824 656 792 710 q 856 538 856 603 q 771 368 856 428 q 508 308 686 308 l 382 308 q 424 242 389 265 q 525 219 458 219 q 629 235 576 219 q 719 279 682 251 l 819 72 q 660 8 753 31 q 478 -14 567 -14 q 174 74 282 -14 q 67 351 67 163 l 67 760 l 358 760 m 381 460 l 458 460 q 554 524 554 460 q 535 567 554 550 q 479 585 515 585 q 420 567 447 585 q 381 513 393 550 l 381 460 z "},"æ":{"ha":1393,"x_min":32,"x_max":1364,"o":"m 375 -14 q 123 54 214 -14 q 32 233 32 122 q 117 396 32 336 q 379 456 203 456 l 504 456 q 462 518 496 496 q 364 540 428 540 q 258 524 310 540 q 168 481 206 508 l 68 688 q 226 751 135 729 q 408 774 318 774 q 563 753 492 774 q 683 690 633 733 q 806 751 738 729 q 951 774 875 774 q 1106 748 1032 774 q 1238 673 1179 722 q 1330 551 1296 624 q 1364 383 1364 478 q 1363 341 1364 361 q 1358 304 1361 321 l 832 304 q 982 218 864 218 q 1065 232 1028 218 q 1142 274 1103 246 l 1306 108 q 978 -14 1190 -14 q 802 13 886 -14 q 654 100 718 39 q 531 10 603 35 q 375 -14 460 -14 m 824 456 l 1064 456 q 1023 532 1054 504 q 946 560 992 560 q 866 532 899 560 q 824 456 833 504 m 507 304 l 429 304 q 356 287 378 304 q 333 240 333 269 q 353 193 333 211 q 411 175 372 175 q 482 203 457 175 q 507 278 507 231 l 507 304 z "},"ǽ":{"ha":1393,"x_min":32,"x_max":1364,"o":"m 375 -14 q 123 54 214 -14 q 32 233 32 122 q 117 396 32 336 q 379 456 203 456 l 504 456 q 462 518 496 496 q 364 540 428 540 q 258 524 310 540 q 168 481 206 508 l 68 688 q 226 751 135 729 q 408 774 318 774 q 563 753 492 774 q 683 690 633 733 q 806 751 738 729 q 951 774 875 774 q 1106 748 1032 774 q 1238 673 1179 722 q 1330 551 1296 624 q 1364 383 1364 478 q 1363 341 1364 361 q 1358 304 1361 321 l 832 304 q 982 218 864 218 q 1065 232 1028 218 q 1142 274 1103 246 l 1306 108 q 978 -14 1190 -14 q 802 13 886 -14 q 654 100 718 39 q 531 10 603 35 q 375 -14 460 -14 m 824 456 l 1064 456 q 1023 532 1054 504 q 946 560 992 560 q 866 532 899 560 q 824 456 833 504 m 507 304 l 429 304 q 356 287 378 304 q 333 240 333 269 q 353 193 333 211 q 411 175 372 175 q 482 203 457 175 q 507 278 507 231 l 507 304 m 521 843 l 704 1065 l 1003 1065 l 729 843 l 521 843 z "},"ǣ":{"ha":1393,"x_min":32,"x_max":1364,"o":"m 375 -14 q 123 54 214 -14 q 32 233 32 122 q 117 396 32 336 q 379 456 203 456 l 504 456 q 462 518 496 496 q 364 540 428 540 q 258 524 310 540 q 168 481 206 508 l 68 688 q 226 751 135 729 q 408 774 318 774 q 563 753 492 774 q 683 690 633 733 q 806 751 738 729 q 951 774 875 774 q 1106 748 1032 774 q 1238 673 1179 722 q 1330 551 1296 624 q 1364 383 1364 478 q 1363 341 1364 361 q 1358 304 1361 321 l 832 304 q 982 218 864 218 q 1065 232 1028 218 q 1142 274 1103 246 l 1306 108 q 978 -14 1190 -14 q 802 13 886 -14 q 654 100 718 39 q 531 10 603 35 q 375 -14 460 -14 m 824 456 l 1064 456 q 1023 532 1054 504 q 946 560 992 560 q 866 532 899 560 q 824 456 833 504 m 507 304 l 429 304 q 356 287 378 304 q 333 240 333 269 q 353 193 333 211 q 411 175 372 175 q 482 203 457 175 q 507 278 507 231 l 507 304 m 375 872 l 375 1036 l 958 1036 l 958 872 l 375 872 z "},"b":{"ha":972,"x_min":69,"x_max":943,"o":"m 576 -14 q 368 63 436 -14 l 368 0 l 69 0 l 69 1031 l 383 1031 l 383 708 q 576 774 453 774 q 760 726 676 774 q 893 591 843 679 q 943 381 943 503 q 893 170 943 258 q 760 34 843 82 q 576 -14 676 -14 m 501 231 q 590 269 554 231 q 625 381 625 307 q 590 492 625 454 q 501 529 554 529 q 414 492 450 529 q 378 381 378 454 q 414 269 378 307 q 501 231 450 231 z "},"ḃ":{"ha":972,"x_min":69,"x_max":943,"o":"m 576 -14 q 368 63 436 -14 l 368 0 l 69 0 l 69 1031 l 383 1031 l 383 708 q 576 774 453 774 q 760 726 676 774 q 893 591 843 679 q 943 381 943 503 q 893 170 943 258 q 760 34 843 82 q 576 -14 676 -14 m 501 231 q 590 269 554 231 q 625 381 625 307 q 590 492 625 454 q 501 529 554 529 q 414 492 450 529 q 378 381 378 454 q 414 269 378 307 q 501 231 450 231 m 576 829 q 463 874 507 829 q 418 988 418 918 q 463 1101 418 1057 q 576 1146 507 1146 q 690 1101 646 1146 q 735 988 735 1057 q 690 874 735 918 q 576 829 646 829 z "},"ḅ":{"ha":972,"x_min":69,"x_max":943,"o":"m 576 -14 q 368 63 436 -14 l 368 0 l 69 0 l 69 1031 l 383 1031 l 383 708 q 576 774 453 774 q 760 726 676 774 q 893 591 843 679 q 943 381 943 503 q 893 170 943 258 q 760 34 843 82 q 576 -14 676 -14 m 501 231 q 590 269 554 231 q 625 381 625 307 q 590 492 625 454 q 501 529 554 529 q 414 492 450 529 q 378 381 378 454 q 414 269 378 307 q 501 231 450 231 m 576 -367 q 463 -322 507 -367 q 418 -208 418 -278 q 463 -94 418 -139 q 576 -50 507 -50 q 690 -94 646 -50 q 735 -208 735 -139 q 690 -322 735 -278 q 576 -367 646 -367 z "},"ꞵ":{"ha":992,"x_min":69,"x_max":963,"o":"m 69 -269 l 69 656 q 126 870 69 783 q 277 1001 182 957 q 490 1044 372 1044 q 696 1004 610 1044 q 828 896 782 964 q 875 744 875 828 q 851 635 875 685 q 786 550 826 586 q 917 452 871 517 q 963 294 963 388 q 927 151 963 210 q 833 56 892 92 q 703 3 775 19 q 557 -14 631 -14 q 383 8 465 -14 l 383 -269 l 69 -269 m 383 265 q 454 238 414 249 q 533 228 494 228 q 613 246 581 228 q 644 304 644 264 q 539 376 644 376 l 467 376 l 467 613 q 544 642 515 615 q 574 711 574 668 q 549 777 574 751 q 481 803 525 803 q 410 776 438 803 q 383 699 383 749 l 383 265 z "},"ɓ":{"ha":976,"x_min":74,"x_max":947,"o":"m 581 -14 q 372 61 440 -14 l 372 0 l 74 0 l 74 760 q 104 897 74 840 q 187 988 135 953 q 302 1040 239 1024 q 431 1056 365 1056 q 651 1006 560 1056 l 576 799 q 538 812 564 806 q 483 818 511 818 q 417 801 447 818 q 388 738 388 785 l 388 696 q 581 760 456 760 q 764 713 681 760 q 897 581 847 667 q 947 374 947 494 q 897 167 947 254 q 764 33 847 79 q 581 -14 681 -14 m 506 226 q 594 264 558 226 q 629 374 629 301 q 594 483 629 447 q 506 519 558 519 q 418 483 454 519 q 382 374 382 447 q 418 264 382 301 q 506 226 454 226 z "},"ʘ":{"ha":1178,"x_min":40,"x_max":1138,"o":"m 589 -22 q 370 15 471 -22 q 196 122 269 53 q 81 283 122 190 q 40 486 40 376 q 81 690 40 597 q 196 851 122 782 q 370 957 269 919 q 589 994 471 994 q 808 957 708 994 q 982 851 908 919 q 1097 690 1056 782 q 1138 486 1138 597 q 1097 283 1138 376 q 982 122 1056 190 q 808 15 908 53 q 589 -22 708 -22 m 589 243 q 699 272 650 243 q 778 356 749 301 q 807 486 807 411 q 778 617 807 563 q 699 700 749 671 q 589 729 650 729 q 479 700 529 729 q 400 617 429 671 q 371 486 371 563 q 400 356 371 411 q 479 272 429 301 q 589 243 529 243 m 589 351 q 492 390 529 351 q 454 486 454 428 q 492 583 454 546 q 589 621 529 621 q 686 583 649 621 q 724 486 724 546 q 686 390 724 428 q 589 351 649 351 z "},"ḇ":{"ha":972,"x_min":69,"x_max":943,"o":"m 576 -14 q 368 63 436 -14 l 368 0 l 69 0 l 69 1031 l 383 1031 l 383 708 q 576 774 453 774 q 760 726 676 774 q 893 591 843 679 q 943 381 943 503 q 893 170 943 258 q 760 34 843 82 q 576 -14 676 -14 m 501 231 q 590 269 554 231 q 625 381 625 307 q 590 492 625 454 q 501 529 554 529 q 414 492 450 529 q 378 381 378 454 q 414 269 378 307 q 501 231 450 231 m 285 -268 l 285 -104 l 868 -104 l 868 -268 l 285 -268 z "},"ƀ":{"ha":986,"x_min":-7,"x_max":957,"o":"m 590 -14 q 382 63 450 -14 l 382 0 l 83 0 l 83 819 l -7 819 l -7 972 l 83 972 l 83 1031 l 397 1031 l 397 972 l 613 972 l 613 819 l 397 819 l 397 708 q 590 774 467 774 q 774 726 690 774 q 907 591 857 679 q 957 381 957 503 q 907 170 957 258 q 774 34 857 82 q 590 -14 690 -14 m 515 231 q 603 269 568 231 q 639 381 639 307 q 603 492 639 454 q 515 529 568 529 q 428 492 464 529 q 392 381 392 454 q 428 269 392 307 q 515 231 464 231 z "},"ƃ":{"ha":972,"x_min":69,"x_max":943,"o":"m 569 -14 q 368 64 438 -14 l 368 0 l 69 0 l 69 1031 l 779 1031 l 779 836 l 383 836 l 383 668 q 574 735 453 735 q 759 690 675 735 q 893 562 843 646 q 943 361 943 478 q 893 161 943 246 q 758 31 843 76 q 569 -14 674 -14 m 501 219 q 592 258 558 219 q 625 361 625 297 q 592 465 625 426 q 501 503 558 503 q 412 465 446 503 q 378 361 378 426 q 412 258 378 297 q 501 219 446 219 z "},"c":{"ha":854,"x_min":29,"x_max":851,"o":"m 478 -14 q 246 36 347 -14 q 87 176 144 86 q 29 381 29 265 q 87 585 29 496 q 246 724 144 674 q 478 774 347 774 q 715 714 617 774 q 851 549 814 654 l 608 429 q 551 506 585 482 q 476 529 517 529 q 385 492 424 529 q 347 381 347 454 q 385 268 347 306 q 476 231 424 231 q 551 254 517 231 q 608 331 585 278 l 851 211 q 715 46 814 106 q 478 -14 617 -14 z "},"ć":{"ha":854,"x_min":29,"x_max":851,"o":"m 478 -14 q 246 36 347 -14 q 87 176 144 86 q 29 381 29 265 q 87 585 29 496 q 246 724 144 674 q 478 774 347 774 q 715 714 617 774 q 851 549 814 654 l 608 429 q 551 506 585 482 q 476 529 517 529 q 385 492 424 529 q 347 381 347 454 q 385 268 347 306 q 476 231 424 231 q 551 254 517 231 q 608 331 585 278 l 851 211 q 715 46 814 106 q 478 -14 617 -14 m 315 843 l 499 1065 l 797 1065 l 524 843 l 315 843 z "},"ꞓ":{"ha":921,"x_min":6,"x_max":918,"o":"m 544 -14 q 333 26 426 -14 q 179 140 239 67 q 101 310 119 213 l 6 310 l 6 463 l 104 463 q 184 626 124 556 q 337 735 244 696 q 544 774 429 774 q 782 714 683 774 q 918 549 881 654 l 675 429 q 617 506 651 482 q 543 529 583 529 q 478 513 507 529 q 432 463 449 496 l 546 463 l 546 310 l 426 310 q 473 251 442 271 q 543 231 504 231 q 617 254 583 231 q 675 331 651 278 l 918 211 q 782 46 881 106 q 544 -14 683 -14 z "},"č":{"ha":854,"x_min":29,"x_max":851,"o":"m 478 -14 q 246 36 347 -14 q 87 176 144 86 q 29 381 29 265 q 87 585 29 496 q 246 724 144 674 q 478 774 347 774 q 715 714 617 774 q 851 549 814 654 l 608 429 q 551 506 585 482 q 476 529 517 529 q 385 492 424 529 q 347 381 347 454 q 385 268 347 306 q 476 231 424 231 q 551 254 517 231 q 608 331 585 278 l 851 211 q 715 46 814 106 q 478 -14 617 -14 m 328 843 l 150 1065 l 344 1065 l 461 958 l 578 1065 l 772 1065 l 594 843 l 328 843 z "},"ç":{"ha":854,"x_min":29,"x_max":851,"o":"m 478 -14 q 246 36 347 -14 q 87 176 144 86 q 29 381 29 265 q 87 585 29 496 q 246 724 144 674 q 478 774 347 774 q 715 714 617 774 q 851 549 814 654 l 608 429 q 551 506 585 482 q 476 529 517 529 q 385 492 424 529 q 347 381 347 454 q 385 268 347 306 q 476 231 424 231 q 551 254 517 231 q 608 331 585 278 l 851 211 q 715 46 814 106 q 478 -14 617 -14 m 404 -333 q 331 -325 369 -333 q 268 -304 292 -317 l 307 -189 q 344 -200 322 -194 q 390 -206 365 -206 q 442 -196 426 -206 q 457 -172 457 -186 q 400 -144 457 -144 l 343 -144 l 381 14 l 542 14 l 522 -72 q 614 -114 588 -81 q 640 -183 640 -147 q 576 -293 640 -253 q 404 -333 511 -333 z "},"ḉ":{"ha":854,"x_min":29,"x_max":851,"o":"m 478 -14 q 246 36 347 -14 q 87 176 144 86 q 29 381 29 265 q 87 585 29 496 q 246 724 144 674 q 478 774 347 774 q 715 714 617 774 q 851 549 814 654 l 608 429 q 551 506 585 482 q 476 529 517 529 q 385 492 424 529 q 347 381 347 454 q 385 268 347 306 q 476 231 424 231 q 551 254 517 231 q 608 331 585 278 l 851 211 q 715 46 814 106 q 478 -14 617 -14 m 404 -333 q 331 -325 369 -333 q 268 -304 292 -317 l 307 -189 q 344 -200 322 -194 q 390 -206 365 -206 q 442 -196 426 -206 q 457 -172 457 -186 q 400 -144 457 -144 l 343 -144 l 381 14 l 542 14 l 522 -72 q 614 -114 588 -81 q 640 -183 640 -147 q 576 -293 640 -253 q 404 -333 511 -333 m 315 843 l 499 1065 l 797 1065 l 524 843 l 315 843 z "},"ĉ":{"ha":854,"x_min":29,"x_max":851,"o":"m 478 -14 q 246 36 347 -14 q 87 176 144 86 q 29 381 29 265 q 87 585 29 496 q 246 724 144 674 q 478 774 347 774 q 715 714 617 774 q 851 549 814 654 l 608 429 q 551 506 585 482 q 476 529 517 529 q 385 492 424 529 q 347 381 347 454 q 385 268 347 306 q 476 231 424 231 q 551 254 517 231 q 608 331 585 278 l 851 211 q 715 46 814 106 q 478 -14 617 -14 m 150 843 l 328 1065 l 594 1065 l 772 843 l 578 843 l 461 950 l 344 843 l 150 843 z "},"ċ":{"ha":854,"x_min":29,"x_max":851,"o":"m 478 -14 q 246 36 347 -14 q 87 176 144 86 q 29 381 29 265 q 87 585 29 496 q 246 724 144 674 q 478 774 347 774 q 715 714 617 774 q 851 549 814 654 l 608 429 q 551 506 585 482 q 476 529 517 529 q 385 492 424 529 q 347 381 347 454 q 385 268 347 306 q 476 231 424 231 q 551 254 517 231 q 608 331 585 278 l 851 211 q 715 46 814 106 q 478 -14 617 -14 m 461 829 q 347 874 392 829 q 303 988 303 918 q 347 1101 303 1057 q 461 1146 392 1146 q 575 1101 531 1146 q 619 988 619 1057 q 575 874 619 918 q 461 829 531 829 z "},"ꭓ":{"ha":924,"x_min":-42,"x_max":1018,"o":"m 1018 -181 q 888 -268 957 -240 q 751 -290 818 -296 q 628 -245 683 -285 q 540 -131 572 -206 l 483 0 l 376 -269 l 35 -269 l 321 260 l 196 481 q 155 518 178 513 q 99 488 132 524 l -42 671 q 88 758 19 731 q 223 780 157 786 q 345 734 289 774 q 436 621 401 694 l 492 506 l 599 760 l 933 760 l 642 253 l 781 10 q 824 -28 800 -24 q 878 3 847 -32 l 1018 -181 z "},"ƈ":{"ha":919,"x_min":29,"x_max":994,"o":"m 851 549 l 608 429 q 551 506 585 482 q 476 529 517 529 q 385 492 424 529 q 347 381 347 454 q 385 268 347 306 q 476 231 424 231 q 551 254 517 231 q 608 331 585 278 l 851 211 q 715 46 814 106 q 478 -14 617 -14 q 246 36 347 -14 q 87 176 144 86 q 29 381 29 265 q 87 585 29 496 q 246 724 144 674 q 478 774 347 774 q 615 756 551 774 l 615 790 q 649 941 615 882 q 738 1028 682 1000 q 861 1056 794 1056 q 994 1028 928 1056 l 938 822 q 878 819 906 832 q 851 767 851 807 l 851 549 z "},"ↄ":{"ha":854,"x_min":3,"x_max":825,"o":"m 376 -14 q 139 46 238 -14 q 3 211 40 106 l 246 331 q 303 254 269 278 q 378 231 338 231 q 469 268 431 231 q 507 379 507 306 q 469 492 507 454 q 378 529 431 529 q 303 506 338 529 q 246 429 269 482 l 3 549 q 139 714 40 654 q 376 774 238 774 q 609 724 508 774 q 767 585 710 674 q 825 379 825 496 q 767 175 825 264 q 609 36 710 86 q 376 -14 508 -14 z "},"ȼ":{"ha":854,"x_min":29,"x_max":851,"o":"m 478 -14 q 371 -4 422 -14 l 332 -97 l 218 -97 l 269 26 q 94 165 158 72 q 29 381 29 258 q 87 585 29 496 q 246 724 144 674 q 478 774 347 774 q 575 765 528 774 l 614 861 l 728 861 l 675 735 q 851 549 806 676 l 608 429 q 572 486 593 464 l 468 231 q 476 231 472 231 q 551 254 517 231 q 608 331 585 278 l 851 211 q 715 46 814 106 q 478 -14 617 -14 m 375 282 l 476 529 q 476 529 476 529 q 385 492 424 529 q 347 381 347 454 q 375 282 347 321 z "},"d":{"ha":979,"x_min":36,"x_max":910,"o":"m 403 -14 q 220 34 304 -14 q 86 170 136 82 q 36 381 36 258 q 86 591 36 503 q 220 726 136 679 q 403 774 304 774 q 596 708 526 774 l 596 1031 l 910 1031 l 910 0 l 611 0 l 611 63 q 403 -14 543 -14 m 478 231 q 566 269 531 231 q 601 381 601 307 q 566 492 601 454 q 478 529 531 529 q 390 492 426 529 q 354 381 354 454 q 390 269 354 307 q 478 231 426 231 z "},"ď":{"ha":979,"x_min":36,"x_max":1231,"o":"m 403 -14 q 220 34 304 -14 q 86 170 136 82 q 36 381 36 258 q 86 591 36 503 q 220 726 136 679 q 403 774 304 774 q 596 708 526 774 l 596 1031 l 910 1031 l 910 0 l 611 0 l 611 63 q 403 -14 543 -14 m 478 231 q 566 269 531 231 q 601 381 601 307 q 566 492 601 454 q 478 529 531 529 q 390 492 426 529 q 354 381 354 454 q 390 269 354 307 q 478 231 426 231 m 1011 808 l 1011 1100 l 1231 1100 l 1189 808 l 1011 808 z "},"ḑ":{"ha":979,"x_min":36,"x_max":910,"o":"m 403 -14 q 220 34 304 -14 q 86 170 136 82 q 36 381 36 258 q 86 591 36 503 q 220 726 136 679 q 403 774 304 774 q 596 708 526 774 l 596 1031 l 910 1031 l 910 0 l 611 0 l 611 63 q 403 -14 543 -14 m 478 231 q 566 269 531 231 q 601 381 601 307 q 566 492 601 454 q 478 529 531 529 q 390 492 426 529 q 354 381 354 454 q 390 269 354 307 q 478 231 426 231 m 429 -375 l 465 -265 q 406 -174 406 -242 q 439 -98 406 -126 q 531 -69 472 -69 q 622 -98 589 -69 q 656 -174 656 -126 q 649 -220 656 -193 q 621 -285 643 -247 l 567 -375 l 429 -375 z "},"ḓ":{"ha":979,"x_min":36,"x_max":910,"o":"m 403 -14 q 220 34 304 -14 q 86 170 136 82 q 36 381 36 258 q 86 591 36 503 q 220 726 136 679 q 403 774 304 774 q 596 708 526 774 l 596 1031 l 910 1031 l 910 0 l 611 0 l 611 63 q 403 -14 543 -14 m 478 231 q 566 269 531 231 q 601 381 601 307 q 566 492 601 454 q 478 529 531 529 q 390 492 426 529 q 354 381 354 454 q 390 269 354 307 q 478 231 426 231 m 219 -299 l 397 -76 l 664 -76 l 842 -299 l 647 -299 l 531 -192 l 414 -299 l 219 -299 z "},"đ":{"ha":979,"x_min":36,"x_max":981,"o":"m 403 -14 q 220 34 304 -14 q 86 170 136 82 q 36 381 36 258 q 86 591 36 503 q 220 726 136 679 q 403 774 304 774 q 596 708 526 774 l 596 1031 l 910 1031 l 910 0 l 611 0 l 611 63 q 403 -14 543 -14 m 478 231 q 566 269 531 231 q 601 381 601 307 q 566 492 601 454 q 478 529 531 529 q 390 492 426 529 q 354 381 354 454 q 390 269 354 307 q 478 231 426 231 m 386 813 l 386 965 l 981 965 l 981 813 l 386 813 z "},"ḋ":{"ha":979,"x_min":36,"x_max":910,"o":"m 403 -14 q 220 34 304 -14 q 86 170 136 82 q 36 381 36 258 q 86 591 36 503 q 220 726 136 679 q 403 774 304 774 q 596 708 526 774 l 596 1031 l 910 1031 l 910 0 l 611 0 l 611 63 q 403 -14 543 -14 m 478 231 q 566 269 531 231 q 601 381 601 307 q 566 492 601 454 q 478 529 531 529 q 390 492 426 529 q 354 381 354 454 q 390 269 354 307 q 478 231 426 231 m 374 829 q 260 874 304 829 q 215 988 215 918 q 260 1101 215 1057 q 374 1146 304 1146 q 488 1101 443 1146 q 532 988 532 1057 q 488 874 532 918 q 374 829 443 829 z "}}}
